<mxfile host="app.diagrams.net" modified="2022-06-15T13:23:20.186Z" agent="5.0 (Macintosh; Intel Mac OS X 10_15_7) AppleWebKit/605.1.15 (KHTML, like Gecko) Version/15.4 Safari/605.1.15" etag="RM_VMeKp3F7euQgm3_y5" version="19.0.3" type="github">
  <diagram name="Page-1" id="c7558073-3199-34d8-9f00-42111426c3f3">
    <mxGraphModel dx="2169" dy="713" grid="1" gridSize="10" guides="1" tooltips="1" connect="1" arrows="1" fold="1" page="1" pageScale="1" pageWidth="826" pageHeight="1169" background="none" math="0" shadow="0">
      <root>
        <mxCell id="0" />
        <mxCell id="1" parent="0" />
        <mxCell id="ika4lujq_CqSN-vQrN8l-112" value="" style="shape=crossbar;whiteSpace=wrap;html=1;rounded=1;strokeColor=#FF0000;" parent="1" vertex="1">
          <mxGeometry x="80" y="830" width="680" height="20" as="geometry" />
        </mxCell>
        <mxCell id="ika4lujq_CqSN-vQrN8l-113" value="&lt;b&gt;Teckton Continuous Integration&amp;nbsp;&lt;br&gt;(CI)&lt;/b&gt;" style="text;html=1;strokeColor=none;fillColor=none;align=center;verticalAlign=middle;whiteSpace=wrap;rounded=0;" parent="1" vertex="1">
          <mxGeometry x="271" y="790" width="249" height="30" as="geometry" />
        </mxCell>
        <mxCell id="ika4lujq_CqSN-vQrN8l-116" value="" style="shape=image;verticalLabelPosition=bottom;labelBackgroundColor=#ffffff;verticalAlign=top;aspect=fixed;imageAspect=0;image=data:image/png,iVBORw0KGgoAAAANSUhEUgAAAYIAAAB/CAYAAADigcX6AAABQWlDQ1BJQ0MgUHJvZmlsZQAAKJFjYGASSCwoyGFhYGDIzSspCnJ3UoiIjFJgf8rAzSDIIM6gzyCQmFxc4BgQ4ANUwgCjUcG3awyMIPqyLsgs3TNvsqQU9r+pKdhyfAvfxYuY6lEAV0pqcTKQ/gPESckFRSUMDIwJQLZyeUkBiN0CZIsUAR0FZM8AsdMh7DUgdhKEfQCsJiTIGci+AmQLJGckpgDZT4BsnSQk8XQkNtReEODwCFBwNTIxJuBU0kFJakUJiHbOL6gsykzPKFFwBIZQqoJnXrKejoKRgZEhAwMovCGqP98AhyOjGAdCrPgMA4P9OSAjGyEWuZ2BYfUHBgaejQgxzWBgEDgxMBwTKEgsSoQ7gPEbS3GasRGEzQ3Uxzrt///P4QwM7JoMDH+v////e/v//3+XMTAw32JgOPANAFF5YCO6R/iHAAAAOGVYSWZNTQAqAAAACAABh2kABAAAAAEAAAAaAAAAAAACoAIABAAAAAEAAAGCoAMABAAAAAEAAAB/AAAAAJpMx+cAAEAASURBVHgB7L0HYFzVlT7+aYp677LkLveCKy4YFzA2BkwzwbQktAC72d0km2w2ye4/ZbPZTW+kk4TeDTa2MRhjbNx7Lyq2itVl9T5N+n3nzbyZN6MZaUaSwez/HXv03tx32zvz3vnuPefcc8OGjxjVAxedPXNKPdWPOgd0Dugc0Dnwf5wDU6ZOV+7Q8H/8PvXb0zmgc0DngM6BfjigA0E/DNIv6xzQOaBz4P86B0yBbrCmpAoV5+rdl+OTIpXzuKwYZIzKcqfrJ4C1sws9pRWw1dbBcrlJYYmxqQmOxETE3bIE4VFO3um80jmgc0DnwNXIAb9AsO/1ozj/cRF6unsQEevMYm23O/sfFoYwftKyo5EyNgO584chfeT/v4DBRsFvOXwSOHgczfvPwlBLwOyhqYWfiIRotPWEOb+TT9ZfPY+4//kKYhfPuxp/f71POgd0DugcQJivsfj4+2dxdMNZmCNdWiMKM4VE0Lko3GFDGC8LIIR1WXgehuylU5A778qAguUyBW19E+rLGmCrc464ra2NMHR0oDs6WulVeFwSzKmJSBmeDMPIbJivwCi8bddB9Gz8ELY9p2ExhiEijiN9e7dT8KvM0Ry7QCaRb12tFkx48YeImDhWc1U/1Tmgc0DnwKfLAdVY7AUEJw4fwgv/uhGmCEXK++1huMOKMHhAQU7D7RZYHWEwUDhmZEQi5+Y5GDt/4EKvtrQanfvPoDGvDJaKOoR1dysCtYdCVdoSknNlFO4Cqgi7VZBJAaW2libEJSYjZnwOwmdORNK8aYhIS/Z7P8EkNqzfhrDn3kRXfRsiYiIo/B3OYmxPGf37qUQBAVe69NWYkYbcV3/qJ6eepHNA54DOgU+HAyoQeKmGKvJK4eAI1xRpdPfK2mZDeKxZ+d4LBCTVNWEwGwUcetBQ24Gmv3yA82/GY9rn52LkjPFK2f7+iPCv33YMrYfOoVsEv8OBbgfrpHpKCzxdMCLCBQbaOntsTtWV9CLKHAVHRxe6ThbAcuYCGv/yOpCUiow7r0fMotlBg4IAgPW3L0Lqjog0IyKC7HKwby7wCQQCjZc7lK5FpcWC8KTk7zpXClEpXYmZitKY/kfngM4BnQMD5IA3EOS3cMTrSbK223Dfj27BsffOoWBvCYWhiFkP9bR3Ob+EcyTuSpaBuiM8goLYipNPb0fpyBOY9w/LAwrfUgrrSwSOjg474ns60UMg0pIWBCRdwMiXwmU2oCFRWSlEod3Dj8EQDrS0ovqv6xD+3HokXTMOsQ/egYgJYzSlPKftew7D+su/0/DbgvBwgqIAgJBaL08tTR2ISYxGu9gDfGj8b78Ga1snSr7zJxgJBgqxH92XKoEAbfpUoX/VOaBzQOfAJ8YBj9Rnk/Wl1L9rhF1KZjTi0uKwcO1sjJk9DHv/ssfdsXCbBRMfmI/WRgsqtp8A2tqAWJfQYx3Rtnbm7UFnWS12/ftLSLxxHOY+uMpdvvRkIcr++gFnIBz5d1lhJoB0wYQI5xhayaeCQLjDqQ6SxDAijSnR2Y69qU05t/Io/TF329HY2oakOFc/XK0JMJhp1+gxmKhmAtpPXkTHyZ8hcfJIhD+yFhHjRys5LQXFsD77Otr2nUWE2aCAgBtUXHUpAHDtBJhuWYbu4kvAho9dV4D4CTk0DH8TxphohIldg7MZlQQQ2s8UBgQfNZ9+1Dmgc0DnwCfNAS8gaK5t9Wo/NTddAQYz1SLZk3Jw63/cig//sBNd5RRynAWcffsobvvR3bhmxURcOl6Asi2n0FzZhOgIzhBkaiBEYShj/Lr3z2HHkQpMXD0TpXvy0Vx8GeGwKVnkj1bdowKAOSsVSeOHIXPGKIQlJdIY7NLz0zhd+/4eziTWYeI31sKcO1pRH9moDsohEBira9BxKg9VO88CzQ1KG+boKGIc7Rg91O/zfw//tZwthfGp7yP2juthHT0a1l+/oAj/cNo6hLQg0EPehK9ZhKi1nElkZ6Bx6x5Y3/iQfDCjsa4DWcumIf6HX4PBBUIRmWlKHe4/7HPrqYtIXuNO0U90Dugc0DlwVXDACwi6Wq0Ij3HaA6R3UVR9qGQwGhCbHo+bv7ES7//0ffTU0WuHo+wd/7MRN/3gLoxdOAUjZ45HbXEVGnYeR8X+ixwZRzmLiwA2s96mZpx+YTfMhm7OAETX7rwso3nXKcKzUjDxcwsRPo7C3WhEGEfmRjO7aTDQEEwjtouU+mhLMFLAm10zBGMCZwKZKQgbQyPx3GsQ96ANdnoWNXx8BD17j8JRQMEf4bm/Htog7BHhFOoHEGM+pMxFwjlDES8oIRn9C8XetgDme1cjfMQwhLG9jgPHYH36ZdjYLwGBnIdXIumxtW4QkDLS18gxWbC1t7kNyoY8ziB00jmgc0DnwFXGAS8gUAfxqh5eXUSm9llGyFF0mbz531Zi34/WobnFTtfILmz7/gbc8pP7FIE9bMpIZOZmYcyadhz8y9uwFjQpgBDeI6N/qnVAoy4nC6xKIQEBqykcY1fPRcayWYrwN0dHEAC8uqZ2oc+jMoKXiimEBSgMFNqmpDhk3r0cuHUxrC1t6NrwPlo37vauhzfeTu1TjAdnIDOAmDsXIubLD1P4RyJM1D2s13byHFr+82nYCIxN9Z3I/uIKJD1xPwy87kvhE0fDdvS03K5CLfWcSemkc0DngM6Bq4wDGtHn7JnbM6i9kx4u3oZbte9R8VG47ttrEB/nFNZdlXXIf36rctloMsLMmUBsdgoWff0BjH3yJoR3izHXKQ7dAEADrxh5h1PYLvjFk8i+ZQEikuMRnhATEARK/vgKin/8nNoN99HWaUHR49+D7dQ5d5p6IuBg5JoCY2I8IodnIeHR+zDs5Z9xlL8IxuY2xCiKKyA6TLyTnGQcl4Pol/8Xsd94km6fqcpIX0DAyllQ/Td+BpvcCuuNXT4XyU884BcEpCZHcoyzQtdfa3WL13f9i84BnQM6B64GDvQCAlU/L77vUUneRldthyOpNpr31VtpJG5HNC29BR9fxKXtx9xZRABHUlVj7vSAgHpRACCOaqTZv/xHZN+6AJEp8RTW9M/vh2o270HFuu1KLjNdSGMovIW6yyrReiwf5TsPK98D/ZE+GWKjYaJwT3z8PiT/7Ycw5WbD2NLuBgEp62B4DQN1/4b4OK+q6n/9HKzi1UTVkSU2ASP+80mlPq9Mmi/xI7LcaiFJlpXaOukc0Dmgc+Bq44AXEMQ4Or36Z+AouC+KzUrChAeuR6e1B2ZaYPNf3kNfeY+HT9lbO3Fx3UGvKgQERn51DSY+fgsi0xKV0bpXhj6+TP7fr2D6X7/jzEGgUnsXPioH4370JHK+cHcfpb0vGWJjEDllHOL++xuI+NI96LmsMZTbHGj86o/QTluASnLes+MwLAYjVUK0C/zmm1Q7xauX/R4NnB2pot9OENJJ54DOAZ0DVyMHVFmq9C3MpSZRO9rZpBGOaqLmKCPs8UsnY9RMGlEp5xwUe8d//Y6So+ClbcjbfAJGl9+/AEBsSixm/ewpZE0fi/D43jp1TdV+T2On5CJuWu8FamEcvUctW0ijsfcI3m8lmkQxRhvoiZT0wGpE//obsDQ7jcOyNsDaZUfr935HMDiulGj8+bNoDw9HR307xv7PPyCShuP+qKnBqQoSEBBA6CSI6KRzQOeAzoGrjQNeQODbOVtn/6NYc5QZkx+7WVnJG8YARO0XKnDkJ+tQ8uEZGOnXLzGJFFXQjFxM+/f7EZWZ7PQC8m0siO+KFxGFtz+yq0Nvfxf7STNSXRR53RwkvvgTdFLYR4nKieofq5Uzg188i+r/+h26G+k+yrTYpbMQfcNCt2dRX1X30JVVSO1aVKrLi6qvQvo1nQM6B3QOfMIc8AsEZo7ehSSUcjAUQffNMY8sVcCAcSHQWlAGE/31VRBIWzUPEx4VVVBCMNUFzFP4zz9G4Rf/3X1ddQS1XixFwwNfQ8vrm9zXQj0JIwBEcmFZ+p9/gK4IV9hoCv5ujuqtB07CQkWURFka8R9PICyyf3uGtG8pa4LMBuycYcjHoc8IQv1Z9Pw6B3QOfAIc6AUEAgKyGCyCC8Zqm4PvwZjrpyMmyyXoCQYCAlJX+sKJGHX7QkT0YXgOthVLZT26mzx2jC6qaYR66BXkKK11evMEW5mffLJ+wDx8GDL++F10RzlVVwIAFotDUQllf/0hmNOS/JT0n9RcyFDevKR+kkaP9J9RT9U5oHNA58CnyAEvIIjMSnavCBb9f2d+SfBd6+hEN71vVBIQiLtmLEbev4JB64ZGJZL7q3/FqN9+S21CCQEtX8LTU5H2xs+RuGqZ59ogzswjsjHs9/9Bz6B4txCPSIhEy/5TQdcqRvPWqmZlJqAWipo8XD3VjzoHdA7oHLhqOOAFBMncaEZLLaWXtV/7PD/+03W0FjN2A0lAICI9ERMeWYVw16rfPgsHeTGS7pgRI3sbacNk7ULuKCgri4Osq79s4dzTYNiPv6Zkk6VwDrZx+cOjaNq6q7+izusXitFNV1OZDdBSAmtjJ2LZR510Dugc0DlwtXHAa/lu+uhkNGhc8R00ltaXX0ZKjk/cHJ+7KN+0Bx21HnuCgaqlqV+/V1kf4JM15K8ysu6pqoG9vpHC1OmFY2yh3v7YeUSkcDewDR/Aei4fjninK2cs4wB1Z6UjPDkx5LZ8C0RPGIlhdFm9+OT/wCiLwxiJtOLnLyJ67vR+66/cfZR5ohUQUFRDdElNWTDdtwn9u84BnQM6Bz51DngBwchp2ch7li6UmnAJrdwcpi8gsDY0oeCdY+4FWTIbyHlqNaKGpQ7o5kTw287mcVFXBWr356GHQeN6bIwcyhhA8olhbCBlrwIuVIukyqnryHl0HuOKYnoTyergNsYSsnZyBzWO4KOnj0M3R+FRk3Nhmtzb7bS/Dspq4piZU5D+yK2offZdBQy6rTaU/uAvGMd1BH1R6QeHlVmEgICQjUASmTo4Y7mzJv2vzgGdAzoHhpYDXkAQTWEVlxaD1g6uKrYREBhFtOS94xi1fFbAVguf/YCCmgZm1Tg8bzyy5k4KmD/QBfu5AtTsOIa64+cRTwHcY7XA3sz9DuiCKmRyOI92AoBBNq4hGcQ/30IPJ34XAd3h8naVPQ2iuSbC2toKCwPOOWSVMIEpbPkiRCxb0O9oXqnc9UdiHqU9dAfqth0FOlrRQcBp2X0K2UdOInrONdqs7nNrcRk6Suu4GY5nrcSoFXPJIy9NnDu/fqJzQOeAzoFPkwNekkkEVc6cUQzY38FwzdzQhYK1o6oBFedL/PbR2tDMUM5FEuNNsQuISmjkfTfBrInw6begJtF+vhBF//ZrnP3x39Gx9zjMlxthu0y3y+ZOzjIY/4cul2YeZZWzfNTw1kr/JIIpqZszBeXI4XcE80aaGAZbVvVyZiAhLrqb2mEvLIft9XfR9OXvo/2nf4II62DJlJyAkf/5GJoZaVRaDGOE1oJfvxywePXbOxmy1ONiKns2pN66NGB+/YLOAZ0DOgc+TQ54AYF0ZPi8XLfRV74bqIopf+eQnPaiS1uPcuTucINAytoliAhS/SEgcuHHLzgBoKiC+wZYKbitMPn42ptkURoBRkiEv5zLUSWZCciMQEgWgslyM+2SMwEEmI3oIKx0NLTBQmBr3H0MTd/6GTqee0MpF8yf2FmTkHrdNCWrhMZuOV2Gup1HehW1cZOdC+/sUtqUi7L2wBgbjvRJo3vl1RN0Dugc0DlwNXCgFxBED89AXIYnVIPMEprOcTTd6L2oQL7Xf3xCuQeZCZjpJTTyhtlB3VPHsdM4/61fcU/hPO5R4IxNFOHTEwGAgYCAvw4ICEi8N/n0MHx0d4cVlpomNG78GNX/9H1YS8r9FfNKk7DW2U+ugY1xhpS4QfGRKODGOL5UuXE7rC6gEhDobOrCtPs5S4qkbUMnnQM6B3QOXIUc8BG/HHVT4OXeMw8OGm1VMjGK0NnnP1K/KsdLH3CjF+7LKyQqnNzb5yFS3YhGSfX/59K6D1D4m1eAGnoAcTQvYatNXIBGq4C7gAoAoc4E3BVoTlQQ0CQpp13U9XcwtlDr+VIUf+MXNDif9s3S63v05LH0/Jmm9NQebkJLXrlXOQHHomc2wUq7goAA5y9wcEVx9h1Le9WlJ+gc0Dmgc+Bq4UAvIJCOZc/KRVRaPHcRo46dHwO3bqw5XoLLB84q/Rb1R91O52xAEqKiTUi4dopyra8/5S9vRM0b3LeAswABAKFAIKDWE6w6SM2vPfoDAdkLTT6y+4B8RGBbaxtQ+l/PwFra98xAQHL4E3ehs7ELoq0yxoSjbP1ed5PV73wIS5dFAQABAUubFVPuXYYobrmpk84BnQM6B65WDvgFgnCqMUZzu0hrp+jnnfp3U48dZW/sVO6jkbH/Ha2e2UDS4hnKbmB93WQ99fLV63cg3MLtJT8lEBChrwKA9FX8kGQeEkYbgq2+GSXf/FUvFZjk01Ls1FykuPT9PRz5l9NOIDMBAZELjLgqswGVTJEmjH9kte4tpDJEP+oc0DlwVXLALxBIT4fNHofUaZ6QCDIr6OKiseL1e1D9sTPUgohVM8NMZ65a2OfNiZC89MybMNOuazQ5BWVfMwHVIygYw7C/hv3NBFRVjZpfQMBjciYYcLGYhTut5XEbyr5INqxJu/k62OjaKuXpk4Sqbftw4L+fRavFrswGpLyVtoHJD96sRFvtqz79ms4BnQM6Bz5tDgQEgnDuGCb7CJvtEmBB3EOdx8sfHkHHhXJlbC3psblpXOHb9wYt5U+/CQMFp4CAAEB/ICAA0BcIRLq8g6R9XxoICEgdHdTld3I037T3LMpf2+xbrdf3zFUL0E2hrxDLFL+1Aw0XK9CtmQ1E5iRz3+YbvcrpX3QO6BzQOXA1ciAgEEhnEyaMQMri6QoIqC6b9uZ2LuJygQNnA9nX+19Upd5sw94TsF4sc4OAGIX9GYYlv2oPUM/VOrQuogICHuWLmsN5HCgIdEqIaFYhH0NcBMr/tgm2S3RpDUDiImuaM065KjON5sveHlVWgt6cf30gaFfaAM3oyToHdA7oHPhEONAnEBgYo3/UHddxxK9xJ1W06s6+ieCOmNG3kbjplXfRTRdU31mA1KB6B8m5PxDoZmgJ+ajrBK4ICFCQu8b20g16TRkVj6miP72jfA/0Z+TyBWjj2gcxCstHJQGBSQ/djEw9rpDKEv2oc0DnwFXOgT6BQPoexfUBYx65maLOaWZV70dsA0KmlCQ1qdexZddh2Kl3l5AQ2lmAUo7rBIxUE9m7umDo4ipiC48EFvkIKQDg4Ll8SIFAQGYBwc4E5GYd3M9APir57mzmkLAVEWIEPgpbWeBZQfa8KbBxMZ2WLO3cjvPaiRhHIJCFeDrpHNA5oHPgs8CBQFoWr74nTR2DzAeXo/6FLbAZwxUDsQjsqLHpdC0NjCUNr9NVlOQPBBydnTBMHIv0uROUHb8MBATbqXx07j0Deyx3CHMBgJTvCwRkkZgv+RqG5bqNISvS196AcEYmFXJ0dKCD+ws0nijlJvTO/RIEBJywwz4bu1H28ocY860vKvl9/0SPyER4gieMhFyPzEjE3K8+wJ3YBh/51Lc9/bvOAZ0DOgeuFAeCAgIR9hnzp6Dx+c1uEJAOxfURNqFx/0lYuaOYlkQVJORghLq0bz+G8IwMREqUUnEnZbyg7nkzYV50EU1/ep07XnYrACD5/XVSIhEFCwKRI9KR8YU7EcWtKE0JsVIlurkWIm7+TEQez0Px85vYJycIcG815Tq4YKz0vX0Y/iBXBXPXMl+SEX/MhOHoKq6ChTYGoaThaUijXUUnnQM6B3QOfJY44E/G+u2/sdlpEFVVNyaHDYkTRvrNK4kd2/Z4XdPaA7K+/Shj+k9jsDg7Onfug6OiFsbsdMSsXIpobgiD+Dg0ffvXMGkCt2krExBwBDETENgxRUcj7asPI+qaiZwVtKJ66x4YGWIifNwIJM2/BhGjhyMsJQH5330GjqQYL3Dp7rahet8JDF/bGwikPzHTctF8phT2aM5gSC3l3sCnJOp/dA7oHNA5cJVzIGggaOGewFoSvX84hag/EoHbxo1jwsLMymUVBOy0A2Q8dCtiKYAlT8NP/gx7RTV62roQExeJroNnkPLdf0L04rnoXH09bJt2wSxqIg0FAwKq8VfUQVnfeEQBgc7Teaj8/etoZrthNtk5zICGeacx9t8eQtryhajecZhqogK25BzdKzMDcQ3dtJtAcIumB57TlGnjUfbCh+4Ea3Uj7PSoMoUQfdVdWD/ROaBzQOfAp8SBwAp+nw51UMj5kinJ//oBG7dptLVyPwOSCgLKOdU/ETOcexU0vfQOLBT8PVyk1t3Uho7yOnTvOYbOde9SP29E/BfvhqHD6aaqVMQ//kBA7AFam4CAgOj55RM3LhsJy67lGVD0xzdQf6aIweYa0cXIp23VdVzp/BEqtuyCITICyXOmKuZwySsgoNbRnlehgJak+1L2WO+ZQjtXTTvaPfs2++bXv+sc0Dmgc+Bq5EDQMwJbTZW7/7JJTE9CvCKw3YmaE0t5LSKoQzdqQkjLZSNHyi0vb2LZXbAcOklXTRN6XEZhUfWIF1Hri5sQdc+tiMjJgnnKcHRzbwKhQCCgdd1UQUApwD+x189UhLytvAoNB/JgSvQYhUHPIEeXHRf+vAGW8+Woz7+gqIVUEJA6uM8ZLBTudRV1yErwuNCq9UdptsMU7yM7bQUNBMwsTbqaVz/qHNA5oHPgauVA0EBguXRZuQcBAQMFtnZtQa+ba2iESUJJSGQ2kmpXIHLAcvoCemiYDaN9oIfqJRUIxDNIoeJaZQRupuA1jnMCwUBAQOqKGJOjVGkrq6JxWGBCDNUezyBHpJl7ITehfPt+2Oi15AsC8l3AwF7TAEwerZTX/jGJbYCb1AgIyAxCqLOTu6rppHNA54DOgc8QB4JWDTnoI6+CgNyfwTW69nevPbI1pGs9gBw9ISOcwl6+a0EgQrNauJvbonXtOUwwaEMbwzYMFASkX+2yKxnraeK+xuIi6gUCov5hdwyMMdTFiKH+QEC9t256EPkjA72dbEaTGwSUPI1OlZi//HqazgGdAzoHrkYO+Jdwfnra3dGlrA5WLzm4cXwgipg2CdW/W4eY1HgFBCSfbF7jjPXJv7IZvUslJCDgNCk7azNyw5cO2g+sOw7A5scuISP0vtRBUos6Jq/dfRyN+Zdgq61HD0f/6qhdEfpOTPICACkr9ct1lczx4UiZ2Hs2oF43JMWhu7FV/Yrmmjr3uX6ic0DngM6BzwIHgp4RhHV4VuOaOMqPCWAolpuOHDcSiXcuRhg3oBcAUEFAAYA+QEDKGjn6ttENs/PgOfnqRb5C2tcmIJkFBGzU1cuns64RTcfy0Eb1z0BAwEo304lPrUFsH0H1DC7XUelbGLek7OQqaZ10Dugc0DnwWeJA0DMCMeSqJOqeiD62XjRGRSKNC7ja05LQ+vZ2xmS2KkW1swBJ0M4E1Lq7ZMQfQBXT0erZNS0iPYkOoJxp8COeQEJdlPbdCd4zlZ6o0GcCNrYTO3U4Jq9aguG3LFTq7uuPgIASgEMTfbSv/Po1nQM6B3QOXE0cCBoIZBZg54pgOQZDZoZyiLt7Jcw5mWg9yFXG3MDFwO0vzdEMURGgAgEB39g/UsaeGI9IbhGZnpzExV9JMFLgmuOdK4SlKltLG+ytbehiXKMWqmbaTl+EncHfwmjHUHsbjDpIACAqOxlZty5GznVTkTVnCsQO0B8JCDjb8aiU+iujX9c5oHNA58DVwoGggUD08gICMhuQ2YGRsXr6IyMFeMyK62HMHQX7zMno4fqC7oul6DpaAJOdwGIyEBic8Xp8QUAAALk5iGcUz7DRo2Aez09ygiLwJZJpW30bjFzd7DCakTh+OOyRUTA4HEi63IDOS9XoPFWA4o+OML8FJoaWVsNRaI3C7a3OdQpGXs+aNQ4Jk3IRMyoTiddMQFxq8PGCVBBw+iX1xxX9us4BnQM6B64uDgQPBHS7FAEsJGDQ3tSKwHFHvW8ycgxXIPPTfbke9vJKmJeUo7uqBo7qehhbmtF+/pLXTEBAIHr1YkRcfy0ip45DD2Md1e85CiuDxDnoBSSupzbumGagwbmV+wJHEEx6YqJhZKTUjJsWImP1MthmT4Zp6nhUfbAfDYe5hoDhKlQQ6OFsIi03C6kxiYjNSUMkyyWNzUbs2OEQtVYo1NkkC8g4k+FfC2chPdExoRTX8+oc0Dmgc+BT50DQQBCRmYyeSk+YCeu5Yo622znaDl7wGdJSEC6fmdPg4D6/Jq7wNTQ3wVhWiwYGmoPVpqiP4h/gFo93Ua2UnQkH02p/9gzaCjmTKKx0M8xALyAxDHd12KH67IRFm9F5rgQpDBmR89Aq5NyRgdgx2ShL2IrKDw+jh+EqcpbOQfz8aYjPSoE5MQGR3GQmVOGvdqKutAo2bkojsYa6aZy2sy/x+kb1Knv0o84BnQOfEQ4EDQRR14xDS1EpIrhZjVBYdQMan36eET1HwTRtIiInjAnplo1JFMD8ACNgyKqF4efP00hsROS1kxDz4J2ua8SGwhI0bNwDA4W4CH+VxGwsnkFGGoOFZI2AeIQ255eis6IemXcsVkAqkfGAwmOjUXYsHwYarVvoSTR1xQKlzED+CPhdOnkBl/adxeWL1VRvGRUQkLrs7EMO1Vk66RzQOaBz4LPEgaCBIGHxHLS+vkUJC6HeYCf99K3UxUdwA5rusTnozh4G0/QJMI+iioWLyoKljnOFzEp1U5sDqffd5gYBpTzdMR3t1OW7gs+pfkNWgoBK2oVioDG6tbIBYbQ/qBQ9Ogdpsyegfv9pVBzIV2YZofRPEf6nLqDufCnq8ipRV1aDdhqlOxgLyRTlBEZRmiVNyERCRrLarH7UOaBzQOfAZ4IDQQNBDAV9wsxx6GDgNmN4hGInCGNwONPwDGUryqb393OVrhmmUVkMP5EIR2oyIggK4SOyYBzR9yjZWt/M2YAZ1sZ2GCeN92Jc+OgRiLxmDCwXypRZgRYAJKMXCEhCSxfSuYbBGOXtRpo+nZFCtx2DvdMOe3tnn0Algr+97DKqisvRmFeGLs4wLlP4X66mGispFqO5r0FlVwesPc41A93EpK4WC659jDuTcatLnXQO6BzQOfBZ4kDQQCAB4pK/cBc6//1XThDgQjEJFRHe1gbzl+5Hz/wqRgulC2dRGRxFl2DlpvXdB47DzrUEBoKCnaARTn09sjIRlp5CtQ3dP6myMcV62xjCfHzxjQzglvUP96Hlw91UE11CU0G1wl/x9BEShZC1zen9k8YN5RPp+ZN621LlmvZPGHdWs1hdzqQMYyFkb2tHc2Mbehiuup6b1Tfml8FKbyQHQ0501bWgkcZthykMcRmpSJ08CqNWDEPcmDRUHsmH7Tw30nFNShycnaSOH4ZpK+drm9TPdQ7oHNA58JngQNBAIHcTOX0iEh9YhfaXNkMV2F2FFbBv34fkrzyijLLN9AoC9xiIvFQJO1057TUUpgVFaC++jPB4evfQLdOQyIBy4p3D8M/tJur+GaROFmUJOUrLAQpzLcUv4k5iozJgLSiB4WwJHFTL2A0Guo/a6T5qgoEeQyaCS9LU0YibMg7GaO/ZgNRVQ1uDOZbqKnoanXxmI0w0QtvpnVRbT6+fDgttB/Voo+HXxLLJucMQPyINE2aPRzTbTaBLaUx6sqL2yeeuZec/PA6bTTaul7h6zjUES//pzs+MWkgM8DoFxwGtClH4JhFmTWqAxOCq8Mqlrc/rQpBfLBZ7kDn9Z4tg1F0tDbY+bV1X07nvfQ5134aCb0PZx8H2x/upCIJbiWtWwpp/EcbDZ2Gh8LbRQhu2dS+aKYyT//EhhOcwRr985s3ivsDU79czcmdFDUzldBdtagGa6GXT3kGQaOSagnK0VdHnRyKa8gENI1A0vPkBsr/rDQTSLalXPlHcXlLqtHU50EPX07B4ev4kE1i40CwQyQtcvu80TBK+osuGC2/tQBQ3wjHGRXNXsiTE56QifnwO4rhaOSI9gYI/C7EU/BJaQhavqVR86iL2/WkTOrl/giEmXAEBa5sF8x9egfGLrlGzXdXHc9yWs8MVSVbbUXHRDZY61alQsAX85ONOoUGRjQb4YMjRz8I/V2irPquy+cjY2XfNwdhZE5QyJ3edwskPziJM3Jb76ZLDd1Uka7B0OnDDg3Pd9fXZkQAXN7+8E2XnPZ57vtnawgKrJTvquvDQN5Zj7NgMd7FLl+rw8m930M4V/G8vhe2drpm1uyagNcbpdm3zc++abH2e2gdR1rdiI1W09D1BcowRWcMTkZkZj5HDEjBiNPcaDxC5wLeOvr7/8hdbUdFgg5nPw0DIxjVMj35pDmbNHDWQ4l5ltu84i/Vvnoc5Lni7rFQgfVDJI+XUlH6OMtpOfOguWDmC7r5QoWwKI+ZS2zsfodlsRsKX1rprkLzGaKqDhmdD8jjkTWtppfG3g4HamtBD99HI+lZ0cdcw+zkacU9cRPuBU6hjwLnUZf7VLGqdhrYOFHFmMv4H/+huL9BJ3kvvwlHHfQ34/GatXoTkLK4dSImFgUBgptoqhgbecM5QohO81VTa+uq5x8KeX7+FuspGLxAYuWgq5n9hpTbrVXtuJ8/yntvCkNyqyd3TVStDhAdDIistfQCBNmCfb32uOH9Ksjqwda5M8c7pHVTQ/4vm2063BsjsrtmlWqu0y4jnbvItq15QNYfyXVaZz1/rCS/y4fPbcPF4Gajh5GPUu0+a6rnftvKoqdUqx87LXVj15BKvtFC+vPW3D7F93R7U1bR5FdP2pcsFBOriSTVja6Mdq+6+FlEuxwZJv5hfgT///AMc3pfPAZJ/IND+XmpdwjuHllG8IPm6uP+IkIMbi3BYp5wH+qPEn/Rz0eHquKOn7/J+ivpNkt8qjiAXFR+FpMRYJDH8TCxVzRPGxGPBvNEDFsKX61rxtxcOckEVtRJBDlR8O9jVZCVAhQ+4D9r6nvvbHuzfV04tS/Di3GZzICvVI++CL6lpOWriGBi+cDd6fv8idS7OjWPMXNXb9uJmTg/CkPD4vZrcnlNldC0hImT0PoIAQRIljjiRdp04g5YTv4TDYkXNX9bBwP0Dklctkix+qfKV93Fp3S4k0RU07bqZfvOI4LuwYQfyXv1Q2QMhgjuKTX3sDiRyDUEo1EAQ2PXzN1F9ughh9EoSdZDMBJImjcCSf7y9TwAJpZ0rnbelsAwWhsmOSvZWnYkbroTJ6I9k8yAR3IEeGhHA8s8fOQWl51oETTxSVxjb1pIWY0RgONtyugar+UT4+cKW+l2AyqDtA+uQe1NFi7Spnqv1yVFbp/y+qRkJyJ4wXMlitdpRcvISorj3hNyHVuhLBhGE2vuWvmjBRtpMYdkcroAfCL399+147+Wd6KSXmuouLfVIn7X3Eu1K0/avo8OB2x9ciMe+vhLJ3JNb6GJBBf74v+/i6OEiRDK6rj+Se5KPlpT2yBuD0zynXFLy8SdUA77YKcR9y3nVwfLa/mmvybnY26SdoSKZZNTXdSgfASkrE46lRmLPviKMHJ2FtXdNwcwZI0NqbtfufKWetORAb0L/1YXT4Wbz1gL8x7f7z9tXjjqC0sGjFUhI1fwofRVwXWtpcWDt2un48zMvKyna5yiI4p4sEQvnIJLGY+1jZOZQqOvN99H5l1doiO0/BIWnNpoLZkxF4r03KcLBUVKNulc349Kf30DHqTyOQOT1dpLUW/4yQYB7CXczZHXhnzlK33nQO09tHS58eBAnf/UqCl/fBgvtAOHDUjD9qbtDBoFSekl9/Mt1uLDntBME+JBa2y1IHp2BJV++HTkTRqhdu+qPxVv2wEyBpCUBAdnqsz9SQSBQPgGBQC+w88X3bkOEo7z0WhIQUIWEgIBToPQGAWe6tqTzXJ4SrQCWCrQAJ22q9WtLS7/lmkp2/r5TbpjmVguWni1WVDtS1re89EV73/7y2Kg/Hbtwolp9SMf1z32ELS85QUA765E2ffkgadr+dRIEbuNM4PGv3+wGgSIBgR9vGRAIyKJJLUn72iSxn/j2SZtfymv7p70m50MNAmr94WYD5BMVaURCrIkRgu04eaIc69cdws9+tR1/+svHjIvpkTFquUDHDW8fYz3e71GgvIHSpT+XSpogv8dgaNeeAnSJfj5Eslh7cMvN092lBg5prCJy5VLYS8rR8eK7MDEaqUkWfHFm0PnGVnQxRn/051Zxl7AR7sb6O0n//J18snpQv3kfmvO4fWT5ZXQWFsOYls6NZZxjjg4adBsO0D7RzlATnOq2FJTj4ktbEHcoDzaTa3rKsNOXaH+wl1Qp0iRmdBqmPXEnRi32P3MI1K8L2w/h4Gu7UXm8AGExNHTzRbNxg564jESCwB2YtGBqoKJXXbrYZUq3H4VJYyz8JEDA+Yh6C5CrGQTkh5NNmObdOs/9Gx7bcoAxsTxRbNULcm++IKAFHskn99rR7sD1dy+SryHRhud34N0XdnAmYEG36DlcFAwIyMh81Z2z8Mg/r0BMoswVgDKGd//jj9/D0QMXEZmgHcK5KuZB7slXrCgAo5X4aj7Nz3q1goDnzrzPBBSEThwrw4XCGly41IqvPLUAw3P61hbU1bXhMEfgMYMEAmk7OsqIj3cXYMx4p3ZE0kKldW8dDRmUrFTtjclNVuwlanuDAgKpJPKhNQytwAf13V1KnWJAFnJs+hjd9AYCQzlHLA1uJa/o/9M+fxd99VNRu/cYms5eQMOxAgrfM5x7OmMF2bi4zKi8lK5RHFU1jUVVqD1zSTFeK43zj5WIF5eTiAR6OuVQjz9mhUffq+YJdGwniF3YehAn3tiJWhpWtSCQNDINCx9ZiUnLZgUqflWmt50vgqWh3a0W+qRAwJ9gHOqZgAIsrudOYT4lmbZdf6N0yScCTjsTkDRRC6VzYeDwiSPlqzJSPPbhWQ5yPIJY0kVYBgMCkicxMRxTZo6RYkHTxhcIAs9/NEAQCMOq2+fgC0/dSBBwDqCKL1Tirxz9HjlQSBDwr0aQe5KPlnxBQL2u4oIAgJCari2rnn9aMwG1/b6OURTGnZ02rH/rCBoqmvFfP7wZOX2Awe69BbBQveTRrvdVe9/XIvlMvb+9AI88tqzvjAGulhPYjxytRBxnOaFQl8WBz62eTKO555kOrQY/rZliaIB54gF00fBq596/jrI6dIvhiJ/OvQwS19AEQ1EFw0jPQuyk/l8GqS997QpETx/HlcDHUfc+dyoLa1Cm/GJL8gIBV39ELeFg4DntzZjp7z+RC8tS6XqaNCzVT897J8lCs6q8Epx55yDKj59DUxW9kjQzgeHTR2L2g8sx+cY5vQsHmSIG864250I0M+91KDwYgmm6+P19brXQ/xUQUIW4l3GYz4gvCKj5tHwKBAJdXHC48lGPo8Kl8yWoq25FbKrHriJCL1gQcDDK7nU3TQn6dxYVxdY39mATQaAjxJmACOUYhly5+Y4FePDzC90gcPJUGV59+gMcpBDzBwJyP0Lq0fnNeY9adZBcVwFA8vQ3C5A8VzMISP+EVNXRxzvy8P0fm/CTH9yKFDqT+KNXXjuC2BitpPGXK7g0aff4iSrUc+1SoPb6qmnPvkLY+HyFSnaWufUWj1pIyg/JHYnwjvri52DLTIdl217YjuYpYGClRdBaVAN7EUNTnCxEElcmR8+5BlGMKNofReUyTAWBQL1NmQmo1M1ZQHRMDDpc/tz2ti7OSlz+iPQekT2T1YlvMCAgwrnq9AUUbjmC+ppaFO+nJwVnIFoQmHDDTFy79noMnz1J7UZQx3YuWKuvqkflxUpcJrB01XdwlCfh8vgAcgZkoptbZFYCRo9NxzCuXQimv0E1rMkkfSjecVJRC/1fAgEvAJD7paRSQUB9bkIBARF0VgLBnBUeoN/91h5EuOwqqqAMFgSkS51UCy1dE5xaSEBg3V+2Ycf6fVQn9a0OUvug3qe0JbTm80tw+wOL3MCzmzrkN/6yE2eOiDqo90xAEe7Ool5/pf6+QEBmdSo/vAq6vqhlffunzXulbALaNkI5T0yPwI7t5/ELOlP8z3/d3qtoeXkDR+DlSOYMb6jIZuvGHgL0HbeHrmF4fd3JkEHJyvamTc3EqLFZXrcwJEAgNYpHkPG2G9E9MgeW1K1o23MSnQz3oO430HHwDGxnOC09mo+YOZNgnJyLhMnjICDijxqony99eQuji9qQPC4HqSOzuWaALp9sx8DRf3R8HNpdMGFv6VB0947OTnRwRbAsHmunfeD0Xzciatxw5Mz0b6hr5EY2TQWluETvictl5Sjdm0eXUobPEDUUn3IBn8RRqRh78xTM/cKNSMpO89fVXmkCLJV0rT2/5zzqqprQWNOAy/zU1RAI2uxKfs8LEobw9DjkcEOclNQkpE8bhdkLx/X6oXo1EkJC7ZE8GszbaGeJvqKGYVUwqMJY7aII4/7VQb1VDCKM1DrVuuQo9XmBgCuT2q7w1h8ASFmp0/eaqIPUdnKmZLt/53auFzm18xzMdMuT66rwlXqEpB21TSWBf6RuNZ/MBuLS4jBi8ij1cp/HDc9sw+bXdjHMOletu2wCal1q/6QCSfM8P86ReTgHRXd8biHueXipuw0RMM//nm6v9HgaahDQtu9u0HXS3yxAsl1tIKDeQ2KcCW+/dQy3rJyIRdeNV5OV467deV7fh+JLDGcXW94/HTIQlFc04OiRcqSF6C3U1m7Hvff0XvM0ZECgMiV6GuMLMSSDkYu/HLuPca+BUkVwG6hikZek9fA5tJ/jgrTJY9BMF9K4UTmIohooakyO20tD6ip97X1FaMXQ53/Eg7cyztEE7jjGiKV9LAYRg2gH4wJVHTmDI89sUlQwF7bu9wICebkbSypQffwiqmmx76ipQRlfFJNEN5UNbNi202MlDMO4Wc30W+bws7DPdqW/Kp2j0Tp/Tz6qiipRePIivU3sirAQH1+puzvSyXL1xRZB0tXSifxmrsmwlMF8rAiFHL1NuDYX1y6diuzswAvl1Db7Oxa/8zH3SWAsJ7bVFwn4CfkKSmeq868IYFU4adOlqD+hKHm0IKC6h6qCROW1yg/Jr9avTZN0IembLwho25V6/fVfrdP3mhYErPQmWXS3x0h87tB5ZSBiph5ZLS99EFKeEx9+St3afHZ6cyxcOd3ruVYK+/mz/uXd9A7agR6u5+jRgIAvD6R+lXdSjahnwumosXr1LNz/5RXumj/elYcX/7QdJefLdRBwcyW4ExNVNj/+5Ud4e+5YLz36K2+cYFScoRWZEVzDsfdgeXAd0+TasuUkjAx/MxBasqS3VmNo78rVKwn3EP/IPTBz1F/+wmZ0cgN5A9U5QgIIihLnXBHqD+YhWlbzUg0UzaB2sdze0pSdgrhxo6hCaeXUlPsax0cj8fqZfsNGuJpzH0xc3Rw/PhoGqof2Pv02VSHh3LKyDU2FDB5XUobGiia0cDOcpmoGlDtRhC4uGjJT+AsIiO5TebnZpo2zkHkP3YixN87CyKn92zWkA01U/xx+7xiO7TqNUhquhQzU14ZxXUUYhb+80LKIKmt0OlK4fWe0oRvNFDxdjS2orW3hbIErrNkHB8NeHN11FqfPXsK505W48aaJmH9jbwRXGgjijwBf9fE89LgW/AQq0p97qJQLFQS0ACDlVR7LuVAgEPAVfs7cgwMBXwBwtu+ZCch3Eaoz6Fig0u71B5RFOlrBK9ekf1rwkTRfEJA8NnpnLL3tWrncJ214ZQ82PPMB2/dkE4Gv+apc8AcCZoLAXffOx32P3uAerBzYfhLP/3kXLhVwEyhXmHZPzWr/tSnOc6V++ZFcpNyn56trFK9e7X3sbybgURdpKu1dzaeeIsL55IkKnKWMmHmtU41dwYWkp05WhTwCD+Zmamo7IfVnDwt+0PfqutBBSdRCM2dm+/WMuiJAoN581LwZyIyJRenj31OTFBCwuB42I1UwFm552cbwD/X8CCiYhqcgavgwhHEdvzyYDdx28gLXCqTR9dMwLBNxsgpS4hRxFbObbDa0NnfA1NnFhT8XcJl7BchLJY9bC9UxR/68EY1VVfQKYFgLxjYI48sj/uYCAiKspDvyIqujwzjGFlryD9wToY/Zh7ttnhzffgz5H53GYYJAJ2cAJo7+HQyBEUn31pyJw5FPV1hZyJKYlYy7Hl+ODKqrYsK60UjAaattQEV5IyrzalFIwLpUUqOsV7AREHZvPY6q0koCRRtW3TOft+yx8mvb7+u8aNcxKqqJQH2EBf+kQEArjK82EJC+jZw6DMk56Qo7OziAKDh4kapLzXPGKyIc5bnUki8IyDUJM5HGZ3kMd8ILRKJC3Pjibmx48SPYudpbqw6SdrTkDwRiObhafe91uPfhJe5n9eBHJ/Hs7z7ApeKGqw4EvNZ4aG/uKjxPYLiGvz+3F0+7gGDLeyfp/+L9uw9Vt2MjDdi3rwCfu8czG+2r7kqCxoXCBqSHqBZqp1roc3dN81v1FQUCaTFuKqOBrr4O5Zv2wcj4PCoIdHOknEh1T3t+OUfgdDPltVbq+MF1ATVUj6iqJKmj4LUP0VzMyKApaYjntI1r5REW4XxBlWk0VyO3tHC3NK72vUg3yXaGi1ZHQvV0La3h6NpAoay8XAx010U/8egRqUjkFpWV58tcIzHnlNtBo/PCL93ifrGk/UDU0dyO/RsO4NDWQ6g5X4kwMTDzvsKjIjB+zkjkTBmJkRMzcfZfnkO7PQxr1szHHBqdVUqWE/oQy3hf4iGd5H0f45R+G72W5KWJjjbiUmkDXvzrdjS2WPHAo4tDBoOid3bRx7dvANEKaLVv6lFVw/gKP7ku/PQ3MvY3E1DbEAAQknJaYSf1a787czn/Slm1H0oKM2oXGUr4iEBCRkbzvnGGJGCh2g9nCzQSO8Kw+E7Pi3juEFeP0q1QCwTSP18++IKAeg9dfOmWP3RNwOdIlvhvem4n1v/9A2XmGwoICH9jCAJr7l+INY/dqN4CDhC4nqN30MUQQEC9H3W0LpXJPbjGakrd0p7vrEi54PrjbyYgaQaXM4ecB/p9tPUEey4jW3EP96VwCmrxxBkKklnBeztLGFzSobxzr755AhEute5Q1K+tQ+wE7245EzQQbHl/YKAUTlXSdT52D7UfVxwIpKGkB25H/ss76SXj8VqQnzEudxQSpk3mHgf5aCquRFNFnbKEXgsCUt7BgFaXz5TQA6MQ1ZJAcj8HmhgzirChCkQFAXn45EFXQMBiAzUxyJk9FvHpGUiePgJ1pwpx6VyZWyhZ6V87fuFUXLN0hrORPv42c4e2j57djj1bDiq5BASkfC6NveMWTMCCVTOpAsrAuWMX+NB2K0buxatmB6xRolKmZTIya2S0ROmAzaVMF/FooUB67bkdSrCz+x4JHgykj+1cFQvyKIxA40tdrjZUIa1dbCZ5Vf75lpPvirAgb7Uk9YjQkHUlWrKGeV5Ok6Kq8Bb6AwGBEdNGu5vQxhFyJ2pOfELjcCe53sBopx5y+mLP775r/X7uhe2ZDcj9qkJTrdofCKjAaLU6MH+5pz61jBxlJvDu8x8PGAQSafRffedcgsByd7WHd57GH39Jm0BhLW0GZs4wnE4J7gw8kXsQCuN1CQQh96MFALmm/K6an1Vmi/5AwMYFa+LxImEbun1RlfXIsxMf5ax/qEBAAEDaGz8+HYnJ8UjiIlMJLuegsG6kZ1yJrCeq5VqZfgY+cp/BkIygLxVXI5rb8RYW1Ic8Ag+mDcmj2AkOlKGpqYNrTpyL//oq++LrJxAZIigJ72bPHIYRw/270n8iQNBK/bzEaVEFjoMqEVkPULPzGMZ9+V5krrwWtbtOIup0AbeZrETD+QonHyg01IdIwlSbOGsQErVPj1eUFT6sTPN99O2uyGYye0hhdNH4ETmYQOPv8NkTUcAFY8dozFVHpvJS2PlA3/iNeziK8wgAZ0e8/1ZQhbPvpZ3Yu/EgRL0lL4qAwPT5k7DisRsw+ppcd4EaxgLp5osXlxzNgFfx7nTfkzMHz2PDuuPYs/koIpKikJGVyBhGsSjKq3C/iC8+SzClDFv72DLf4n6/26kym3j79TRAegSxNmMHhbaWuhgRtmT/GcXNVPiu8l6bR84VYcHrWlJBIHNiDlKGeatDtBFEzx05CwfVeCqFCgKKoOXvtPyferv3qXUO9Kj+PjLTy+fqWzUch9yvFgTU51ibpuVJN72FsriaPXdCTq+uyAjz3Rd3YcPftoY8E+hiBNO0rHjcc/8CrH7I+xloprdc7oh0XDNrZK82fRNqGlpwlA4NPa5tZ9Xryj1oflYnCGgSXBnFUzt3Yjom8P768mM/eiAPDc3egwK1rVCPLXVWTJyejinTRmL5sjEYl5uOzAzaF7lSXkIwV9c0YvfuC3iJfv6iah2KmUEMA9ad50y/pqHjiqmFVD50UZV85mwZPZUmqEl+j2WltSjIq8OwDKrHQyCpf8XywHVfcSDo5uhHDMZmhpiWB0tAIO3mBeiorEYV9WL4w5sY/fhdGHbvcqTfsgCNB04ghkJRjKa29nZUyn4HNBwr5Br9K7uUia1AQ10uoS9JIvjNKXTJTElBbDY9mLjYLWfBJIzgGgALbQTH39qNY69tpX9/C2cg4cpLLi+BQaIJGj2zFk317tOCw3nY/crHOL3zjAICAgCGCKPianrLE8sx3I9xWUZOfgZN7jrP0tPouae3KkvXr52ejRFcbzFlItVgDIl9dHchPth7AS3ldRw6mPH8H7ZixJThWDDfAzbuinxOUrh7XMp3HvZJDfx1789eRQ8RdaAgIGs5Zq9ditwb/BtIxb331F2M2eTqQiAQUAWtrzpIQMDOmd2Ya8d7gW3gOxrYFbH5yMhTfTm0Al9AX/tdWlAEqPuuGECxg4vSHpnbq/EOqi/ffXEvNry6QykUijpIXuR0BsK7+775vUBAGlp2+7VYfs91vdr0l/D7/30bh3h/2jdIuQfXDyPvqZDvfTpT6RjBtRH3rpmFe9b0vkc1z8bNJ3HwAN/vISCJ1XTdovG494FpjI/T23FCwGAk1+CMfDANySnR+Oa/bxiCVqlR5aj7+JlKHDxE99sQR+ChdiCBbqviRtofELzFFdACUKFSDwXQwgWBZYb6rIdab9D5LeVVaD5YiPDMOKVMZFoycr/zOOr2n4Ax6xhaC4pR8NvX0cY9C4bftghpy69TPrJdZEcRXd+OnEMn9yB2UN3QTlsAqN9v5z7GNsY0EoqJjIKVo+SEbv6h6kmW1JviYxBBABgzZSz3EaZbqmuEX8UAcnnvH8WBNz6ii2sCRs2dhCSOvI9sFO+QcNbJyITczvKGL96g1O37p/JCOd793UaUnmQ4Yhqa5YUfPW0EyrhYTKjDtVBMWy6ZUz0BixYafDspCKLYNy01c3e0v/2c8V/oITR5eg7u/ZcVmHudx71rzsJJiH/9AF755WaG0BDPozA884v3MfrpzzPGeoK2qkGdS98Kth9W1GgDmQlI45Gc+YyaOyVgP6q4qNBe26wY6fsCAS8AkNoomFSVi6ztWPTFFQHbGIoLH72yiwMXGSB4k3z35Y0iQDUgICV6mHHhSu8FQjITWP+nD7Hhld1Ou0OfLqIihD1kIQikcVDw+SeW4sa7FnguaM7UZ1yT5PdUfucPNhzn7+wZ8PiCQCAAkApFlZTIGeuSJf7X5kie/PxK/IQhrpubOhW1h6QNlAQEbl41Df/2rzfSY8cpQ/qqS4Di2ef300HjMnX76pCjrxKBr4nKZs/eInr0tA76PgK34rwSwcHku+8X4Affddok/OWXZ+i1DWdCBiXh4YQJaRjH2XoguuJA0HzsnOI6KuroHs4GRn1hmSKYM5bMReqCGajbdxyXd51A7e6T9HUPp5E4Bjnzp3LxUwLir5mAKfwICTBQv5/ZAABAAElEQVQ0MQYQ+HC1tLZwf+MWJT0+Lh5dvAs5IpFxxzNT3IJfycA/LbWNKHj3EC6dLURbWT1yr5uOlOmjMf3GGXyo43Dk7X18wTkjoCA7snmvXyDo5KK1rX/cooCArDcQEMiZNhZ3ffVmvPKzt1DcUo0jH56g//9ktVnlOGZsJmL54ljarDhEPe6S2z3hCyTDwZ2ncPRUFeK56vPRf77JCwTUiu5fOx+ttJ+8/Pe9iIgLR+Fphgx4/SC+9pWhE4hlFNJdXPxmoP7ZH/kTeMIzrWF4+JJp3ILUG+i0dR1i2HDx1BooCEhdMWmxGDUtV1vtkJ7Ls1J2vgpGqvK0FCwIiFpoNNUmIxmTSiV5gbe8Su8grhUwaYKV+fJBFf5aQSwgkJpGEPjSkoAgoLYTzLGkqBr1tVR1ZMQpMxkpo2oIZSagbdtffTRX4aYbRgQUys1cE/OTX+9ATU07ZJQ7GGrl4ssVKybjh9+7TVEBBVvX0sW5OMHQDWatZ2GwhX3y1dW1X3EQUJus4e+Sl1/Flb/+BbZcKyltQXaIaqE2yt177pquNuP3OLhfym+V3omNXNVqolpIdPw26gvTVnpGNDKKyVh6rfJpOlOMynOF6C6rhn1kBn38OxHFxWTqZvAiYFJFyIwA/Js7vNvt5svXRrDo4IY0l6k/rDl/ias8UzDjzuuRNnEU4lI9o+mka0ahhrp4WbVcR/uECIN4urKqJHVt/fs2nNx+Wll01kld7QjONNZ8806MnTwc190xHxdOv4PDW0/hhvuWIEv2ZnZRNyOipo1MRnVxHTZRNyxhJVKGJSODM5YEbpSx8aU9TDNhwZIJmLvIG0TUOuT4xS/fjAO7ilByibu9EVheff0oHrhvHjI4sxkKyt+4J6B3UTAgYO+kDveO6wN2pbO1AwW7z7INieLamwRU+poJSAmx+Uy5eUZIQqF3S32nHNpxgmsuvG1EQYMAq7ZwgLCE3mEqKSDw2l6GedjaJwhIfl8hLCCQkhqPhx5fjOV3L1SrHNRxz6FihBGMld9UM2AOBgRkNtDGZ3/xwjEB+/D6G4fx0UcFSEnw5mHAAgEuyD4KU6gm/d5/MIKxJmJugOxeydncjUzi6XzWKJYqn3ffOxEQCDZuOgbJEyqJM8XSpR4tg7/yVxwIOrg60+WcAlNOGkxcNOaPErnfsHyEbFW1sDEkQmSm/Ji9PTyUTP386eH83Mp1BR31zYii0fXm/36410xBrWLyqnkoP/o6whOdD2/puRJM0wDB/s0HsY2+3hF8gSxU86RSiH/uG7cjlyAgJC6hO17ei3Ialt6iDn8VZz2yfeY5RnqsoPunqIa6uZViaUEtXvz9FmRxY5y0sSOQOz6N3gi1ilfR7Q8GFqLShrwMT37nVnzj8b8hjDbzttYubHjnGJ58YplcHhSJkK7YS5DTqAukQlVgq2oZtRFFMKrDSFdiBEF9rMZIruZVj+WiFuIU1ejHxtUfCKivdFerFXNu9QhZte6hPH68/hBjTHmEmHKvvqofNuiPJ+LEIKqjWa7ItAIC772xD6/96T13F1Vhr/JWLqj3587EEwGBbO55cc99c3FTkLp/bXl/590MXbHtnZNcp0IgcLl2Sr7+QED1LJJ+ylKWKTPH+qsehReq8VfOWgcLArLdZQS1Az/+/25GGkN0hEoJmt8v1LKfZn6xQ2zfUYhv/VvvXsiz9O77+aGrhcjLSZNSMXqUf7mrtnRFgUD2KG6rakAYPR2EUhljKBgyEywSAwBGMOUlj8w2UkdmKZ/+ykyePQ7v8SmXB132Ti5hWIxpS53+/hdPFOLtpzcqroTilWSMjsQd/7IKubPGu6uN5+xC0l758TvYRYNPJw3dEdwL+dDOE7C0coEZ1QEiAMJiw1FNW0F1UT3a915EanoM45qb0NVgpf7OM4twV+xzMu/asRg3ezROnqpEYoyBHhJH8WgI7qQ+1bm/ipDuoe49zGVLkQvKiNFHAEq68EhW4Kokp+JvP4Grn/vSU5/cyHUk3Cfal3qBgEtCqoJW2pM8QpGc/Yy9ZpzzyxX4W0mDfA3VbqpayNm2516lSX98cfKETgpcsDByUgZnafGK//n7b+7Hq3/Y4u6pPANaAJALUlYFBzWjgMCwURl47F9uwrzFnpXO6vWBHisu1aLybKVir1P7EQwISB+FaKfH1MkZGM3V8b4kguqnVAm1cNYvfvGDoZY6C576p9mYQKeIgVAHXWeNA9xLeCDtDVUZsUnk5zcokQbS050yU627oKAKRSXNIauFxAX2wbWB3dbV+kOfZ6glgzi2c3GXTPeVF4U/TsIAf9ggmhpUFvH3FwBQBA5DYBTQ7U2olWql9b/lZu+0S8g1eWEj6I00h6EnfEnSrr//Oj6ABpw6UoQ9mw4ro8YwGqwcVGlE0hU2mT+umauVLSYTIjlqkQ1HVCorrlFP+zx+/qF5aO3gugSO6Eq4w1ENV04PlvI3Uy1EY5VKgYSdU+B5BKOAgPCls8VCtdBitXivYyfVfPkfn+mVrtSnBRs2LADgDwS6GZlzyvKpMPqobXpVOoiEfds8aiHpWzCGYSdPnI3aqc644Y65Cgh88BYN/L9/192bYEFACpipohxqEJB6P9hOex3VtCqOhwICUr6F3kJ339P72Zdrsn3je1vODRoExMMuh/uIPPrwIql2QJTPgZbJ5WE4oAoGUSiOWoPBkIGLiPwFt9u7v3BAaiFxDVvO96Y/Ghx091N7c0EJuulnL0+ehSOF5LHD+ynx6Vw2UbjEZieizSXwq6niEdpFN7+CI6VULZndI7l27rdQwPUH46/xnh7bOe02cBomglEWuUTQFdVC8MsenoYc+nenjUpG2rBEXLrUhMryFlziTKmadolwzhYkFPXff70V3/7ZA4iLi1LaDvRnNhfCyQIema7LCCLvTClfnORA2ftN7+TeCOUMjSERXYUCgYB2FqDmk3sVt9hYel6NnRF4pF5w5Dz3eLYqXkVSVkgEqNiN3OQCAfW7UxCr33ikgBCPsb00ugYiB8OSaEk2ke+L7FTZTbthPDI4cxS1yYn3j6GHa1Xo7BsyCEg7ElpkxpIZ2Lb+IF56erO76VBAQAolJkZg/pL+X153A0GcyPO5bvM5OmTI78z7I799ZyLaauT5kt9AJfluNPRg6eLes/oWMRD/ajsSGZZhsNRGG8t//+AG+I6IQ6n32HEGkTRd0TGu3+6ISmvSxAzs3V8K8wADwsleB1upVbhnzbVebZw4VkrzWmjiWvozfUoG11v0b0cMrWavrvX/pfVcMb1EGNdHpAvJyGB0g6G2umZ0NDQjlcZYA3XuQjWl1QijW2n6+BGDqRqZ44ch72ARV/Vyg2tLN84xXtH2N/YqIODg0tSM3EzaCGKQv+s83qKe/7Yv3YzcSYycGhtFw5QDOzccVGLJh/NlsHNqLy520yaOxqI1c3DtgolcpOV5SSxdNmzbfhab/roLFy5WIZzCZ/dH+Zi17SzuuXtOn/cRn5aoPBDykpo56rlYWIXlNzvVWH0WDHCxdP9p9LD/YZypyM+kjsbV7NKOXxBwyVwbwW4mddja+1PLqsfD63cr8ZPU71JnSCDA/Aby6ARjLx1+97hajfso9QnZ3S6Zzu8O0eW5SM2jfpd7tTRa8J+T/lkBgkpui1p2phxmxqLXzgRcj64XX9S6+J65Sfg2nELgPCPHvvibTV7pmmxKupTvSwiXVXYoz5TJ9Yy7KxvESWFhNYrpE5/FmPuhgoA0y58ZM6ZyEZcfl+W31jPWFt01U5NovBoEdfG9G8+QLLes9B8PJ5iq5V08l19Pm9onDwRiC5wzczj1/FyMyAHeQEj6ve/AJbRyFq0OCuX8493FilYhlDpb22y493P+Z3C+9VxZIMiv4EMnIwun1DCkDnzkKiO2489uQXNNHRb94xokjhmmjOL2/mUzwhi47rqv3Yv0EZm+9xf093gacHtQREnIFczxkVjP9QIirERRIQvNVnzhBsTRi6mBi9BO77mAtq7NmL1gMhJoH+imYfpl2hFAvaQEm0tIiMGyNfNw58PLGZ+k9wMhabfdOgNjhifhu195lXGSWhCZEoVXntmJlSumcOu5vmcFBrYjK6lFwNTxxx4MnXttmzIbkLpCBQHpgJV7Tsy4Y0nALrTRWF915II7XIMIwVBBQCqXZ6iHajvfB1YCBaqvvFyT+/CdCEia+gzyVMkjKsskCrXcmU5bzy6CjIQJ0ZKU888TbS7nufwejJTIgG8em4CUVUFDLdEfCEg+C+NKNXF2mpoaqxYb9HHDxuOgSWpAICCNi1D5nB+1UB1Xzv+BkU4HCwLSRgfdHL/7rZv6HFRIvr6okjP2isp25GT2tkf1VW4orlGjh7mzR9KhhPtQDOKnq2t24Oy5Csyfl6t0S86b2rqR2bdY6HULJnbohqWBPRG1BdR3SJs2ZOcddfXKC6i+mGZuLDNQaqHb5Oln3kXZtuNoKK5Sqummce7iuwdxYcdpHKf//2BIwjnYGB/G+fID1WU0cvObtZM7+qyYgXkr53DB10is/uqtmETX0aqSy3jt9+/jzz98Ey/8Yr0S9kI81uIYNnv1Y0ux9im6vfkBAW0fpb61Ty5GZ7OVwqwHtfRfP3y4WJul13kx25W4+TJqleX9w0IIXetbWVs9N/HhCDawwPNWtUg+xmZzEr+IUEtghM3M8YEB+DxDVlio1nEKwIGDgPoMuVp3RoolCEifVFL6p35xHSXNFwTku8zypnM1rsxkxNVw36ajMGlWq0u5YEFAzVdSQNdnbncqNFAQkLJGughWct3IUFEb1X/btuejm44OWl741u+rDlKvS7oIlRXLeguVjZuP07jpvGc1/0COosYYPSaFq1/HDaS4u8z+/QWIi76iYs3dlvbEzv7nDIvD+EnD+V5qn0ptruDOpf8SQFAlOY9jAMpQSPqwbPFIxXEhmHJXjGPdDKvb2dTlHp1JoKvBUOmeUwij372V89oohnMWkpc4ITcDJqYXf3RiMNUziFUMN7KxKYJFhI6IGBG2kQxPcdtTt7nrvm7ZdDz5iwdw3W1zMGJsKtU6VKlQx6+8+AzEJSBw2wNL3fn7O1lxwyREczW0jFBNXM26/u0jAX2gS0ov45e/28kNKVw/Gw1L1weIJthfu3K9aA/VLAxepAoytYwI7b7UQZJPyUMj+PS7PetC1PLa43Eu5FNWbfP+BjoT8AsCbET7usl5r3xM0wo+yaN+76an08KbnWo48RaqLannVSdJPl+eSJq/99v5u7sKug5KmneSwi+1bZ9LXl/VBXoVDKA2VHT2XCVtU307FQQCAemDqIWWXj8SCYzWqyVRWTz74uGQt0vU1qGey4zjy08O3ECs1vPe9sKQ1x2oZQdzFLfyufNHKXaw6AH4+mvbFlfxffuL3Ekf77rgeefdqX2fCD/X3OU/6KG/klcMCFryS5Uoh9KovAA2jY7cX0f6S7u4m1N3qgZEDyx+/CplL5gCiTNUc7YC7QymNVgSYaIKDFtXN5Z8cRn9/r1fgHTaKB788iokpcUjjKs15MW3USU0Z8V0rH5wWUhdSOB6hUV3z2RobMIO7+84ZwTvbTqBmqpGBRDauB+znO9jELTf/fFjvPPOaT5sRrQ327B40Wjk0nYxULqweZ/E6PAqHhQICIN4z9bmLkxZ4Qnd7FURv8jvUbovX4mm6nWN5bWCVtr0FeKSX54b33R1zwhtfdKdXvlc5dV86m8q36W9JLpAqrw7feA8Z2/OEZfk0/ZN8ksal0D0IkXg+6QraT45JUuwIGDlYEKcByq5L8VQ0bYPzyJK4xXmW29fICB5Rag8eL+38VLSDxy6iKKiJtqsBidGZDQdx6gAt95yjVQ7YJJN4HfvFaPq4PozkA7I7HzOrFFK0dxRsqDN58EIoVLp/6kzte73/9TpmpDvyUjPxGumO/sTTNO+KtdgyvSZR2YCNftOovbDo9xj2DkVlS0SO6n3HCh1cbpdzimfmTrTuFEpMCd4FplkThmNI3/dprgV5h04i9kMXDcYUl9aOUZxKr3qvsV+q9tF4/DxQyWI4CjextHACPp9P/HVW/zm7S/xvnuvxb71J9AkC674i/z0J5twyx2zkDN6GJoZCbOVBvKDR0tx/lwd0miQa5colLRNfOdbK/urOuD1dobrUHmqZgoFBIQ/8dxnOUOzilqtRz3m7z6BMAo1L2JBraD9pEFA+iKgvex2j4H9xPZT3NXOqWbS9k3yyn0OFgS0xmep0x/JTEBAQEicBySMyFBQW3sXV6ueQ2yk6PTkbrypPxAQAIvgQkNVX60t/fxLB5EYP7iZvtTXTk+hxx+d6eVVpm0n2PPde/MHJYCDbcdfvk4OGidNGqZcmsqYYSXvMqIChfFAqZEDvVrG5aq7zHA6vnHU+6lUQGjpohF+DfuBig68p35q7G5tQ8V7e3H2T2+hh0bEnniqcvggqdTNQHEGl2eHmhbMsZ4bwdtYTkRKWq6T2Wq5YTQaC5kTInFm35kBA4HE/BeSB19eFznGj0lDKQ3eExiCQksSo/zF37yreETZ+ALHc1T98H/ezalzkjZb0OfjuIvVHV9azB2RDjCMgpUPUBhefvUouqyHlToiqbuWTTFkJtDRYkP22HR871s3MhRvVtBt+GYUIS08VV/jUEFA1kbMXusfJNW2Tr1HtRBXiLrpCoOAKua0o2/1t3T3gSc9nMnMXTpdSWpoaMPJfUUMEd479IWU/aRBQO3nWQYhHAo6d7oUlxnDJjPJG5BlZiUkv3sgEj52WHqw8sbRvYT05ZomfLyzGOlp3jPKQHX1lS767DV39b/oqa865NrGTaeGRE3VXzu+10XwZmTFuN/H8blp6O4+55stpO8SSiKPsqeR4cXFTTwUapEZ3AO9Z3B91RFaC33U1MXIm5VvbsOZn76s5JLZgBYEJNHO0clAqJnx/yPpjil66xTXVoJqPWniA05vDXloq117BavXQjleJvqGKfpyGuti6ELIUX4ZrfUv/eYdHN+b565KDIuv/X4rVw87XyHR7d/y+UWYOmO0O89ATp5iqIi77pyB9JxU2GkHEZf4WG6aLh85t3BUkJIag/G5Ofj1j1Zh8fUTB9KMu8zpDXsQTZ4KhQoCUsZBF9gpKwOrheR5KKMQkk12FBpCEBABLR+tOki+yzPQHwjIBjQpwzmT4R7ZQgcYTjyCPPYlqc8XBGS2oKh+5KKGlDSv72r/1JvXXNScyixAOxPQXKLXkE1RDWjTBnL+wcZjvTZqERAQ3mn551u38FH61syZ/J2re6tstjImTniIAsq3Dfkuz/q43GSMGzfwQY3UI8C0Zw9dLD8FtVAnjSi3rhwn3VBoHveE6KTn0GDITDtgMeOTSRhsVW0ZTH3Cz3Buxbtgvqc/wZQbEiAQ752yLXtx+g9vK+og8b4JoxdO5rwpXLHrGnNSItja2oPpU688NYw9JCDg4Br3ePrma0kMxiaG6BW2txRfZlTQgYGNuMEZ6D5o4w84jcv6R1BQGPmgl5wqw5//+3VO1UuVZs+fLOIm9SeUMMWd3CZtFEfltz+0VNulAZ9/+5ur8M2v34BpjOUyYlw2F6KlKh85nzFrNL706AK8vu5hTJsxZsBtSEHhUdXeAoVn/YIAhZ6oD5zmc2ezIvjiKUwzXcLUmer99+KxAsX4rkhs1iFlhESGysdXCKlC3Dfd1yagltXmkzQtAPCr0oZvmtxre3s3FjOmv5A8t3s27FfUQkqC64/U5w8ExEVUcRPV5HO27Skt30UV1J86SAUAVR3kqcF51sNn6zLVAoMhUQttej/PpRZy1SvvUT+VqiAg2aJjI7FggdPFVi0mg6HXN55VZqhq2kCPEgLhvnuDN2oGamcL15fw5/xUqJOqxptunOJue8LUkVx853ze3YkhnhipFSgprUP++WqCW++BSqDqZM/0lTf0nsEFyq+mD4lqqPV0IUr+8DpBIEpxwTQmJiBj1XWY8cQavP/I99BVWoMeLo5pYqA0ujKHTBWMHCovmKXJgiyu0vWlzJmjUXH0opJcWVCGMTNCQ0MpWMoFN/IcdbCNu7gfgYXbGb72k7dw6kA+jZ5tePZn6/HUf96DV3+zGRGMD6R4wFAH+DDtAiZujzlUtIQrN+VTwQ2q6xk1VSiFOzFlD8JN1LdvZVzpa+TD5c8zSPJ6u4g6VWVqHSLQrRQEU2ik74v2vfGxYh9QAUDyym9IB5ReJHn8CadAIKCtwCmIvV86f2ny24pw7uaI6dplzhFubVU9Co8yKi3VQipJ2UAgoOaRo782JK0/AJCyKgjIeSAy0oUwjyvPfR0VAuX3l374UBEaOS5KD5eesc9BgIDyWyjAzzUidPtdvWJcL7VQNVfFHzpSNSS++g4uTb+em84MhjoYquWVDXSiCEFgDqY9bVkZgacwtpS8syrJvhwzp6SgqLyVoS68n001T39HuZez52tQxaCVXE7ZX3b3dVnDcOcdoQNr8C24m/I+6aZOu+TpN5QXWUYSFhq8pj+5WgEByRk3cpiyp6ict1TWyiEkklFb9fEiRThZydM0jceQWlE6R+USB16o+FypmhzSsbmkTnmJOwxUx6QkKIL3Kz/5AibOHKO4DRYcL2PsmC2Qo50A0MZ4P7fRPWs6r18JEsEvdctnKEFA+npmHTfm8dl3QBFi5G9/ICBc7mK4iJl33BDwtjua21C88yztA94CNhAI+E2nMHKKL2czTiHraVK+y0c76vdNk76qHxUERnGDjkyq14R2bzvJ1Zqe0ZaUvxpAQPosK+cvXAz9fZH7UumV1w8hgYMWof5AQABAPtrBQRPXtzy4tvdK9zMnS7gH1MAEnNo3OYoQnTAuGRO4qn8wdPRYCU6dujwkM5RQ+yEj8Ce+OKtXsVtuv0Yxgve6EEJCaUmj24EgmGLCz0Tuo7HQZwYXTNlBA0FL3kVUnhA1Az2DqBIaftMc5Kxe5m47Z+JYWDj9A4Ov1Z0rcqcHe9LFHZXauR5BHlITwyCYE72j8kk92TQY29ssygi0hisLQyULw1XblDYY4ZIeG4LoQibq2p76/lq63kXAyGBdhxl3SHz9RaiYjOF46F9uD7WpTz1/J72QSg47Z09qZ0QAugFAEpkgv6ekqyT8FwElFJceh+wpgaOlFuzhJkMapwCpx6+wZ51+010goBU1vjMGVXBp80iftcCggoDabxvtLDfd41QLOUQt9M4hjbfQ1QMCwmMDHRDyCwfuQioboX+8q5gxr2SbVP8zLmlHSAUALQiIUInj7nqTpo1S8mj/FJQ0cLW9lvPaq8GfixC9deXgbF3S2ouvHkZy/JAoN4LvvCuneAstWdz7HmSWI9uLfpIk/FyzeoJbfoXS9qC5V7RuO3pkoZcIDpMZs756v1f7RtcilB66YjZTbaOSjPQtsgqTRkeLlWGbueo4gkZag0/UwKbLTUoR0c0mDPf251frShuWBpkQRHIE2lxxWU3udZQ2bVYrZKMZ2fDGzM27pb2qS3WK6qqbjeRMyvQql5SZjOV071z3wj5l5akIGgv1tw9+acGAGO5V+afwJX/vSRrtrTT0uUaK7IMbBFySvy8QEAF67eq+PRKObtiHcFcUxoGCQDSfqeFjs906eYfb6tybaU4bBu+j9yV3irh12/i7zVrqUgsxtlBl4WXFW8h3FiCFFOBz8UOtRL5qgcaZT9rtXygGow5SAUtt70LewIFgr+wHTgoWBNQ21aMIlQfXTvb7jH+0s2BI1DBdFKLXzRvcjLqysglbtuQhYwi8l9R7D/YoYBlJr7ixYzJ6FZk4IZt7KURz1uMYsHqoV6X9JIha6I5bnd5w/WTtdXnAQNBNgSrB04oZc9/I5ecOblI/7OZ5vUbsYXSptFPXKFOP6qOF6LzcjEaqiCx0i7rMsBFobOf/FsbxyUQqYwXFUt8WnZmKROrFhZprRUfmfDGTfVxHlQv8I7uNyS48Mrpsrnbq1dVrFu4N0EgwaaExuI17AbQ1t0JmGZHcOziW6xFiqYIpLq2FQ9wcychxk3uPdFcxqNqGv+9Gj8tLops77Sy9c+H/a+86wKso0/WXXkkDEpJQQkB6lSJNRIqKIk1Qse+1Xt3iFq+uu+ru3VXvetd9XLuP6+rKoggoIk1QIBBqBBJ6aKEkhBoSSCWF3PedOZMzmTNzcuacIOg93/OcMzP//G3+mf/7/v+rWhM/qOOO+ZkNbCEiNj0RUBGR9U6AD1qJ4DC98Z6tgDFx9244KBHYorJ+0xU/EKcxnQiLoJQBVe8zsqdM/687lbRL8bdu4QaFLdScRIDIPiwEBmF4lHLsPoIcwV+8IQJ85hJYkpPw0rW5Xfhq0XaJgeMzhESyLKrtBMwyUEtt8gSVaOrvsz87dp5uFvuBiyDuPXp31Fdv+/zDf2VKpI69Z7sCHwqQWN4wprMpsWS1o6/rKAthT9DCSwd0drpGohQDLcC+AzrbKdaQ12tCUAEkfgiryzoYgwTFBks1hKydr3NdKSamtkZ4u1qJwAynyuGOf38juWu3SjmQbwPAyVppUYVymdglSVoN6gX3wP0lsXsHxFctVtRDa/ABtjCYuGvlY8DTv4CBCAGCOXVUJQRK1K0Dx+UEvHvuzMqF7OConD6k7i60cjwm9EqVaPgHokERWQf9+nXQ31bO4+GQLqVHMtS5ziqTOwnenzJXwlXsjBEuea/kBGVM1uRKRBs1Xm3TREDlseufKRpGfcluPL3uWrMNuy16TrJHBJhfAxofDr+EhJbIbPlXOYqTQK1N7ejtToDInruF/td0kbPHTsjOvPMSEVDnkWDYiKq1sag+WQGDwkpJgPsTO0C30KsyDkpCC6f8w1jeHRGow1xKaB1lilTOnCmDA7RanwkB20hvH23bo6b+OY6fKJHZc7K/F0Srb1c7545mkhvB7PWjusncz3f75IBOa6upYxV3cHd577XVa0JQsvuwHHr1Uwlt5bDyBXWPhA+gekyyAN0KJiQ+RoIRKJsQCvXMLbO+hppmuOp+AgIx8kIJYZxI2FWU4EM7OWul5H69SYY+MB761GVKUHuuRFuCqJgBefkErjLrIMg8CBXPI9kHZdm8TCkpOCf1YAWFgMcflRQlIbCSZDDn6go4esPS7Sy0c05DUBwIG4IqCMdSOrrqMzPiWJf0BNkLc3pO7pNwX/zZuyt+cIRgHwh3IHY1RDSeEYHGLA8i0EFTB3GoLWHt54jBjEhkxhU/CyjIx1CSOwEN8fEWkWIMAvikuCE2hipsXxZgEVKM7yJMpy3ESrwlAgprCibhfbsly29fuUfe+MMs2b6vRC5CLmalHqp12owI1DksjBnU6FhBkW1CsHLVbq1606M7IsACtPT9+X+oshRjBXkHCiUC/fIVGIWt51BXloqdemd9skEJHRuKhcf3DSRklCdeO9xVPqD1pX+/NDf7MS1X8xyp4TUdLu+9Ba8JwfkTRVKJQOSaXkg9LF+PAHnH9e6sEIRwsHci4LCN0LJvupTsyMMKDIgfRCAcbpojIsLhMiJWotJVxHv+4AmpPHFOKoGoaqRIaiF4XvG3LyQE2i0RGPAyCHNDWrm33CVSYWD393//kRTnlyg2DHEpaCME/QTBiW8fLzEd2kAmUCTHwR++WFslZ+GBk0SALIKwyBBJglsHApHeGRipnDxWIodAKHL3OWUP9Nx/bB8IjIHoKQWv0D/2dcd8IGmsLr0hAkRYKltoqOUTVmL1WvhdngSDLWQET4gAy1SDmT/mbnMkZKzT2+ulc9ZKOLRp9ATIFyJAo8LBgzrKsy/NULqU3CkFmlU5Egj/OVZgJADMpxBoBxHgdTDCkR4C4u2NYER2YPbczQpbyHU/5yDGmCfugHrxY+AM0QxKS8ptW7qa1cNnTcXc9BZKoNI9/8vtl203QLbQlIk9gMccdlImD5KaGi/dusTDTUT5JQ+dGY1FdnfER/EWvCYEhSdOQatGLc6gJsHwgbPtAzU0X9zATpIENlFb+HqPSUqQ9NEDZSOscwOB1OshPOk5aZik3zRcElKczuP4ADXF52TP9kOyY/YqOZ13UmoDVXYRJ00ALO0YF+B0vrkAjcJfflz8lReVS2xyLFYukdJ/XDcZPO5qSenWAXecUFlZLfuzdstHry2VU0D4hI792isE4UTeCTl6pFi+W5Ujq+Cwqxg7gEhM6ihEoKrFdpAqsoRqqM6GQQj+Q4Cz0JnPz9gjocnRancxUJrgk2OmAc+1dC2NR3p9jYKTvZSu1khpO3z28D0ZwRMioPWhDq4+hjgEusZ6muO6uqpasqHaWg/ir4GRCGh90Y+DlqYXDNdi9cBdbte01vLUizMULTPWmZjqPgCTJ0SA9VDzKmf3cZk4lVeeQUlxmeRsRUxrE7aQ8h6aIAJc6SbjG+lhgVSOYcce4qVufKMngP1AdBNxNxrl111wkTZr1gY5drxcWvoYDEdXra1TWg7fCWeRTcHECb3kjbfWSUwzRG+zakt1Oe2brMVrQsBOXYBPizAIQqIwESgL4Kq+DDrkxfsL5cim2bLnqjbS/bqBEg7LWEWChjJU0+x1+w1YkbmulkLiY6UPQv3xtz0jW9a997WUFJ5UjLeCsKJfN2+t5KzIbhgPThRG16oHWyqYRIb140NugUhig8b3k+umjXQhNlrhiIhQpZ2u8PV9at5GJTmlUxtZsyRH1n+zWTLXHpHoWmjXQJjcvmOsJCCISWpCkKxYfQgsJbUW8oV/KJCzfJPU6QxuiOQ05MZn0M71yE97NiKuGsQlHvqTcVqSy7Ee0vqMz1dCzdZJGIl4CEY2kZEdxLY1jZ9WHVq5EG2lkmb6O7zrkJyFHCksIRzPrPbPaC1sHAO1f43fdR2IAJ9jLEJdPvibqRLiYE+ym9FxDnapSZ89JQLQR5CaqEjEpVaVJUyqMk36Zhl2IiaI2hMiwArJFnryIetd36lTpTQy9x1QRyz8g3kDm+GA8W9vZl42IlCHD4Yaiv0HN20IN2Z0D3nxlTWXlBDQ3uOBu13ls3bG1mtCEBaqMoUYlzcmMUGG/ulxZUWfC2dmhUs2SEDBWalEaMmsfyxSdgKBiMXLCVWJ1XTexu3SY6y15gkfoM+o/tJ9SE95czoskxHvmGWL9xbIKUzAGria4PVFsJ7qSnEPLyUYPkZo+s7YyA+8cLsMcOMHh/UTqE66deVOqWNoIcCGpdny7SeblEhYyVBVDQ+LgGvZJBl527XSs2dbWb5kiyyGFgB3B4SAZtClViq6xH9E0nkrs6HJo/abPG2OnwbKWFrMbt6jFfVF7MYGj7dm2RRjx1GICRqVqLKFFMSjNaA/mrStEYFaUIwR06yRkL4ab88zFmxSFi/sn54AsD6zcWCafhfAfCQCdBN78/jusDZ31WxqhZ1TPRYkRrBDBFg2GFpH+/YXGatxez0fAeQjsXPlvk4DT4kA8zNA/cQJ1ivdMGXH5zslYOy/I0ftETn2j0Z2Tz0zFzEHnDs6ptsFrqJbt4qUorMVtt1B0C3GjDtcNarM+tCzR1uJhio1iYevbifM6me9XIRc7QFRMiuvpXlNCNrBYphWAfVYqVcdOKrUxxV974nXKb9jmTtk48wlUgU3CaXYJdQpuvvBEtYySg4u3dgkIWCFfMB2cOZWsjoXK33EMx3VS4mUVAQioxm/hMRHwRlbDGLF7pfik+eUyd22SzulP039FR4rgqD4LPoUqbBDqjDBI9u3lPDQCJk6uYeMufN68ABVQTTrKjhZCuQfqKxew7D11t9rqq3Leb/kxFkg6UMSmUi2kD0ioNiHYOwT01tZ7q74bJuXZUGNTmULuSMCTvSkIl6NCLAOCvUHj7FGQszjC1SC7bRuuYPwG/A0Lz3aCdAgISxcbod/nLt/NtG0O62hQFFX1bgB/XNrhZhDEwxradwJaECx/sGj52GYVGOpoqjl5ZGxK7ZsLpT4Fs73wHRtrvDcHRCptIBSRTtEnbOCxNgwzLHGz2aV1116AHYt2TmFUPuGajnmlCeQB19iz73wJXjuFZh7XqMuyP+APMHOvmFcV/nwo80SheBSdoAylNune74Cn3Bjuixbtt92O570qbKiTqbc0tWTrG7z2BsBXVURMOLSoBgIsgb88hCdz53Ua3vLbfgd23NY1r86W4rzzsCvNnj+WEnt3wiHZBWV2F65soe0OhuOWK0rEwaug4dNHiHpg7o13NKf/PXel+UMkFwdJirtGjyBJXMQVB3sJbqnCIMAOzI8WiEAY2eMNkXyB3KPSxB2NlwQdr3aN7N4T/rXXHmyl6xXXBZ4QwTYB7KFRv1ipGV3OJm3fwN7ErCFvCUCrDweuzCy206DQF8K2Ad/UmWltRIa13g1ye/LEyKg7KSgeHDbw9fL3fdda9lFLhCi4kOU75Z43YwIsLA7IsDdCnci1IjJO3hSemBH2hSs37APBkxsjSSksbuIpsryPpHKHVPd+5AKA9urBhoqvkIEXKpv/O44XC2fgDzC/VwiIcyDJ84XX14om7cc84nNogwPWMmPPjgEAeKrQITsPQnLJyL4cy8P3odW88gRV8mSpXu1y2Y9XoBSzYzbXF1c2G3EM4xpUms8Tc9pOQMoh9738dyj0r5vZ+Va/5faPU2m/+MZKVizXeb8+h0ESlfzH0DsgF5j3asisp7gxFbKboDnjOJlBcVQG9UgFnYFTQHZS1tX7IRmB4LnQDV13F19Zdoj400JAOsissv7bj/cKiOOMXy09xnVu6kmroj7ZAsdXgTjKYeBl9YpM+Snv6d3IU62UIdh1lvhIuhz58MHUyQmiFEeoNQJ5K5HHWzb+CaJ9OpAkOe8Pl8t4ugMrb2bC45CAyw0TtNzU2s1Gwe1f7qluaMDUBSRGU9cL/e7IQJaX9t2ailHEEQ9OED/5OrdWp1mkJZfvxPQiADvhVKFFE4bPSEEi5bsgEaPGnrU012A1j6P1diRTbnF/XedBnkgPqlmgZaxIfLS/yyS//7DFElBFEDNtYtWeTm8p9JuYcu2Y/LmG9/IiRNlPhMBeka+eXwPuQ+u44cNe8n2zqICquf/+ag9Nc0uXZIhe7mIvmtP1jxHEiVaNg8Ychl3BKEJcRKR1kZK4YkwAARhP9xQmxEC7ZHbjuwjaTf1l/0rtytIKQf+8D0hBK2gU16H3UA9bBNOnsSEEPMVC1dCRCbMR1uBpuBIbj6Mz6AtBK2PVBiV3fuLSW6LHIe9Qf7+EoluGy0BxRXwmOj74LttsJlunis8I/l7T0oE/ANpYIb89Pf0RICEpHVagqUNB8vlfL0RPFvIaLRK9EcPiICWvQz+cXY6XCNQJZNQjbgQBE/JAVfCZqAgd8NO0WwclHwmdXA3EIaV5AP3W+8E9O3GQA25Ph+rQMNSyw4RYH1kmxw7U66v2vScHji/XobA7VDeIPfKLhCpkJc9cKj5jlurLxHzsZJb4maACFgEb4WG09PPzpN77hkuaWDLhkDuxtqrsOvYvbtAli/fLt9m5EtKYphtpG3s4gVQ8v69k+R//zJdsqDmfLqkVhJbNd4dGssYr+lbaKzO5bTxvtl1717tMLbwUYYx1plYmWW1lUaiNP0294Tb0woNn6lnxWqqa6SmtEI6Txgl6/4+W8JgQLRv9moZ+shkiXSzGh88Y5zs+vI7aGxEyoGVuxB3t0yiELfAHYSEhCh8/3pY/55C7F4rKIGurqJiCstXT2D5oq0iEPrWotyNU93z+/i8cz9cBaM0TrJAuMCIlLi4KKiVlks8ZBRXMmz+dLmDLaT2kpPMyAbR+s97eiLA9BoI30f9dIKWxeXIsdm6dLPib8rlJirULx5Zv3EnwDJ6YayqBOysiUoALKcRBu0O08yQPtwJmQB2G4Z0XhrHgWn6vugr4m5gymTPJ1178NmzyyrhcsXJ/rRLBNg+3Scc9UCoqrCFvKEAjockUpnmAVJp17alpLWNApu3rlmQGnn9uxCf9+e/mAf17CCJi6SDPASZKlIjBjKNRMAXIAImdOjYWj748EHlfO7nW6SFTdkA60lNiRYidrtw49h0ELUDUJn1CuWaNlcGDsmdt7tXujEtaJJok0MGSg0DrLzV22Tj+wtk26LVChFQJiSEP0yrhidPK2jbo6MkIPwjhVJ18PC59rOVVlkb0pPatZYLjg+87DxkDBZQXVQp8BAhbWHd2RSUY4J+OzNTyVYRGCpjbnHPotq1aa/M+WCjIh9gIdoRPP/8F/LPf62V/eBx0vL4SoRaIOnsBVitOwy8zJCf1m/eMxIBqkcGIPBP2vB+WjaX4wmEES3Yfswlndhbj2hVJOuazYh4ea1PY7nLTQTY6ypopw271Vpryvhk7VJjGyW5IwJkBenZQfqCIWAt7YQtgTsg+2zhYt/88VdAPsDY2Z7A7bf1gTzBdP/nSXGXPNwZtEoIxYo/SJlbZGvxWktzKWAjgWwsxhRPTIqT+XMfVli/nK8LEFiH7dmBCjzzPXd5F1JzNNxNVDl2t3batMrL54qD8Wzv3vaJklmdtghBWeFp2fbOAln5xGuyb06G1MAPEIkA1QsDEZRmL4KR7F6aBWJgjRiH3ztWyiBTiMQ2dPPMFYjBa43c2WHGBqCdAKEYvFIzIMIjMLpYyzburY+Zb+n8TdxzK9oD4yZ0VT4OppsBNRVe+dN8CYTvFSIofv485u4qlA8+2CAP3f+uzEfg+QuI4XulwVEI6qvgA4pAhKpHzEqiI533zIgA2UIdrumM8KBOxQCtnHbctXYHdhy6z4iVEbFhjPTQ1E6AefUEgNes6kogAmQLtYiNlD6927NbHkGybmfaFBHgcxufXWuEjuuysxE0iZTCAs4WlSJe7x7biE2rjkilJVQpPX2+kUPSpQbynCsd6IiNWn69u7WSBfMeaZjn6zfA+SU0f+wCBbMjvQyiM2BAR8t3bLcfzE97jwfvbz4NO90Mdt8dIveMF96T7C9WSXhKDNxGQ0MEA10LTaFQTBL+QpLjZcUfZ8rOrzZIZQkMT0yg37TRsMYNVSZ5JdwhZ362wiSXMym2VZzUhoIlg6Qje45LvcmEOI5g8vUOnf5kCw+lWo0VEEDNfGs5VFQipQICnDt+Zi4bqK2ulTys9h959F9ypuiCxGKk6iMjJdih6VQPFbp4uADg7uCXj82X9Q7ettbOlXDc8PlqCYVqLFGIETGzf0wnATAjArxfC62Kq28dylNT4Bhl/AtBbtCGAqiQ7RjbMiORRsRnvGbfmpMIsD7+jH1jmrFtJDUCmMrIzQ+MbJTW1EUq5Gf8Vo1EgEJhTTBMLcym2uZCq6KyDj63rBdMmat3QomhMeFtqn/6+0QqD9zruebJ4OHdpU1SNIgBR+/KBLoqQeRvmXhrd5k994kGIsDefoXdk122EIllr/QW0semuw9tdMgqHNgvsdkE7dxdjB3TS6ve56PHhGA/DMXyM3IbCAAdvYXBjXPSsJ7S794blV+P8YPkKnRuzdNzJHt+BogBHMbpEHdlaaWcgjfQtj2TFQQaBOvi9R9/Cx82lZYPQsFvHD46QnlRFVxIl7nkzd1bKHXwYcSXlWISylIrwFXVki+zoDamoqakVAhQQeXprVEPdD+Rtydfnn70nxIDO4mhEwfIpIdHwbvfQJky7WpJTkmQoPAIsKzUUm27RcvTT80Fi8ipuaSv73Kc11RdkPyV20wRM/vDKWwkAEo6Vr8aBIAA9xxpzRbKzz0qFYyFSECFRiTL4XEMkZJF+zMiP+M1++YbEQCC1eEonhoJFNP4M7aNpEZA9lgl2EITbrEeh0YFHBdtYIlee77xqlkjAMxCImB8Rn09JAD88TnC4H9r1+58/e2Gc37Ts+Yh0poPBlZEKlMm22N5/PbpcXIeXkg5564kYH9oJ1BbHyyPPDhY/vDclEbd4xyd97l9tlAZFq0PPuAZ66xRg7qLMaO7YiWvci90ybZP+YxpHWKkr5dEyaxBjyQX9A+09d0vJTw1RqmDH2cX+Iu/5pf3mWro1Lx4QbZnbpPcbzZKz1tGSCj88ZTBynj9F2tkzbtLhAQA2wnFRJ+si4xPvpVhU66VGDihM7PW7YRtVU7mPgmGdlLersPSc3hjoV3ellylX5UY5Padks2eEzzNKjkCW4Z/vL4cLigQPwEPUYS2fzLpVZn++FiZOn0IVjnq8+0FYcn67rC8+vEj0h4B5I3w08fHyabM3fLzZxfDi2mFhATDCV1Rraxdt1fGjW3cN2PZ7+t6f9YeuAaHsLKlSkT17RIBuiMCvM8ZnjbcPdssc9FG1A9hObCaGRHQt6mdGxGv8ZptGxEk04gUjWAuGCYRaJzX2DfWZ2zXWDevSQSqsOOLwg6WKzo7QFsCenrVwC4R4BzTIBTf/SGwKK8d4arRc/p0qaxaWyBpKZhTXgCRSof2LYBYrNl/ZtXeCuvjz+ZtkaysAmgqeYRGzKpp1jSygvjOouFx4L0/j5drru3hUj/nKAmrXYBSlgwc4dsKnGyll19Z7bOjPHpPfgh2EM0JHo1I6dHjUppzRJmMXOF3hw+fEc8+bEoE2Dmu4gfcMFj6Tx+rbFkrEYnsq5c+VohAMDSMsE2QILywoIBgGN5Ey9dvfi0fv/CRFOYWKAFujA/Ysn2S4qMIBWQr+mGEbQhATgiFYNMMcZcgCM7ieZvk0el/R8wCPHIQrCMDQhUr5TCodc19+1v53TOzYZmp7gx6dk2WR2A0ZFaX1jY/stkzH5DiCrBW4M4zBpPh09lZ2u3LfsxeudVjIsDJwx9BRcQwLsJKv/9N1vrSXInmLN6slDEiWqtdgBH5Gq/VthsjcaZ5SgRIAPREQC2rdLHhj2nGdhtu6k64YicRoJzklkneIYBYrNrIifaFCLBLjKKXX2CuMbdg4RaJj7Yn9NQ9psJrvmO652whfdn337lP8erLOB6XE0jMSARqLgaBWHaUFV//zJQIsI8z4ULG7u6J9V8zoI1bfODJ8/ft20Eio6AF6eNwlUJb6ObxfT1p0uM8HhGCHcs2SgAMrygUpuXuNY9O9bgBEoW1n66U3fCRTiJAS95o8NqvvneU3PK76cqv7ZCr5Pj2Anl56ouyL2uvS92pWJVzYgYhfGGhY/WvZaIGwIkDZ5TLbsM6askNxzKwnV77/Sx57+Ul0ByIl4d+OVZ++/I0eei3t0pXGGKEwdI5GG6uc1fuk5kfZaIdmJ97YIfABjrCuOaJhwdC1oDAO9BA2AydaD0rrKET3/MJrbyPrNjm0iqRoHEnoBEAZuZ9DYnXBcO//nXWwqhzEFBWO4IJsawGWnntmkczxGtMU9v2jQjo22R9ZuwgY7v6Mtq5SgRU5FoJq+rh8JbrDaT0aIc545xirNe429HXq7GC9Gk857eVl3famKx8awsX7ZJYxNH2Fs7Bb86tE+yxvbS2uOuZ+Y8ZUEiAosZlkBdgLaK0S4FwACy+X/7jjfLW63c3kgdofeWRuGLFysPKeOrTmzovK6+Ru2ZYL4qaKq+/P/Hmq9APs1miz2V9TiLSKz1KwT3WuezfcX6lbsqe23kAWkEQOmLkr4IKnaeIklXWwoI3442FCPpOHn69pPZNk6eWvSQTHp0sAxHykL+n3n9SHnvnMcQxaCmvPfauiyZRJ1gsc6vMyZ21sUCo/qlBxtKtimYAJ1mvYa5bwY/fWiorvtwvj/x0qMzNeFYm3TlShoCtNQl8/7++coc88z/T4LiuTsKTIuWjvyyTMrjxtQO3IVBLKSYTIf9klZTC38vlhsMgluVAYHrg2HlKBEh1u43q6vY9b1m6QWpg46EHs8/bDPEa09g3MwRpZyeg7wfrM+5SmGZsV19GO9cTAaZFQs25H1Zy3kDHDvFwbMiW8e3iYPaMWr1WREC7vzOnQFmkaNc8nikqk3Wb3auW6vMbz4lIe3eKBmvIlf1pzGt1zbGZs+B+RHkNVph3ms6+Vf7mSFcIAHYhRIo12OPfd88A2bDqSWVOu6t/JTyzesMWKoMR2aCB6e6q9vjesKHAZXwAL4FEadK05iFK+i54RAjydxYoZeqxuk7pYm9ADuU4V/i10H64/6WH9e03nLfv01leXPK8JHVKlPnvLmpI50mrdkkSAz80NGikg6jZ7y+XM7D05S/ji3WIwQvHd3hZAww8vCoIhj55dY38+r27ZPoTkxvVqV0MHdlLJv90tFRDQ6YU7quz4AeJwJ2BduS52Y/3WyZEK/n4FwFebqEbo7eGjJf45FjOvkayFj6JOyLA7uiReM3ZSuk71ppdwLFYMXc93C07DX305bXHM0O8xjT2zQxBGhE56zSTCehZQczD+oxlmWZsl3mNwHxV9U42Czket0wyt2Q3ljW7ToPLjeCycp+JQAhUSPNP1SDYTeNFxspVOyU2wqMpbNY9IVJ57CfXmN6zk0hisHzBw5KKYO0QJypsGhIEH/CdS/Osi+wf/uhLqaq4HuyRbrJ13S/lyZ/faLkL0Fc056udcCjpfL/6e1bnfI7B8EDsC7HU102CUlqJSr2EprzDelmt0QDevJog8N65shc4Zju4ZackD3XyTB2s5UYF9Su5o9R2oNk4MqaN7uV2lcmdxnOf/pf89bHXG9XHizF3DJe5765QguFkfJIJAXNmQ556sDHa9G0vHWE5qIesDXvk13+fLJMnuaeg3Bq/9fZaSZZKGIgVSlfsQKh1E4IIbOWUEllAJPp7JP9MQ/QhfqIV5db5Lapp1uQ6xGfYCjZcZDRUdB0zUSUCVKdTQX0/2lVjIsBUBPGU9H6dLft19tQ5OXOwSFo4Qj2aIXLOV+q9ELSWVGSsXanVk7g3TuE1WUTOVCtdLJUIOPOxRrZhnGaqxnjjfGrrjf+rwGPWt1t7vgqxk4c3zmTjKhjOZU7WR0hLvZDApHxTKvlkyfJdHsXCp2tXp1A4Gbr/VOH2ZhVOYn4e6tMDsRBqDuiAOBILFv9K5n+SIc+8skFoCIdOMyghpj/ep4Pr59DydttkAwHBK6On01AEnSJLurouED4rA+X+u/vK1CkDbQm4FSOyRQfhxgLEyviBuOlNydkqef53vhNLrQmO06C+rWEtfg5scsegaDebOPJdD7wqSlhHc4NH4v7OcA28a2EWOi6yD5HGtn/5m4ZpWh3guiK5QL1/zj68SOBoyAbgsROXUeDxNwUkBg/96T6XbLc+OF4W/3stHGPVSn2Ys9tEBuRV/+qTu1zKtEfIwJGjmxaqxMMGQjGQgQXu6x9skRffcAp9NatmKzQSjl1AYiu65lWFet2b8KTo0slmTig6dlqqlx0S6e/UctE4yPApZgpEfxrQj0ybQenSGrswK1jz2beOwELqu3e+DWeJeviKCXFoZ2jCRNcvBYoFKFIKpQF30JgB5cxpTNfeUTEUAbyBUMO8DMN3wbiz3kLnTklSdx52AFBIcAfUeW8KIi+GyOnCIhCClIasbRFfO6gqGGrMZiPbkM30hG2OHJJqC5maVmRInHLXKOHvi/nfydJluyVjfaGEB4MgoIt14OVQA8oMEZMwBYJKBAE51mIrxvN6COsrawKka5cEue7aTkK2Sv/+aYYWPbtcvDhHWoaE2h6roAvBMv6mPp414mGuG27oLq+9CE5Govvvwlhd9SmosD53kzG5Wa4D2rVPa/gKd+3cblrp6aMn5d9T/yiBjm0oV2y1mDREfurqDS9XN4mqgZxZKe/R0KVBcxYubP88/wVFC8K0oSYS//bMh5KN0JGMj0wgEWA7JARf5P5dSfPmb+mCLPkVVEFbwo87+0xZBkHPdqjBR2kFzE6vhmPGdJI3XrvHKtv3kl6JHUzZGUjvfIBoGPFFINiPFfB7uBKh/KL1O/Kmv1GBcLgHjTVvoQbuVvKPIya2J8tgDxpJgsM343vJyzvldf1m9XnQDVtZ+D1uzdon2bsQ/jW/WHZmH5HDpxyMRHWaKfUxFGqr2GBpCxX19I4JUNeNh3fQztIdhM/4zLY64Mh8+LCrSxF+rwAAA4tJREFUsN3TeuhxtTmBY3Ic8dntfhfES+2SY8BVgeZlM0HPXiqRc78UczTGyTDp7d/Iwp/9DcKvOrnArUEDQG0LrCMFIzvSeBcLdwXqqWNMyysQhLL9J+XorsPSrnt75R6l/VagfCOUBukgBp4VtS2mRgQ0fnCNyXLXk4G+AJbXrC9yJA4qeGyTSL2sFr7ksULxFMrh2uLqXonyl5eme1rkkuXjpInwAXl50jFfkKMn9Xubp3mnq7e9cJbjhE1Pb75J66zZeZaenui8uALP+D0Oh8t2/oxAj6kaRLpZeGh5fDk2NzL3pS8ckyvtvXlECPjQ6YPT5fGMv0rhvqO2xmDr6u2y/r1vIVWNkjD463n/uY9lxpOqW4eoBIT0s8C357HdDSxtvLI9sP+U4m6CGJvFNCJAIrN2zW6XfsXqPJvqTfAvYoWmrfqXLs1BVKdjym5AsQeAnu+/P30QJv3lLvVZJdATaacrfEJa9d2f7h+ByzUClxr5X67n+iG26xFryJcH4/b4mSFPQf00tAFxlxY7VwK14Emb0YLzWoR4R+PME+aIucvzOtwPqKsFi0rdVRQXqyJFs7pYRXWpc3dRHOPU9CGBSIgGYUDB03AJ8M+3b5Nrr29eniDb94N/BPwj4B+BK20EbLGGfOk8t8fT/3SHzPn9bGgdhUOrA2qW8Sr/mRoeFJdoWifUINEAziaUU03tsRaaF9w9MEtdYBA8JSbL7nV5chHm/0TmcXGq4EWv/scKNPQfGKMSDF6T66sZ+pAFROHV+QsBcOLUyU8EOGh+8I+AfwT+X42Ax6whX0ZlyMQRSvFZcOdcBxlDqBLbljsBCJIh8CUwEhXwuY5VpFIF6lAr98tUlZcSuIfo0yNOnn/7ccmEU7XnH/1EgiKckuogBN8mqKWUU8VVQAMbCUnVOsEvrfzOnq+TW29Kk3fevE8t4P/3j4B/BPwj8P9oBC45a0g/lmQTbV7+nTDsY4XDOOaszgI2AUhcf82yTCOEtlbVIdN7dZSBOis/CpwWzVmr5OFfQYmqo3Shykr7vCGrctKpTZQY62ycw3/lHwH/CPhH4Mc5Ahpr6HslBD/OofQ/lX8E/CPgH4Ef5ghohMBaf/OH+Vz+XvtHwD8C/hHwj4DNEfATApsD5s/uHwH/CPhH4Mc2An5C8GN7o/7n8Y+AfwT8I2BzBPyEwOaA+bP7R8A/Av4R+LGNwP8BlXMQgiUcu7gAAAAASUVORK5CYII=;" parent="1" vertex="1">
          <mxGeometry x="704" y="750" width="121.57" height="40" as="geometry" />
        </mxCell>
        <mxCell id="ika4lujq_CqSN-vQrN8l-117" value="" style="rounded=1;whiteSpace=wrap;html=1;fillColor=#d5e8d4;strokeColor=#82b366;" parent="1" vertex="1">
          <mxGeometry x="121" y="965" width="120" height="60" as="geometry" />
        </mxCell>
        <mxCell id="ika4lujq_CqSN-vQrN8l-120" value="Source-Cloned from GitOps" style="text;html=1;strokeColor=none;fillColor=none;align=center;verticalAlign=middle;whiteSpace=wrap;rounded=0;" parent="1" vertex="1">
          <mxGeometry x="132" y="977.5" width="90" height="30" as="geometry" />
        </mxCell>
        <mxCell id="ika4lujq_CqSN-vQrN8l-124" value="" style="rounded=1;whiteSpace=wrap;html=1;fillColor=#d5e8d4;strokeColor=#82b366;" parent="1" vertex="1">
          <mxGeometry x="280" y="930" width="100" height="30" as="geometry" />
        </mxCell>
        <mxCell id="ika4lujq_CqSN-vQrN8l-125" value="Code-Analyzed&amp;nbsp;" style="text;html=1;strokeColor=none;fillColor=none;align=center;verticalAlign=middle;whiteSpace=wrap;rounded=0;" parent="1" vertex="1">
          <mxGeometry x="285" y="927.5" width="95" height="35" as="geometry" />
        </mxCell>
        <mxCell id="ika4lujq_CqSN-vQrN8l-126" value="" style="shape=partialRectangle;whiteSpace=wrap;html=1;bottom=1;right=1;left=1;top=0;fillColor=none;routingCenterX=-0.5;direction=west;" parent="1" vertex="1">
          <mxGeometry x="343.5" y="890" width="406.5" height="40" as="geometry" />
        </mxCell>
        <mxCell id="ika4lujq_CqSN-vQrN8l-129" value="Static Code Scanning " style="text;align=center;fontStyle=1;verticalAlign=middle;spacingLeft=3;spacingRight=3;strokeColor=none;rotatable=0;points=[[0,0.5],[1,0.5]];portConstraint=eastwest;" parent="1" vertex="1">
          <mxGeometry x="530" y="850" width="80" height="26" as="geometry" />
        </mxCell>
        <mxCell id="ika4lujq_CqSN-vQrN8l-135" value="" style="rounded=1;whiteSpace=wrap;html=1;fillColor=#d5e8d4;strokeColor=#82b366;" parent="1" vertex="1">
          <mxGeometry x="281" y="982.5" width="100" height="30" as="geometry" />
        </mxCell>
        <mxCell id="ika4lujq_CqSN-vQrN8l-136" value="" style="rounded=1;whiteSpace=wrap;html=1;fillColor=#d5e8d4;strokeColor=#82b366;" parent="1" vertex="1">
          <mxGeometry x="281" y="1040" width="100" height="30" as="geometry" />
        </mxCell>
        <mxCell id="ika4lujq_CqSN-vQrN8l-137" value="Unit-Testing" style="text;html=1;strokeColor=none;fillColor=none;align=center;verticalAlign=middle;whiteSpace=wrap;rounded=0;" parent="1" vertex="1">
          <mxGeometry x="293" y="982.5" width="74" height="30" as="geometry" />
        </mxCell>
        <mxCell id="ika4lujq_CqSN-vQrN8l-138" value="Dependencies" style="text;html=1;strokeColor=none;fillColor=none;align=center;verticalAlign=middle;whiteSpace=wrap;rounded=0;" parent="1" vertex="1">
          <mxGeometry x="288" y="1040" width="93" height="30" as="geometry" />
        </mxCell>
        <mxCell id="ika4lujq_CqSN-vQrN8l-141" value="&lt;b&gt;SonaType Nexus&lt;/b&gt;" style="rounded=1;whiteSpace=wrap;html=1;fillColor=#00CC00;strokeColor=#FF3333;" parent="1" vertex="1">
          <mxGeometry x="413" y="895" width="116.5" height="30" as="geometry" />
        </mxCell>
        <mxCell id="ika4lujq_CqSN-vQrN8l-142" value="" style="rounded=1;whiteSpace=wrap;html=1;fillColor=#00CC66;strokeColor=#FF0000;" parent="1" vertex="1">
          <mxGeometry x="580" y="895" width="100" height="30" as="geometry" />
        </mxCell>
        <mxCell id="ika4lujq_CqSN-vQrN8l-143" value="&lt;b&gt;SonarQube&lt;/b&gt;" style="text;html=1;strokeColor=none;fillColor=none;align=center;verticalAlign=middle;whiteSpace=wrap;rounded=0;" parent="1" vertex="1">
          <mxGeometry x="601" y="895" width="60" height="30" as="geometry" />
        </mxCell>
        <mxCell id="ika4lujq_CqSN-vQrN8l-145" value="Release-app" style="rounded=1;whiteSpace=wrap;html=1;fillColor=#d5e8d4;strokeColor=#82b366;" parent="1" vertex="1">
          <mxGeometry x="440" y="980" width="90" height="30" as="geometry" />
        </mxCell>
        <mxCell id="ika4lujq_CqSN-vQrN8l-146" value="Building" style="rounded=1;whiteSpace=wrap;html=1;fillColor=#d5e8d4;strokeColor=#82b366;arcSize=50;" parent="1" vertex="1">
          <mxGeometry x="566.75" y="980" width="73.25" height="30" as="geometry" />
        </mxCell>
        <mxCell id="ika4lujq_CqSN-vQrN8l-149" value="" style="endArrow=none;html=1;rounded=0;" parent="1" edge="1">
          <mxGeometry width="50" height="50" relative="1" as="geometry">
            <mxPoint x="241" y="997" as="sourcePoint" />
            <mxPoint x="278" y="997" as="targetPoint" />
            <Array as="points">
              <mxPoint x="265" y="997" />
            </Array>
          </mxGeometry>
        </mxCell>
        <mxCell id="ika4lujq_CqSN-vQrN8l-153" value="" style="shape=partialRectangle;whiteSpace=wrap;html=1;bottom=1;right=1;left=1;top=0;fillColor=none;routingCenterX=-0.5;direction=south;" parent="1" vertex="1">
          <mxGeometry x="271" y="937.5" width="9" height="120" as="geometry" />
        </mxCell>
        <mxCell id="ika4lujq_CqSN-vQrN8l-159" value="" style="endArrow=none;html=1;rounded=0;" parent="1" edge="1">
          <mxGeometry width="50" height="50" relative="1" as="geometry">
            <mxPoint x="530" y="994.5" as="sourcePoint" />
            <mxPoint x="567" y="994.5" as="targetPoint" />
            <Array as="points">
              <mxPoint x="554" y="994.5" />
            </Array>
          </mxGeometry>
        </mxCell>
        <mxCell id="ika4lujq_CqSN-vQrN8l-160" value="" style="shape=partialRectangle;whiteSpace=wrap;html=1;bottom=1;right=1;left=1;top=0;fillColor=none;routingCenterX=-0.5;direction=north;" parent="1" vertex="1">
          <mxGeometry x="381" y="940" width="20" height="120" as="geometry" />
        </mxCell>
        <mxCell id="ika4lujq_CqSN-vQrN8l-164" value="" style="endArrow=none;html=1;rounded=0;" parent="1" edge="1">
          <mxGeometry width="50" height="50" relative="1" as="geometry">
            <mxPoint x="381" y="997" as="sourcePoint" />
            <mxPoint x="438" y="997" as="targetPoint" />
            <Array as="points" />
          </mxGeometry>
        </mxCell>
        <mxCell id="ika4lujq_CqSN-vQrN8l-165" value="Image-Scan" style="rounded=1;whiteSpace=wrap;html=1;fillColor=#d5e8d4;strokeColor=#82b366;arcSize=50;" parent="1" vertex="1">
          <mxGeometry x="711" y="925" width="102.25" height="30" as="geometry" />
        </mxCell>
        <mxCell id="ika4lujq_CqSN-vQrN8l-166" value="&lt;b&gt;Image-Check&lt;/b&gt;" style="rounded=1;whiteSpace=wrap;html=1;fillColor=#FF3333;strokeColor=#FFB366;arcSize=50;" parent="1" vertex="1">
          <mxGeometry x="711" y="977.5" width="102.25" height="30" as="geometry" />
        </mxCell>
        <mxCell id="ika4lujq_CqSN-vQrN8l-167" value="Deploy-Check" style="rounded=1;whiteSpace=wrap;html=1;fillColor=#d5e8d4;strokeColor=#82b366;arcSize=50;" parent="1" vertex="1">
          <mxGeometry x="711" y="1040" width="102.25" height="30" as="geometry" />
        </mxCell>
        <mxCell id="ika4lujq_CqSN-vQrN8l-169" value="" style="shape=partialRectangle;whiteSpace=wrap;html=1;bottom=1;right=1;left=1;top=0;fillColor=none;routingCenterX=-0.5;direction=south;" parent="1" vertex="1">
          <mxGeometry x="691" y="935" width="20" height="120" as="geometry" />
        </mxCell>
        <mxCell id="ika4lujq_CqSN-vQrN8l-172" value="" style="endArrow=none;html=1;rounded=0;" parent="1" edge="1">
          <mxGeometry width="50" height="50" relative="1" as="geometry">
            <mxPoint x="639.5" y="994.5" as="sourcePoint" />
            <mxPoint x="711" y="994.5" as="targetPoint" />
            <Array as="points">
              <mxPoint x="663.5" y="994.5" />
              <mxPoint x="674.5" y="994.5" />
            </Array>
          </mxGeometry>
        </mxCell>
        <mxCell id="ika4lujq_CqSN-vQrN8l-173" value="Update-Deployment&amp;nbsp;" style="rounded=1;whiteSpace=wrap;html=1;fillColor=#d5e8d4;strokeColor=#82b366;arcSize=50;" parent="1" vertex="1">
          <mxGeometry x="826" y="977.5" width="102.25" height="30" as="geometry" />
        </mxCell>
        <mxCell id="ika4lujq_CqSN-vQrN8l-174" value="Wait-Application" style="rounded=1;whiteSpace=wrap;html=1;fillColor=#d5e8d4;strokeColor=#82b366;arcSize=50;" parent="1" vertex="1">
          <mxGeometry x="950" y="977.5" width="102.25" height="30" as="geometry" />
        </mxCell>
        <mxCell id="ika4lujq_CqSN-vQrN8l-175" value="perf-Test-Clone" style="rounded=1;whiteSpace=wrap;html=1;fillColor=#d5e8d4;strokeColor=#82b366;arcSize=50;" parent="1" vertex="1">
          <mxGeometry x="1070" y="977.5" width="102.25" height="30" as="geometry" />
        </mxCell>
        <mxCell id="ika4lujq_CqSN-vQrN8l-177" value="Pentesting" style="rounded=1;whiteSpace=wrap;html=1;fillColor=#d5e8d4;strokeColor=#82b366;arcSize=50;" parent="1" vertex="1">
          <mxGeometry x="1190" y="925" width="102.25" height="30" as="geometry" />
        </mxCell>
        <mxCell id="ika4lujq_CqSN-vQrN8l-178" value="Performance-Testing &amp;nbsp;" style="rounded=1;whiteSpace=wrap;html=1;fillColor=#d5e8d4;strokeColor=#82b366;arcSize=50;" parent="1" vertex="1">
          <mxGeometry x="1190" y="1030" width="102.25" height="30" as="geometry" />
        </mxCell>
        <mxCell id="ika4lujq_CqSN-vQrN8l-180" value="" style="endArrow=none;html=1;rounded=0;" parent="1" edge="1">
          <mxGeometry width="50" height="50" relative="1" as="geometry">
            <mxPoint x="926" y="994.5" as="sourcePoint" />
            <mxPoint x="950" y="994.5" as="targetPoint" />
            <Array as="points">
              <mxPoint x="950" y="994.5" />
            </Array>
          </mxGeometry>
        </mxCell>
        <mxCell id="ika4lujq_CqSN-vQrN8l-183" value="" style="shape=partialRectangle;whiteSpace=wrap;html=1;bottom=1;right=1;left=1;top=0;fillColor=none;routingCenterX=-0.5;strokeColor=#000000;direction=south;" parent="1" vertex="1">
          <mxGeometry x="1180" y="937.5" width="10" height="120" as="geometry" />
        </mxCell>
        <mxCell id="ika4lujq_CqSN-vQrN8l-187" value="" style="endArrow=none;html=1;rounded=0;" parent="1" edge="1">
          <mxGeometry width="50" height="50" relative="1" as="geometry">
            <mxPoint x="1052.25" y="994.5" as="sourcePoint" />
            <mxPoint x="1076.25" y="994.5" as="targetPoint" />
            <Array as="points">
              <mxPoint x="1076.25" y="994.5" />
            </Array>
          </mxGeometry>
        </mxCell>
        <mxCell id="ika4lujq_CqSN-vQrN8l-188" value="" style="endArrow=none;html=1;rounded=0;" parent="1" edge="1">
          <mxGeometry width="50" height="50" relative="1" as="geometry">
            <mxPoint x="1165" y="994.5" as="sourcePoint" />
            <mxPoint x="1180" y="994.5" as="targetPoint" />
            <Array as="points" />
          </mxGeometry>
        </mxCell>
        <mxCell id="ika4lujq_CqSN-vQrN8l-191" value="" style="shape=crossbar;whiteSpace=wrap;html=1;rounded=1;strokeColor=#FF0000;" parent="1" vertex="1">
          <mxGeometry x="770" y="830" width="550" height="20" as="geometry" />
        </mxCell>
        <mxCell id="ika4lujq_CqSN-vQrN8l-192" value="" style="shape=partialRectangle;whiteSpace=wrap;html=1;bottom=1;right=1;left=1;top=0;fillColor=none;routingCenterX=-0.5;direction=west;" parent="1" vertex="1">
          <mxGeometry x="780" y="890" width="459.5" height="35" as="geometry" />
        </mxCell>
        <mxCell id="ika4lujq_CqSN-vQrN8l-193" value="Dynamic Code Scanning " style="text;align=center;fontStyle=1;verticalAlign=middle;spacingLeft=3;spacingRight=3;strokeColor=none;rotatable=0;points=[[0,0.5],[1,0.5]];portConstraint=eastwest;" parent="1" vertex="1">
          <mxGeometry x="990" y="860" width="80" height="26" as="geometry" />
        </mxCell>
        <mxCell id="ika4lujq_CqSN-vQrN8l-195" value="&lt;b&gt;Owasp Zed Attack Proxy&lt;/b&gt;" style="rounded=1;whiteSpace=wrap;html=1;fillColor=#00CC66;strokeColor=#FF0000;" parent="1" vertex="1">
          <mxGeometry x="830" y="895" width="130" height="30" as="geometry" />
        </mxCell>
        <mxCell id="ika4lujq_CqSN-vQrN8l-196" value="&lt;b&gt;Gatline&amp;nbsp;&lt;/b&gt;" style="rounded=1;whiteSpace=wrap;html=1;fillColor=#00CC66;strokeColor=#FF0000;" parent="1" vertex="1">
          <mxGeometry x="1000" y="895" width="110" height="30" as="geometry" />
        </mxCell>
        <mxCell id="ika4lujq_CqSN-vQrN8l-199" value="" style="rounded=0;whiteSpace=wrap;html=1;strokeColor=#FF0000;fillColor=#3333FF;" parent="1" vertex="1">
          <mxGeometry x="121.5" y="1150" width="1159" height="30" as="geometry" />
        </mxCell>
        <mxCell id="ika4lujq_CqSN-vQrN8l-200" value="" style="shape=partialRectangle;whiteSpace=wrap;html=1;bottom=1;right=1;left=1;top=0;fillColor=none;routingCenterX=-0.5;direction=east;" parent="1" vertex="1">
          <mxGeometry x="740" y="1070" width="40" height="29" as="geometry" />
        </mxCell>
        <mxCell id="ika4lujq_CqSN-vQrN8l-202" value="Kubernetes" style="text;html=1;strokeColor=none;fillColor=none;align=center;verticalAlign=middle;whiteSpace=wrap;rounded=0;" parent="1" vertex="1">
          <mxGeometry x="491" y="1150" width="450" height="30" as="geometry" />
        </mxCell>
        <mxCell id="ika4lujq_CqSN-vQrN8l-205" value="" style="shape=image;verticalLabelPosition=bottom;labelBackgroundColor=#ffffff;verticalAlign=top;aspect=fixed;imageAspect=0;image=data:image/png,iVBORw0KGgoAAAANSUhEUgAAAH4AAAAiCAYAAACZb20EAAABQWlDQ1BJQ0MgUHJvZmlsZQAAKJFjYGASSCwoyGFhYGDIzSspCnJ3UoiIjFJgf8rAzSDIIM6gzyCQmFxc4BgQ4ANUwgCjUcG3awyMIPqyLsgs3TNvsqQU9r+pKdhyfAvfxYuY6lEAV0pqcTKQ/gPESckFRSUMDIwJQLZyeUkBiN0CZIsUAR0FZM8AsdMh7DUgdhKEfQCsJiTIGci+AmQLJGckpgDZT4BsnSQk8XQkNtReEODwCFBwNTIxJuBU0kFJakUJiHbOL6gsykzPKFFwBIZQqoJnXrKejoKRgZEhAwMovCGqP98AhyOjGAdCrPgMA4P9OSAjGyEWuZ2BYfUHBgaejQgxzWBgEDgxMBwTKEgsSoQ7gPEbS3GasRGEzQ3Uxzrt///P4QwM7JoMDH+v////e/v//3+XMTAw32JgOPANAFF5YCO6R/iHAAAAVmVYSWZNTQAqAAAACAABh2kABAAAAAEAAAAaAAAAAAADkoYABwAAABIAAABEoAIABAAAAAEAAAB+oAMABAAAAAEAAAAiAAAAAEFTQ0lJAAAAU2NyZWVuc2hvdKT2TVEAAAHVaVRYdFhNTDpjb20uYWRvYmUueG1wAAAAAAA8eDp4bXBtZXRhIHhtbG5zOng9ImFkb2JlOm5zOm1ldGEvIiB4OnhtcHRrPSJYTVAgQ29yZSA2LjAuMCI+CiAgIDxyZGY6UkRGIHhtbG5zOnJkZj0iaHR0cDovL3d3dy53My5vcmcvMTk5OS8wMi8yMi1yZGYtc3ludGF4LW5zIyI+CiAgICAgIDxyZGY6RGVzY3JpcHRpb24gcmRmOmFib3V0PSIiCiAgICAgICAgICAgIHhtbG5zOmV4aWY9Imh0dHA6Ly9ucy5hZG9iZS5jb20vZXhpZi8xLjAvIj4KICAgICAgICAgPGV4aWY6UGl4ZWxZRGltZW5zaW9uPjM0PC9leGlmOlBpeGVsWURpbWVuc2lvbj4KICAgICAgICAgPGV4aWY6UGl4ZWxYRGltZW5zaW9uPjEyNjwvZXhpZjpQaXhlbFhEaW1lbnNpb24+CiAgICAgICAgIDxleGlmOlVzZXJDb21tZW50PlNjcmVlbnNob3Q8L2V4aWY6VXNlckNvbW1lbnQ+CiAgICAgIDwvcmRmOkRlc2NyaXB0aW9uPgogICA8L3JkZjpSREY+CjwveDp4bXBtZXRhPgqK2bq3AAAN/ElEQVR4Ae1bC1BU1xn+9gnsAvJeURDfQUQxojGC1rxsYuykse1otEkbTZ0mVZvapJ2YOh0z00k67bSdWptMpsl0+nAytjrGRm0sakKNb0QFDWoQkacgsshrgX3cfv+5XEJUUFfRzmQP7p67995z7jn/9//f///nXE0aC0LlSycB85duxqEJKwlYb1UO1yIMk8l0q92G2g+wBIK2+B7Aux2F/DbO9T4e4PGHug9SAiaCdFM+Xt3e3cIf8KOjowO1tbUoKCjAiBEjkJ2dDYvFgmtZvfCARjYI8UGQaN3GZjdM9YZ+SN3Z2YmWlhZUV1fj+PHj2LRpk/rd5fVi7R/fRNLQNFisVtipADaLCRF2K2uSi7gA0bOQK7iNEAbXVb8Wb4AtXcuxz+dTdUlJCdauXYv8/Hzk5ubi+eefR3JyMv7y9/XYuGMPBk1/GrawMLhinbh3ZDzmZo/EKFcsrATfbDbBIlYfUoLgELtNrfoFXgEe0CCUfunSJWzcuBF5eXnw0rJnEPDH585FWloawsPD1XCE8r//wjIUe1IAVxZgDSOta7CHmTE8ORJPPZCOJ6aOxOBBTlq9/Osm/d7Ht2lioW76l0CfwIuF+/1+lJWVYevWrdiyZQviExKwYP58TJs2DTExMXA4HLCS0g1/3tbWhoIjhXhm6XJoGU8hEJ5An24h9BotnXpAxzJpbDzWLMpBVloiVGQpli8M0P84Q1dvswT6BD4QCKC5uRkrVqxQwM6ePRuzZs1CYmIi7HY7gbw6IRBl8Xg68Id16/DWhp3wj5gDhA8i7Lpr17QAzBYg1eXAmmemY0b6EDjsNl1xQuDfZmj77+5q9Hrd39XVpSza5XIhJycHCbT4MPpuA3Sx9Cs/YWF2LFn8LMYPiQBqD8MKP6zdft1sMiPgN6Gyrh2vvLsHZ+ua0OnzK0ZQQV+vZ4cOB1YCfQIv4CbEx2P16tUQ6583bx4OHToMUQYV9JGbe+eB6hzHKqlcPNutWbMaydYGmJvPM6K3qsDOwghf+g34zaip92DlO/k439Cs+tNZoXePAzvxL3vvljUsfQqBFu10OjF16lTEJCZh1Wuvo6nhIoalpiIuNlY1M/y7YflGX3GxcYzeA8jfugH2wZkwmSVz7Pbk4tb51+D2ICnegYnD6T4Y8V/Zh9FXqL79EujT4o1H2Ww2WB2R8LnGw538GP60YTtW/vgllb+LlRuWbtxv1GfPnkXpZ6XoaHXD6u+CjWDbhPL5IcQE2QwtYMLGPZ+h2t1qNAvVd0gC1wVextHs8WJbQSUsUYPRzuDNTDpvbHT3Cbq0kfRv9+7diBo2BWEO5vC0eCvBlhxe4kJWCvyqulbsLKoAs0ZVJAMIlYGXwHWBp1GjrsmDM+fdBMyiVuRcrmSVv8sK3pUWb1C/pHxLlixGx4VioKtF0b4s3onFK6tXwIOrgAEcPHUBfkb8V/Y18NP//3iCzFtSZy8DXYmn7oQcrgu8WKa7zYPmdgZ1jNHDsxdjy+EqLFj4bezavUst5hiDlQHLR8APY8r3rW/MwzNPzUPtofUw8zzX7WDmNakNBRHRV11sRVNbl7J64n93CsfHwX/xQxCuOmfc0z1KY85SB+QaizpHCjOudd/aUxnnjVqlzq2tOF9ZydVRf899A3nQf3DHJ/s4gYKyevz7YLkOGmk+PGE0ukwO7Ni8HvU1FUhPvweRkZFfAFOAlXw/MzMTJwoPoKqynK5iCE3ergQkQtJlGEBkhBVfv38koh12MoPuBiT8u+Ml4AM8jcDFT6HVFcPka+M6RAyHQvvweYgor3NBihO9amgdZL+Tp87gyPFiNDQ2qrTXyQUuVZQ+6fOV3wL40RMnyaAmeDo6ceZsGcorKrF950cYN3Y0etrprXu+DUUxTvQ2HuPcjdb9A88B+wl84bmL2FlQQeAtarAWKwO+iDjYYkbg+KGPsT8/D2PHjEZSUhJpnDtznJAUSe1sVisyx2dg66a/wR8WB42CDFCQkr2zayWEqEgr5uWMQYyTS7xsq0/oauHe6KSCvs/XAXQQeFlqZkyindwMtFTDFJVM2jsLrWw3ULEfJmc8I1WC2q0E7suX8cGHedj9yV60eTw4UXJKgZmWMhRRkU6VAje3tKrNLQlhWtvb8c5f30NERDiaudm1LW8XHpk1U4EuwbQoQ0trGxXIDZtNUmGL2idpJivINfktspUSLPiSY/VZNMpeMHSE6cuyPVBw8CYKx+xIoF/S1ApfUVERJk2axHkJmvqAhMIk76+qqkTGPaNx6FwpwuPGMprnDVJUpVFZzCrPl/4lzZPvu1M4oLZ6aOf2ALFpwOAJwNFN0JoqgEgXrT+akW4ttF1vwJS7jPsRE2gYJhR/egqHCo9i4TefxNhRI1FVU4sDR47iGK06OioK+fsP4ExpGcEyY+K4cfD6fWjiquiBgkKkjxkFYYvq2gtkjNNMk2No/VVkSxsa3U2YMC4dudOmoqz8PA4fK1KGkjV+HLKzJiLS2c0oQQirX+BF/BKIxUdFqEHrQMm2CxRda34PtNZqrHztV5g5I0cFKELvUoSWBPiamhosW74c7VoU4ifPp6VL+160x3sd4RalXIK39K0/4Q6DL36n/RK0PetI9ZXAoARadZjMBPB6YBrCTScLfzsSoVUVQ7t8HkjMoBzMKKdvTifjTSEYl2nBFdU1iImORlu7B/sOF2A7LfrJxx9DW1s71m/ajOVLFytgc+6bAmdEBJXmGO9tx4X6i8rH19bVYcX3FqO2rh4b3v8XxwDs2vMJHpo5QzHofz7+r1pfyZ4wnqSjW7666Sa++gVe+hEg4px2DIq0kJZ0wMQ/SwwWsEUiMmsRXlz1BjK5/bpi2Q8w9/G5FAbX5GnF8knhYs+rr76KX/zmbQoygv2Z2FbvRxSAvXDtPhqxpHk6Ev6WcodB1x/Kx/L5di41D8+CKftpIDoFWgkFX38aWksd6U+EzLFZqdxdsvYg4+dpnu/s8qrjnfmf4OTpM2TBFqa+7biHCjF96hRMvTcLPq8PpbTc8vNULCmUo4kyEp3Ti34gi2NJiWRT3i/PO19Vjfi4OMy8/z78+b1/KIaUdFpiDTGwYOjekLTx5KtqgcAV40D68AS1PasHZWLNJqZgNIKYNMRPW4IK/3Cs/Nkv8dzSpSgsLEQrfZSUCG7ZzueO3rw5s+Cr2gdvu1sxge7fyZ50IzncrJF1fJHpXYJcCRGMW0yzXgKGTqQ+Mrom7aPyCBWW284XTzP3bGEMQIF7O2FifAPGAeJrRw9PQ+m5cny0dz8mZWbg4Zm5iI0ZhKzM8RjFayVnPkNpWTlOlZaiimygwKJsxDAkTpRMRy96fCNA6oYj5zUkxMUqRTpafAIuKkRjUxOs9P23Uq7bWgYR4wjD/Jljsf94DcfBtXY6fz81zczaxADHZOX27JApsMaNRn7JQRS/+FN8bc4jWLRwAYYOGUJf5MSLK5bhzI9exsmqA9BSv8JuGN1TuCNSYvHwhFQVS9zKRG69LbVYKR/BSL6XtN8ArXA9fX0qIDQvKtnC+Z/dC6TQ9/s7YOLHbHUyKBuDJx6bjT0HDikq7uzswoi0VDz64CwV3Yv//mBHnlJ48d0O0rtE7nabXaW9cizprwTCTmeEep1N5C5b3uI608eOpsXH4iC3vIUdHpyRi6yMcRyRrijBzL3PbVnpTFExHyRW7m7rxIJfb8OpssvKGEQjZddNfSgwWZwhaZGuTeioL4Gn8iDSUwbhue8uwjT6MtnhO3z4MH7y89dRac+AFpcuBoNVT0/Dsw+M4/ZsdwDZo/3BTOcW2ohEZRFBKLyxFJpYu5Se8fC6z0slp/VbbKQy7lXEjyXthyswukjLNfTNlbToOL6rMHxYigJYAGzlewqVDPjE0m3MiOIZwIk/dyUlUG4WHtdzQyxORfJi/QHSobTvYAQv8UKyK4kvu4ShidmDXBM2sTP6l77lE0y5DvDsUgTC0tHlw8clVXjht3no9OqWrhZjCLiVSiDRv1qOFcvoLrJq13z0nwx60vF7vqo1mBPI27kTP3z5Ffgyn2UWMBJvr5iD4YnRPRMIdiLGM4Ouu+ep2qtVJH3effanBK57SuNOAdbwuVfOQ84bRSxV4hxdUvKt+2kxMEN6env6cAbIRnps9GH0bdRGvzdT9wu80ZExoQ6+c/fWjiK8+X4RtZgBHC1dB58+iSMm/hy4+C1dAKQKaN52dNUVwVpzEHMfzsXChQtRdOJTBnvrsH3rZmSMHAY7KU1mfCsTMcYaqm9MAjcMvHQnCtBIyn931wm8u60Y7ste5t8GRUuQIneJPosO60Vy9kCAES+DIq1yH2K0Bix44qsoZo47bBgj/lWrSHMJPVrd3SxUDbAErhvc9TxfLJJ/sZFhWPxQBkYPHoTfvV+Ic5UtBJZxAKN8eWdeUBfgpQj4ii0kTWPE7Mh4FJNTvDh16iCa3I1qsULdGPq64xK4IYvvPSqD9ru4mVDV2Iq3PjyOvcW1aGjuZN4ZYOAnNK+3kLVos9WMCL5lm+py4jsPjcOjWcNg5Zr3/n37MHnyZPW2Tu8XNns/K3Q8cBK4eeBlLN3IihJIQNLa6eP7c27kn6zEsbIGuFtkPdmMNFcU7h/jwvT0FCRFR6j/VCExgfzJK9t6HqvzQ8i/DxzI1+o5COBpzoYD7+7RT66XXTyvnzU/n1s81z64wGGn1asg8MrUQ7kFwzFca3ihcwMlgZsGvvdAFP4Gyr0v9HEcsuo+BHMXTuuJaJAPFlsVMD+3Wf1InVHW3X1F3RjkQ0LNBkQC/wM5YtJihxef3wAAAABJRU5ErkJggg==;" parent="1" vertex="1">
          <mxGeometry x="1166.25" y="846" width="126" height="34" as="geometry" />
        </mxCell>
        <mxCell id="H-efJQNljcY-DFXjiO8p-3" value="" style="edgeStyle=elbowEdgeStyle;elbow=horizontal;endArrow=classic;html=1;rounded=0;exitX=1;exitY=0.25;exitDx=0;exitDy=0;" parent="1" source="ika4lujq_CqSN-vQrN8l-178" edge="1">
          <mxGeometry width="50" height="50" relative="1" as="geometry">
            <mxPoint x="1300" y="1040" as="sourcePoint" />
            <mxPoint x="1180" y="1215" as="targetPoint" />
            <Array as="points">
              <mxPoint x="1310" y="1160" />
              <mxPoint x="1300" y="1150" />
              <mxPoint x="1330" y="1225" />
            </Array>
          </mxGeometry>
        </mxCell>
        <mxCell id="H-efJQNljcY-DFXjiO8p-6" value="&lt;b&gt;Kunernetes &amp;nbsp;Cluster&lt;/b&gt;" style="text;html=1;strokeColor=none;fillColor=none;align=center;verticalAlign=middle;whiteSpace=wrap;rounded=0;" parent="1" vertex="1">
          <mxGeometry x="190.5" y="1185.5" width="288" height="20" as="geometry" />
        </mxCell>
        <mxCell id="H-efJQNljcY-DFXjiO8p-7" value="Easy integration &amp;nbsp;with &amp;nbsp;other third-party tools such as &amp;nbsp;Slack and Service now" style="text;html=1;strokeColor=none;fillColor=none;align=center;verticalAlign=middle;whiteSpace=wrap;rounded=0;" parent="1" vertex="1">
          <mxGeometry x="78.75" y="1205.5" width="488" height="30" as="geometry" />
        </mxCell>
        <mxCell id="H-efJQNljcY-DFXjiO8p-8" value="Streamlined process, giving SecOps team &amp;nbsp;visibility &amp;nbsp;into &amp;nbsp;the pipeline and provide input to the development team &amp;nbsp; &amp;nbsp; &amp;nbsp; &amp;nbsp; &amp;nbsp; &amp;nbsp; &amp;nbsp; &amp;nbsp; &amp;nbsp;" style="text;html=1;strokeColor=none;fillColor=none;align=center;verticalAlign=middle;whiteSpace=wrap;rounded=0;" parent="1" vertex="1">
          <mxGeometry x="113" y="1235.5" width="439" height="30" as="geometry" />
        </mxCell>
        <mxCell id="H-efJQNljcY-DFXjiO8p-9" value="Identify &amp;nbsp;vulnerabilities during development, such as: &amp;nbsp; Container security, &amp;nbsp;Compliance failures, Images, Code validation and OWASP Top Ten Vulnerabilities&amp;nbsp;" style="text;html=1;strokeColor=none;fillColor=none;align=center;verticalAlign=middle;whiteSpace=wrap;rounded=0;" parent="1" vertex="1">
          <mxGeometry x="-20" y="1265.5" width="1110" height="30" as="geometry" />
        </mxCell>
        <mxCell id="H-efJQNljcY-DFXjiO8p-10" value="SAST" style="text;strokeColor=none;fillColor=none;html=1;fontSize=24;fontStyle=1;verticalAlign=middle;align=center;" parent="1" vertex="1">
          <mxGeometry x="520" y="776" width="100" height="40" as="geometry" />
        </mxCell>
        <mxCell id="H-efJQNljcY-DFXjiO8p-11" value="DAST" style="text;strokeColor=none;fillColor=none;html=1;fontSize=24;fontStyle=1;verticalAlign=middle;align=center;" parent="1" vertex="1">
          <mxGeometry x="1180" y="780" width="100" height="40" as="geometry" />
        </mxCell>
        <mxCell id="1-B4D0uf_ZDkLTiQzZ-2-1" value="" style="shape=image;verticalLabelPosition=bottom;labelBackgroundColor=default;verticalAlign=top;aspect=fixed;imageAspect=0;image=data:image/png,iVBORw0KGgoAAAANSUhEUgAAAL0AAAC4CAYAAAC2Gu2DAAABSWlDQ1BJQ0MgUHJvZmlsZQAAKJFjYGASSSwoyGFhYGDIzSspCnJ3UoiIjFJgf8bAxsDMwM+gzaCUmFxc4BgQ4ANUwgCjUcG3awyMIPqyLsgs3tM+L6bYSPybYTpBsFhcXRNTPQrgSkktTgbSf4A4I7mgqISBgTEFyFYuLykAsTuAbJEioKOA7DkgdjqEvQHEToKwj4DVhAQ5A9k3gGyB5IxEoBmML4BsnSQk8XQkNtReEOALcTEyMjZQCE4tykwtJuBgUkFJakUJiHbOL6gsykzPKFFwBIZSqoJnXrKejoKRgZERAwMozCGqPweBw5JRbB9CLH8JA4PFNwYG5okIsaQpDAzb2xgYJG4hxFTmMTDwtzAwbDtUkFiUCHcA4zeW4jRjIwibx56BgfXu//+fNRgY2CcyMPyd+P//78X///9dDDT/NgPDgUoANK1gO5uOnPoAAAA4ZVhJZk1NACoAAAAIAAGHaQAEAAAAAQAAABoAAAAAAAKgAgAEAAAAAQAAAL2gAwAEAAAAAQAAALgAAAAA0VvdnwAAOEdJREFUeAHtnQecVNXVwO8uu8v2BXbpRRBUIkEMNlCjYrDHxIqxixq7mGDX2DAaDQZFEzVGxehnjBp7NKBGFAuighGCYhSV3mF7oe13/ne56zD7Zua+N29m3+zO+f1mZ+eVW88999xTM/r2G9CoBAYM6K/OOON0NebEE1R2djaX0pAegTY5Aln0asCA/urSSy9RPz3qSH6mIYEjsHjVJrV8zWZVWbNFbdrSqLI7ZKiykizVr0e2KuvUIYE1p4s2I6CRHgqfRngzJP5/b9zUqN6eU6Pe+U+9+nblZrW+eotaW7lVbdmqVIdMpYrzM9QOXbNV/+4d1AE/ylejhuf734h0ic0jkHHOuec13j3prjRL0zwk/v7z+qxq9cBLlWrJui2qoq5RdRQyA3UH2Q2A/HWyMIDCjhlq517Z6pdHF6eR3wyQz99ZI0eOSCO8z4MKZX9/Xp268bH16us1W1RpXobKzc5QJfLtBCwAkN3A3EUb1ZF3rlEje3VQt59Tqobvkqty5P00+DMCGTM//LBx92HD/CmtnZcCvz5vYb2674VK9c6iTWpwSYftKLrb4amXxbOweqs6fFCOGndCJzV0x45pvt/tIDo8n1FRUdGYk5PjcCt9yXYEQPYP5tapp6dXq6lfb1QDCzM1Zbd9P9ZzGvlrGtWxu3ZUpx5SoIYOzFX9uqclbLHGLdL9NNJHGhmL6yD7qx9Uq3fnNqjpCxqa2RiLVz09AvKvk3PB4UNz1QG7dVRH71+UpvweRjKjsrKyMS2Xdzdy5VVb1YMvbFBvz6tXS+WAulkOoqE8ubvS3D9d3dCosuQc0Ke0gzpIFsC4MV1Ufm6a57cdyTSltx0pec4g+yNv1mhePU8Ol6FSGBdFxf0oEh/k/ACL7qIjitS5P++URn6LkU1T+hiDVFvfqJat2aSem16lJv+rWj/duzhE3hjj/WTcZgGslAMvcNkRher4UUVqB1F2pSU+zqOfpvTO46JA9gXfNajXP6pRUPZq4aeDhuxOTV8mSq8SEX+edXCBOmrfQrXLDjlp5A8bqDTShw2IkbHP+LRWvfJRnQKJeog0prXYmLDmWf00lH9Q1w7qqD3z1EGi4R3xwzyrd9vDQ2mkD5lltKcvvlur5i3eqFaWb9WH01RC9pCu6H9Bfg69PTplqqH9ctSJBxemtbwyMmmkl0GY93WD+t2TGxSaUCDcTEBfTOE/5tBLv37QJ1tde2pnNXRQxxTuUXxNb7dIjyTm06/q1a1PrFczF21WA4UaYirQ1kErumQXO3Bgtrr5zC5qt0G57U7i0+6Qfm35FjXnyzptBDZ1gWhP2wmyhy9mg/zHDhM5//ElalCfnHaj6Go3SG9MBWZ8Vq9emF2nJRzJVCiFI11QfsPzV8jn2D3y1AGyAEbvVdDmkb/NIz1szOOvVagPxUwAnj3Z2tOgIHesdhgt724i4vyxmDicPLpEdSoKlj4iVh9s77dZpEfO/vBL5eq1T2qbTQVaU4NqOyGt+RwHXuz6MXHoVpKpTjygQJ15RNvT8rY5pIdn/9u0SnXfq1Uaf2BhUlns2FqLwIg7qf/So4rUKYcVtxm2p00gPQqlles3a4vH8U9VqE4imksF7WlrIbTbelHQicBHTfpFsdby9uiSldJa3pRH+jkL6tV7n9Wpx9+q1trTNLK7RWn750F+tLwn7leg9h+Wp4YPzrV/OUBPpizSf/jfOvXK+zVqpiD9knWprz0NEE5EbYphe/qWZqoDf5irDtunIOVMHFIO6dGePvBiRUqbCoA4C4RqKmHLlCjEBovVZqqdOwzyY+IwfECOOvfokpTR8qYM0sPG3PV0ufp44UbHiAJRyVOAbiIa7NU5U11+YonauW9H9b8lDeoPz1ao5RuadqsANdWqKSA/dv0Nm5Xaf3BHNX6M+PIG3MQh0EiPjP2bZRvVrY+vV1PnNaiBwk+msqkAIUBAjCnXdW+BUKfcslLN+XZjUj2wWjQizgtayyvRH44Vy84rTuqkduydE0hZfyCR3kQVePWDOjXlo1q1Q35mSiMDuARFhIV5867ejoiAqHX/Xy1L+X7SV3azRbLAx+6VJ9KePLXPrvmBEnfqCGc0NAjAxL/yXpWaIY7WM//XoJs0pHPbCHUHIpx2YH5E467igkx1mJgBTBMziVQ3j6D9Q+Tzxtx69dZ/69XBP6xTew3OCYwjeyCQHu3pX/9VrqMKtFVTATyv+nWPLN/GtW+gRDarEMeVVEd6Q0BNcCuQf8bn9eqN2fXqkD1y1Uli4tCajuytjvQPSFSBv02vURu2+Xhi853bDkO6oGDLbqPhh0B+2DsIGp9HX69Wp4wqUBce29msj6R+J92iiMnlgDrln+Uq77jv1IRnKlWdbP0cUPmkmujOzWxVScAm+h8JVq/fogplDNoiMK9mjquF32femX/wAHyINi5+j0dSKf1XSzaK9rRW3ftSlZZTDxFpTHsBkHnJapHrRYDNW5RaJWLLtrzoTdfpI5rz3nLhoicq1J9eqVIXH10kWt78pERxSArSo1CaPrtWvfhhjfpi5RbtaD1ElBrtCYhWjO8tyJ3jwL5B6biPJWh7AvAA1ue6JyvUD/5drY4ZUaBG7ZGfUFl/QkWWxuIR897Plm5OuagCfiPffLHaWvFwX0eRJVt8zzMXq/a0+4WPL8hP/J5hfbLUkXvmJ8yyM2GUHln7NQ+ua9agpg3BZIprtwqld+bp15RHZn3CkaOt/jZsD6ESMQ3H8eeOC0p9D1abEB4D3v24G5s0jJzcU1mL6iuCyVh8vbQp4kJ4uUslJY9KGAkKry3Yv8EX8AaTk1NvW6UgoH6C70iPzP38Sau1Vq6tyJt9G/CMDLWu0pmif7d8o/YD8K2uNlAQiE/8ofPuWq0jzvnVJd+R/t5n1uvDahrhW04RZ3fEkk6A3UoaWo4AiP/O4s3a9bPlXW9XfEV62JrH3qpJey1FmYtIyN2WZfRRhsPqFhKeh6ZV+cbm+Ir0f3u9UjsVW/WknT60yZmlVxuduZ52Okotu00UC3yf/QDfkB6R23/k4JGGyCNQLpKbbl2cFXLdJYfsUtFMp8F5BIjQMPfbTb5obn1D+gWLGiRl5FYdB9K52e37KjLoPXtkqcNHFDoOBNEGjKLG8YF2fhGbrJUi1v3vwibr23iGwzek/27FJrW6QmY2DY4jgNJlwlldHBVTvEC28InnlzYnV3AspB1fRIZfWdsonmbxcxO+SYZBelzG2qOFZCguQtEJmMS3ZlcaG1WfXLEzEVuTsmJn1sa8z31yzuqQG8IKEcoEmx1MGNK6jibnlEjSLzOGNt++ID3mBotXb2kXxlJOg4pEhqx/5cKT95EEDnsNzFG7DchW/Xtmix9sjsrOEgWdOFX07upgdBNS4EAJovrCLT1UvZRTU79VfSGZUL5etlnNFtslxHZq2wJCHNweDNNChqb5X4z20AXFY4/vC9KvWLtZfSNas/ZkLBWK6CN3yFLnHdZkKAXiAllC1N3mfGIid5JFYoDsIRiiYaTGN+cmwp48N7NWLRKTBnaQ9rQAOMx+LRwFOcBCx8mMl+23LwZnZPC4+E/r2/QEwK6YbH6dhZr3Lc1SP9s3X/3sx0VxUR3biQp/Dp0Iyd9I67lWwongjtgeYnVCbO67pCyujCq+UPplYjeCOxzas7YIRDGAryaiL2wL2fvioTR+jBH1X3NGqbpGCoPovCFuhpgmL1y1pVXOABAFINFsF2zkqnXxKTXiRnrk85+L/JSMdokCw0pQB4PLAktG8jOoJ7Hbx+ydp0ZKNK99d8vz3eLPjzE7dJ9CxYfYQLO+qFOvf1ynPpQ5ScYYmbkxVrQcwjmMJ+rgzcH+S1nc8fD1cSN9Ze0WTWHgtxIBIB7Bke48t0T17NJ0EERsdeczFQkzamNhLajYog4flKPGnSDBi3bsGKgQFpHGmdiSfEbvWaA91O78R6VetAYhI73n9ToIju37pBNkbkqb5mbFuk3qjr+XJyx4FTsuStBaOejn50aXhkXqV9w8Pbzlbles0IqVSJV4vW746Pcm92kh30ZidNptK7Vzil+TSn3I09lRbj61k1YkpXJiAkxy73umXP3x3Ro1UM4hflLf+Ru2qLF756sJ55a2IAjs/vtftjRhCetYbDN+39Mzixk3fZ4tW2qiAGr7+FXdWiA89aHMef7WXpr1gOeOF9imgbMPKlAf3tdH/eKQYsd6460nme/3656tJl7aVX10uyCIaIPZNVnY8QDvM943/bRI3XNZ1xYIT9kQCg6bOl5nPJVFeBdzjm/FFNsrZDaK7DcemC3eLTsk6ACLSK4sSrAnRHw3jC1Vh+yWqyfUaz9Ahj6lHYSF6qxuO78s5ZE9fByILfnC7b3URUcU6YMm/fUKKN7G7JevLpDwHdFEsgN7R9dJeK2f98CLmRJEyivEzdNPl8pbUz4Pxf+1xE0sr1mvY6q42cKhWkzi0ZJk7FIJPAplbMsw7qTOanD/bPXY1GrtleRWxg+FP/JHuer8Y2Lno2rY6H1hxZoD2v1OHEgfF3sDXz1/+eaEialQ489bGHtFI77Dl5I8SbZUzGzzl/28SN3yy7KEIDznHcSJBLSaPqc21lzq+zxHLBi+/XaTowKkPIwV1Np2rHgPPprgs+ysNsThzU9qVKICXiAWJfcvEhwvEBeln/eNWLwliLWhM8Rt/82UcgkCWhSzb0zEY9d01765UKRYOgMm/KFflan9huZF3aZjVhzyAFrTt+fUqHf+U68+l0he7CI1Us/XEsn39lNLlBqeH/K0879oXQmERMaPAqFoXQo7aN3APqKdHWXxvnOp219lrG46u1Rhznz185UxhRAg/ChB+IkXlTny8NuXrhTEcNILVQl3JlogZhpesqHEhfRvftwUUTi80379ZkVzwDz410vV8xN6xeS1mcypd/ZSv/z9KvVfCTnihPhGrjzrnl5WFCtWX0D0OV/Wqz+/XCnhxCX4qsiRaXc4y5fX0W5T7SxIDhD1jUhgRAYgFB4eaUZn4EcCBPhx2J2BfbPUCfesU4NLOjju2CA8OWZvtzzrEOPojDtXawVZrLGL5z42TqRd8oL0djMRoXXT5tS1mNwIj3q+DI+OyfKo8cskkVqVDgEXrTB4/L9c1V0dI2GiQXCoPh8jdeDAOu+BPnEhPIgO6wIbMvz8JWrUjat0lGVEpyw0wyuD/HxYCG7APM+79J8PZVI+UY33vmqFJgR/f6MybhaIXfS1a7rpdjJe5sOYAdceU6zuuqRrTIIDdWc8jpuwSptruDlbuRkb8yzjQfAwL+CZ0iOLtWEjvDQq/B0GEKQ99771IqKsU8ccWBh1qwfxb7ugTO3xdpXW3lHem4Is/YVlmBxBzBZeZ6TfJlrblDertUwfrWesAE0oVIoK7BEfZI8ETDb1baiW+O8Pb1Aje1Wq039SqEPieTWNgG2aeL5SNz62XrNUBw3NVfmyM3Ho5QwQDeCrp8+pVk++UaOmiyQvGVpg2sMYkWsMAhRNiuTUds9I/+lX9Y7boVMlflyjk1C61z4l7HODhH+rVaccWhxRQcFAIGs3cJgkZiuVLdzmEGbeCf2GkuGjGRqtzVYpxqLF88cGWBw22m3GA08rkJ+QeKMkDDYGcHhmeVGogfiTJfkFZtC26XMwe3jqjSr1opg9sLBtx8NmHGyeYQzwpHLL4nhG+lmCRK0BsA9Q/f97p1YyCzaosw4t2g65I7UJM12vAFv18D+r1Fcrmwyd3EwubWVysrPljwU0hSpv6iPvxQKeoT2k7vli6SY1TRDw0uNKXCMC9dgiD9SdfALPzqhp9cyO2BrZttuMpcWwmke3//5SDoo2FGn7t/z5xUSD/KskENANT5Sry+5eHZPX91ozZf/qwQ0a4aHYXnjV4vwMlZdjR+lZHHnCwrgFc474WA6SJ92+WotJ3ZZh8zw73rl3rtLSGXYZ5sFmcdqU7eWZeQvdRz/zpJGl4ys2bLbesr10xuYdg/zPiFnt6CuWxX2oC62Tg+qPxy3V7BQT6wXZTXkleZmqQLSINlAiLAaiSq9AO2nv+L9XqrG3r9LiQ69lhb/HeabveUv0rtLayE7bkJCtkEzxnC/dgN1MhJWIfB75c1CA7R25+5HXroi7SRyMYGfOnrharRFxHZMbDxjHE9sy4KnDxZ2274Y+B7//nrB/iG/hveMFEGvv61dq0Sa7SlBgrRgIottwA56QnkpIl9Oa21p4J5kIHAzimWAQ/slpFeqmv5ZrhPdrcpHRl4gRlg3gSwu4XSxOZbNg0Vdc8ee1WjPs9Izttffn1ag+0rYgzTltR59BUAI3YDcTYSXikU7kg6ABJsFIE7yqp78UJdBFj5ZrUaxfCO92jDoK72+ryLIpG8QnEcbVIt6ELfUCmEP84+1arSvw8n6i3mEBssMnHOkZONLEIKIKGoCor8yu05IFL23bRdwBX/tNN83SoIn0CzoK74ncO9mA5IhEEDh6PHK5sxmwTZsQ1cIqBY3Km7avEK21G77e9UwQX32BZPG2lTubhiXjG23i8AE5nrPWIdtHXo0pw2ki84aKgDjxADEYi4Xa5lseZFkcnSSnLO/FA4wFLNJNRxWql8Ws2K1YL7Tuc3/WSQ3s3iHusQgt06//Of8sFh/tJS5i2LtGeuKrowkL4qqHpyc9e7yARhfnC7ynOhdmaHYn3jIJCWIDLI5sedarOJhFyi6FucWk87to53G3GsvwdjIe6EPwKgsioD/BTdEWXCE9B73Fq5oiH9hWkKznMInAgTseihbeVjS6d4mhFSa1xn4n/Bmb3zkikbFFPLM4vFB6qDuWnexS943rGtOEwKbt5hnGYoREgqCOIAHEF2JHRA5bcIX0lTUiHvousZEPbBse+hzUjQgJl5/ifzJeFhEmteOPLdLsgttJp205loop+sTiYJG4BRYlMnp2J/wDvNrhRKt3gpgjL5QzQtAAAQaR4Gz5eldIX9uwVSsm/JAj+zlwbLuXHVHo2a4mVlvY3s/5aSf18PiuGrFAMDeQ4/LQXygaXDcAOwPP/dRvumuTjHhC3kWrF5ucsbKLuO1/tDL9uAcriP8CkTlswJVGdq14wH8i/FOQ+HkoKZZ9BGBKJECBsd/55M99NbsDolF3LGCskN4kAqifdrDgp07snRDqHt7uC8VVMGhx9BGqEOenwlIz64rSE2+GSLpBAiQsY0cX6kzTNu3iXIL7nldZPnVMua67uvvszqpQpDKxJDxQIbfiShZJrIMs9XYXrevfruyqD6s2fXd6BpaA8bCFvuKoM/7ggkBRewgLXNf8b+00s9ZID7LggQ7/FBSA0qF82XtIrvVB8XmxsR8vqdknPrnOs7KG/nOwu18OiwdL5DMQMBJAhdzY0lNONO0tZwo+x4/MVw9d0S2qX0GkNpnrKJ2uE20tdjofWlrNYra879COgdPToC2e981Gq0wl1kjPQGHHHiR+HknFfiJZGbxDRzOPUb9RrL38Qa0aKBQS0+Rbp6yLy0gNHpdgR9eNKdaUz+mQCxX6QX+79pnGD+yVrfUg4ewTvDSLiFAl159p56Btygz/xqCO5NZvCSEjhMvjU+012UMH5qq9pO/RFnt4fYn+jWJypqWNkTXSrxRrtgWi+QoKPw9CwALsvlOOtdPEmx/X6IM4iMMg4XrHxMcTdYBD7lg55D5/Y3eR6WdqDahBVrShQ0XL69aW/6DhBWp3UbIRLImy+MwX5/Ifimb1GakHF794Dqsg/KX3rtG+t4wDhOyjrxrE59TO/Q5HnB9JDP4gAXhpGyHBGul1KI4EHci8Dh4KmP2HxY4wQPkgNg4WAAPEhwnH6Zrs5vEgPmVC9V+5rZe687hiLSvngIk2FP7fLXBo5j3ep53w7lMu7KKevNF7KDvTBsyDj75hpXY4N+bS1MEuQhQH27MOLCUxRs0CN+W36rdIyT76PHaolYz169c35uXF9irCmQLKCKIEAWAlDtg1V90vfK0NEH/mTPH6d/J6oizkz3Mn90qKBMSmvYl4hlg6R16/Sg2WHQNEDwWDvA9cVma9M51yy0rXAbZC6/T7fxYu8XyIUhcNRGQZ7fb394LGz9OyA4blft/AKP9BvYjfbqIMhD8KxRssuwYUkMXBob0tAf0ncsIpE9eoIf1aIjx9ZRGg7/hofr11/0fIeSpIgBHkDGl/LAhb786PcwCEvwynDs5PJ+cqps2j9yqwqmxtxWZtfRnNIYS+wdte9+gGhYSnrSA+CP/wS+Xqt0+Va31GtAFD30FYDTTvNjBqj/y4DeNs6rF9BuL1iSSliDV3Vkg/58s67UBgW3min2Mr7iF8LodIG/hgbp3O0RTrWRAfVofY9w8+Xx5z8GKV19r3mfzb/rpOp5jn8B6LaHF/pqjzsaS1Ac4xCBMMa2TzTqKfQXRJ8K1oYIX08USIjVa513uIKg+Qg5QtPD29Wu0gvqc2YA53971apW55dJ3NK4F95nxxeXzm/VptOhEL4U0niAhMMjdbQHTJfAQF6CcsWjSwwgQyPwTlAEtnyKw3ei87qQ3PT/20wVX7GThYoUkSSo/DWqztkjqCBLA0OLXj+BGNpXNqs+73tGqnW47XDpNIcoQbDAqw80yXcH/RICbSI8qrqLPj8aJV5Os94edJiWMDOlpwkTeJE87VH8uCh2J6dbWzaaOfzyCDP3XCCkkpH59TO+XYwB5ihUr+3KAAbBw7T7T5ion0RIYlPbnt9pjozsM/ErzTlp8nKBVbtleA8s38X4MaN3mNjl/ptZxkvIcpwVUPrI0YvNa2DZ2EL37vs9jybsrboYfE9HdpRWrbDi/PgadE6tARtSMUII9EX6ULl28KlOMALnBoJm1hlmzx8frzwtpB8UEoWwpo2z6/nmNHu/KhdeoLyRfglqUJbwPZAT9eYEfpUaTtKal9gnSYJVJHtLAgMUng0tXBinyAqHJXUe3bwhIxnTCHU9t3nJ4DkQincfJvVzndtr4Gv83WG/7hulegrPPuWavDsvhx9oJFwA/aFob2ywnUYRavMyJ2RIKoJBN+frkgTbyUMlLlXq7jITWod9RmNxdrTAugQn6wZyA+WfUISY29jVtglzhSAibRh1DALHagBG59e1Jva7Yt9P2HXy7flrw6Jg0LfS3i/4wVLC0L0cbGp1+3Dvow68eCi9golze+E3k9xMCJDY46SsvF73DRmk2BinwAgnTrYiefx+nF722X88GqKFQk0twwAbBHEBBMIUI/HJgBzg22Lm+h9RACI5K2OfQ52/8ZMz4LLeX1/XsGK1cXSkbCTi5e6ewsHhXpCaITuMgHYjdRWmxH6Vesb+q0H1TeIMxS4ReH72InOTLvQDHvfnqDZo8isVpcJ/Lw5GfWWxt9mfIP3SdP0S6/wIzX2srILEJoXV1kEUOMggTfiVWqmf/wdkVEemTT8EXhW3F4Aa3x29ZxuqpmezYinraiqcW89xd75ilMf22BcSSs9XMza2MeMKFQz4oy6eV33ZlBHLJXofZdpX1+2rjX1tshfXGB7Ly2Rly2AxfHcyxadAdE7nCCiD6y2F8guQmSp5TpQJEEQ7KBDdVb4ooJqRFdSBjIhBkz5r1ERkBiYQuECiTpGAgdC5gsDpE3P1mueM8WaA85oWgfwa44d/Ch/fFAtMNgaLm2RCj0nUT/D95+I4IHJ3YxIp+woWpLICMfuBmsTfZ4o4uFj0UkioQI5+cDxSLxNycXqX13y1M9umS5QnbTTgKywnoMybM7h4D4i8S4L5rLoCk79Bs3PlwYjzuoSN0v7BQBV4k/SfI3ADEkCwow7Iv+EeEP42C7aGyJUISqEnIZIjNv8Ua1pnyzOBltL+2LiPTrJEU9kQ+GRMnYnZDWJrFQkBztHaprvJ7K5DNIDmWHSNAoWBg3FD1SszsXdVB7il6BTIE2yAaiHT44x7UzuamfNvPBu8qkIkVpNW1WjcKchNDWtMX0O9IZw5SXqt+M9TuLNqkqB4vRiEj/hWhigxb5wO0EZG+/wPXrIBURsdj+ftArS/XrmqXwSR26U0dfc8qathKmb4SUTWBZG5Ge0UPYxr409UT7xl3RuCziOfXJgjr1uYTMWCZntv8JC4uXF+MBdbRZmOF11QfIDCG0beAvETzCo945Ij2HLzRyforBQhsT7/+2g2yoGIc7Djb0Zy/x7cT5gfyp/brlqIF9hKrmxua3vbaZMH27Sji8/xOHdBukh60aumPi2oQ5MB8AvcG3yyUgr0StW7Bkk5r5ZYP28cU8F9GqyWkbq++bNsd3dohVvtf7LGQshGH5QndtR6TfLIf2GZ9LuA/hA4MINfV28jHivOMGSFQuvKx27pujyoRd88qfexkLBrt/L4ctJ0JhIFyy5N6E/uNz0PBG7TiyYq3ItldvVG9LpkIyBtrCxoAiPTvX+2KGAj7nhKgSshodRE3LRCEFssTKj2o7KL4+l5EhE2QnSiO95BLxroJVSCQ1j9W/PsJCkfaeM1KkzNycL4g2ceDAbJ36M1aZft5nYaK55MMugAj06tO3qqxtB99YdRHJWsm8BA1g1ZC81QqRzM/9XpAgl1sCFnZY2gURUF7aRqhFosFEtibCM4ZQ03fv7aNeurxMRzYAwWG5Qr+JePDS1WVJC88XbW7NIrDNR4toc5tSOVqxrXNPFjShX0LBkb2ZMVecDwKI9CBJuYjSIikdQjsWxP/Jvs0HJ23CkWDisXvXHIUjBuLGVAXMMtDI9pCPl4NwIvtNICv4+tDxdUR6Lx43iWw4ZYPwxI68RliWw/ax14gmul1eymcCYL0wf91tkKSkT+BB2kv73L5z1L6F+pVXP6mzFs26rcPr8/D1/96mqzBltEB6DKOWCg9UYqlMMQUl6hsRI2I8zCFuPLLYc2qdRLXPa7mwDkaM6LWMoLzHOYB8XSVF5TouJqwOyjAjPWvNdrLzLKjYqjWzhl1rgfSzJEJUsuTzUG+UJHwDIDbsi8JkQv5XskpH7pClDpQgqVD34bvYO4PrAtN/kjYCnAOI4b//0Hz13rxa9a6wyDjeLBVzCOZRe1fJYdfw/oiPjQg30SwR+PzpV/XNwW5bSG8QVyWSnwfBUXEDaEGJ2dhL7FqKhDKgeu/XvUl+TkhoszKTNnMRKjKO4Yi+iKFDiEOM2YYM+F7mHeHVhF3GcnP6nGq1cMlmHRV5z8F5ijEzrBJImGygTqMHuPDY72vHrwEzbxRFdZLYg90b56TZoihbKhKrTawLQcxEIT8LbMantd8j/fdNa/oPewX4oEQACE/HjhmRr045tDhwIfRAJMRbZFxp2CiaWzHFgEJguMS4fIYBk0hdDNViN7pkVIG6/qzSpC5QkOgysb2fKgpEI2UrbyjXU4aYeW/RAA/um60VcD27ZMuiyFTkpy3Ob5JkJXtBEPCVT7hmlAbDTpOy8/G3qvViSARLxI6CCYaB7dgbBhOn2kSAQfgrTijZ7iSdiLpsymSwMaoDsZEzI3ZDCrFYKBCuciQchtVia4RSNDt/hBX+x+k1ag/R8IZKB8Ie8f3ni29Xq6lfb9xOj9J7Wy2MM+G3XxCzByQqAE4qO4upxQDxZe0jXk7spsity4o76N01mcq6phZ9/xeR8riTOusFesffKxJ2EMbmCPxm8W2H9GzbpB1PxDYDSzNarBVRCScbYE+IeoVTDObGGsElAfQKCT/OYBAug/MEyE3f2em0Z5NFQ4nMMEMC24arui1e9fQIfSGuy0Cp1wloP5SNT+hCIDozPLbxj6B/ZfLp2TlLlQlbWVqSqbqLR1pvUaTtPwyFXmJ2e6c2cw2FGKz1vz6tkznwt27GBLwmskdLpBfqAb+ViC0Gng0blGRvrQwobMtTb1Rp0RVOw1BD4/dLuzC3iMfkgryvyQTMK9yk3GTSQaRcUcWH9nOVLPbv1myfsgZ7/L13zU860oMX4Mebc6NHJ/M6zsw5NkaH7iPcqTFDgILga+lmMN00QFNQj6nijWnsTLGjgApfLakzkW9jLmGTOpIDMS51D4n3kt+m0oh3R4p0KVmLmXp+JrZEL0hWmCFxKhDNrmDmkSQSN0vZtgIE5qWX7Az/Fo3nH56v1MSS88RR++Zpyu1lTOAI/Kb09A8p4ZLViAVDwvQsEifaNWJiim15IgC1+2xB2l8cEr10Fh9eWwQRfU5iUP7xPQk6JNdgIwx1HjVBwnBUifREnDxIaQ9fGAt27ttRHT4oR5Fd2q+dDOpBzBecTJIJ1Ldn90pf+V92eJxmiFhmA3gkEWfnEzFR7iRzQ8RjAEPFKRirbVqnjhUjv1MPKVCk6ykr4RwRmW1h3v/z1feHTZs2uHkGvMaUGr6+mafnQLdSvEyMd42bAm2ehUJ/KCleUME78b8M4jdygHxP+FXCRRM9l8gDJlJAaB2aWm/Lk4xewThLhD4T/j87wqhheRIMqSr8luffxHO/dnSxttr0XIiHFzl4nrhfgfrdi5WOSSY8FKkVgAcNzbXO0ohnFjBEfBJCAYIypFMTcuPo/sI99Xp3PVocc9C1DBJT7nAiBfuJHzEWkX4RpNA28T94vV7Oc4hOm1uMBCOR4fvYSok89adXKvWBkogCOBRjMYkvLmLB6SJ1wKEBqmHDhrB7fDCvwXorPWLfAvXaJ7XbpZ4JHxw3vzkM4nziZRvHmWPFuk1qgJgd27Booe2iPuqlfj+AHatvqbCAe9t5i0GVP/miQXMGRsHk1A7uDenYQZ+hHnyzRr0iiTFIjIfTDmFcupdmqVXrRBwsWQGnzanTz4EniQIkkxUS/LcZ6amIzieyUlYxrmqPyABgp1Egg0JDkJ5Qr5Ga2HaaLQsFB07UxjEi2rsgF9Ts/97e3uou2juR7rHgDpPt+0c72bEDoeVcL2ksaTd9Zwxo0zVnlIY+EvN/6gWB/EiJBB89UpRbTnJ0p4bACiP3tmWFmVuzQGnvlk+bfDXypO8QQsxMOGAnEvfoBxKcTZu2quZoCJB/KgXxEwnUQQdpANIDvvkNVXDbaRYRCiPc32zhgmM7+8bCDe7vXmsMezfp39W67xAAxuCWf1Zpts+2DzzHYZP64wUz3+dLJnBbmC2pK8nQ7YUVYZ6NBIn+U4b5bVu/1+dYZNnZmUpQsAk4aCC3TSa4RXKntsEKPf1OjT6gON0PvwaykIeVEBleAUTBv9ZYF9qWg0KMNDjGkYT+8+E317nvBqi/v2hgDeK6edc8S1ql35zcScuvzbVo3xwESXKBQVm84Mf8u2kDjv8o5JqxvJ+EXEZRgWgnlYCBe2fxZkWKHVvApn3s3vmeU73DDuwuvrYoOtzAn55rSkcfPtnmt7lvWyb1jxQWh/Z4AbLxHS6eWm60ySgw0QZ7ofJe2ujXO4xRTxEA4BPdjPScqPt372DNp/nVGD/KGSw7FAdkpAC2cM3pnfXhDd7cLcCDHnegO83yHGEJ3pGDeiTpGNe5z3NuABsm2uMWEFHCVvz+wujpJ0PL5QD7h2crImqDQ58N4v/YIyE2bUZ6Gnn0foUpt4JpN5SSrHKIvWwBKnn5iSV6kbthD0AW4uPbHJxNW1iMr7xfrZaL6YOh6uae+eY693nOzeLlcE57aJcbYKFgB+VGckTWxZnL/Ql97qatfjzLzoT0Dmg+yPKD0zsaNba9VAPk+YTPc4MwyPcvPrpI50+17S8O8xf+3J1rHzYfL34YO+4N0iue43k3QHtoly0gFj5ndIErtoay9Xkkyec+2z5Few58HiVac7PAt6P0vGgycLulHNEqTdY9qOUVf1zjqroLRZpzgSCADZvDjjBQFhdnAltgET78T9GeWrBRtJ/neN7N4qU9tMtmx9JZtUVRNG5MF9su6OeuvG+NNlGJtFO5KiyJD4PHSIwmXtq1udYWSM+dp69rSj1vM4jNJQXgHzr3kWh9X/3Andb1WpGRI3OHAkYDJB2XH+eOys/6vE5NkUBPtmI5nuN53nMDtIv2RQMQfn85+N4wtjSqSUB4GaT2QXHI+KYSgPCclZ65sft2zXZEetgcxFiceFMN8ZsoZZW1CJPRQMM58ZKu6tg98qIiPgfmn1hmKTejfONj6zUVNr9tvqHatz6x3ubR5mdoF+2LBCxoorsRdTncDCDSO1xHjPr41CqrnSpaOcm+Z/D2t2M7NbM1pg3C05t/t//GPua0g5q2fVPA9k8E8xfUiNxQU/5Z4YpFAPEnnFuqThMrQyeKD5U8ZkSeNpyy7TmKKAI8uRXv8TwHRt63BfQstI92hgP9OVy0vndcUOoK4ZHW4NVEdsVUovLgK6L38w4r0iYq4eMRkTSABGgv2Q5t+NHwglvzNyzCU+/Kliw+pG4ACojrHzx+KOIziPCymBBHsxQMrQueHDEqiicvYMSwTvHVncqjXbQPS9RQIoW58Bjh4W85p4trvQKONw9Ns4ut79Sm1roGwh8sY3Huzzs52kVFRHoajPaSwcIYKdUOtlCmEyavd8XmmD7fdE6Zuv3UEr3YDdVgEIfvYm9CPPHJddquxOvBj/ewSyEdjy3QvgN2zW2OMAHVv+moQs26uVWksdjOumuN5om99sG23X4+B5726pypd+1IBCoq0tMYBusuyXJhPI78bGCiyyJj30+uXOGKzTFtInvgY1d0lYgNGTri8V4SM96WF8aCMpoiytQR69sorCjPBmgf7dQRmmW3u+eCztqQjV3bDcDWHHfjcv1KKiG82eH+PL5b1LnqcPnlV9yclxfdUrBnmdjlCAI9N6tOFafQCZ4ApCzWj+fXqwN3zxPWJOYa3w43+nTLVqN+lKcKMkRdLxHJSi1YFRDmL5LicuaX8avqcRVdVy1JI+Tgte/QPNVB+hMLCvMyVYa04eqThTUdlh/r8Rb3YctueGit+ujrTao4itNHixcDcGGF7E73SQqiET+M3u+MZcuWN3bpss0jI0bD73h8nZr8r+pmM9EYjwfmNmeSo0Uyc/XpXaJSgGgNBpltKCZmBOfdvUbz1X5QSXOeeOjXXa1Mf2knYNPW8P5qncJL5er+f1Wl1MGVfnAGu/aYYh1ZIbxf4b9dkT4OthyKQg954QUG8Tf8PV72pLV0o/QJ7YsNElH2c+9UawmKHwhP/ZQDb45ju03baadNW0P7xv8sFsw4UvHgCj4idePgagOukJ6D7SUndFLDyKFkoWG0aUCynkEM+Iykq7ztr+v0BCeiXswHsJW3VUTZtoHy8BV2a55gWz7PPSJZ0Cc80+Tc7deCdVO/12fBw1EiYbx0TCdryZorpKdh2C/cfGYX1VUUIebg4LXByX4P5Jn0Vo066aYVviM+lPKy+9fq4FB+jwvlkaEEtsmwL36O3S2PrFXjn6hIObaVcQEPrzjJ3h+AcctsVC2VGbEGlGi7Fx9dnHLUnn5hmIbXz1m3r3Itzow2LsS5PEoSK8P+4dgBsO3CmkCNEKXFWgzc5zme5z3DRlLeIbvlKpyrqccvQNuK6+Idr1ZvFy3Nr/ITXQ7jdM0vSqzOOqFtyVi6bFljaRd3xkemAA62uLrZOHGbd4LyzYDh/UQMHT9DZkOJ8SH935IGHUmNBBKrQqKpIXtfSCbzUFW4RPNFvGrSeuLs0F1kzYTfw4GahHCEwvbCq0cab5Ks3f10uXpDgiv5zY5FqtPP63i+3Xl8idXBNbzeuJCeg9XFk1brBL3G8Te8giD/BvHZHs8+VDypRC6fCGCMCApL3EyyIpKJzyQmq5MgsUCeBFcl63a2fEi2TO7ZRObJwoDs3n+USziUzSknpWG82AHZUbGX8kIIMubOnde4006DKMsTQDHOnrg6ZjgIT4Un4SVYCgzrdhNK+rebeiShxtatgt3ZRINwaxPUui1vqh22D6eZyZd1dW1WYdqfmRFnVjgOtpPFcg+xYCye1VQapG8kFUw+gYl6nrxImyUn4rDYmn2mPxCnH49bqvUsaHpTEeE57/SQM9mEs0s9IzzzkJnpQ4RYTJFxPUtlYNESWeGEe9apSU+tT4iUpDXGB4R/clqFOuCqFXo3hg1NJZGkGTMIKguVg6sbV03zfuh33JTeFIYp8tjRhVrqYK6l2jfIQAjsfAk064VXDGp/yZpCdhkWdqoCIRTPObzQKoRjrD5mZmS6FtU7lgmSoBHDFBm+K5UBiUlbAeaF/thGIwtiv83BlZxWfoAwN/6tfkw58cyBYsJ/pSIQJYDkDW0FYG/oj5cwIUEYAyRssGS3nFvm2+7rC08fOjiYt75yaw89yKl4sCVTBwnfosHrs6q1V5ONLUy0cvy4R4x4PpEASk9/TAaSSM8F8brBn+cn9LCOmW/Tj6x4pTdOlSDR+dPFXdT4P+MA4T5GpVOZybjGIGNXRFpIJ4BqEjuffi0UHrPToxu0Xy1JCIh/j3y9WJKaJeI8QN0sssraLWr5ms3qbZG1Py3eYQskkQax+2fe2zti3fRnmDibEzczVQ6xzAWi5AfGlcUlqXGax4yFCxc29urVy+leXNeYpAefb7LaSxXxGCwZfsFOEYRBuKffrFCPvl6tPZpMnzi/LJUtGNsYTAVMVr/S4ixtf+9F0WQWFwqtKllkpPFcJoj+uZhPEJUAbSSx+zmYGlYSbS5KtpNGlzgaXhn5vGl3XJObhJdhay77eZHOTes3EclY+M03jb169kxIN3A5u05sO8h2lyqSg0iZTQgrcvlDG/SBMBLiMFF4LQGIP7GZwaSgs7AX5MlFKlQk5gYAeaMMkFsVYNFtkmQcJINbL1pHMsMskfjtoYngDKKbd823OUMRnNYpSQV2Nodf3eQNZd4J6jfjSEgW+Hgse/2GLBHf+F1mc3k0mAgDH8lgs10FeWuFek75pbOTCQjz6gdNSQOiLV7umfv0l1Q/fEJdLU0KIQYJJRHANg6EPsdYIXHhGWxjYtnHsBBBltfFu20fSZQW7trIb3QpY/+yPtC2UixeTEMShfCMs8jp+UocMNgcRBbI5IMIQQQGmtxRkaL3LhYDMvIoxUK80L6BtCAiHxaCQVxzDWQ2RMBcC32O/7lungktO9L/vPOQhAVcsdY5oiv9o59mV4hUTmteX7hmi3ry+u4JofCmX4kj86YG+ca5/KXfdHUVMzLk9YT+y0JEnPfolU1R3cIrg7/GGwqe3U8wyGy+/Sqbdv7931URNcovTOgZSMka84A8/rVbuvt+cA0fW980suEFh/8m3iI+jGzBQQJipFw3pjhigjHs11+aVdvMtgSp7U5tgdrjIRZJnIp0if7S7yDtvLTnRmnXfuIAn2gQOX1SiL3uxxlHlmgH7aAgPpIXDkzHHlgcUcw49+t6LZ70myInamJpJ7ltP5Ksi06AJAQJD47yIFoQAHygPSdLu/yW1Dj1L2mUnso52OLLiPNGa/OVUDks9k4+pCgq/3jvcxVqh/zkEQanSXJ7jfY+NjVydDc058ePKtRBkVqb2oMHZCknUkUiJDVOYydBUvzlVZ0qCb0Gf3/DGV1aXS2OxGSExOKP5TVFZm5YhlQC2jtdcrJGA/q9x47eU/dEK9vNPc5Tt5ztLDVzU46bZ321vbGtGFNkom/Fk+zMtq5IzyEZOVISEEcD1PuyGaQs4CEVDeg/49Ba1J75f+hXZS2iCkdrsx/3ksrehDYYBcpNPy1qdn4OvZeM/0mvOLB39ERpz0kWPUxyUxFo94sidYoGfbpmiZLMnVg0Wnm291hknKfwcR013Nnkw7YsL88lXE4frVHjT+6ifR1byxS5YZuPqlMbSR05+5sGndDZ6X7Qr5HKB28wPKYiASYO5PFNNnBwPWYvyYZykl1kPb/b12qUno5wUr9cohGQLCDZEh0S9773WeTt/8W3q9XqitQx0ApHDKQ4RF54bnrkrCyzvmjSMoe/m8jfEDh8LhBotBa0KtLTaQ6242SbQ/WcbInOy2J56EQJsbN5/K3qZjOB1pqceOtF6/sPkdk7pSMiEvKzM2rircLV+8wvYd8vPa4k4QqoaA3LWL16dWNRkbucqNEK9HqPrBtkr+NglSxgEqgPNzTMb2tEvk2qmRdm12mDsVSRzccaL0NdT/5JgZgfd1DTZtWoZ2UxhJpCxCrDj/uMdySDOD/Kty0jY82aNY2FhfbZ8mwL9vLcvRJg9XcvViY1vByHKvwvy7cZfSHjTjURpc1Ywz4uEtaCIFOYJbuxI7IpP9YzmBigcSWbY2tDxtq1axsLCqKL7pLZyIvuWq0pbSoGj0rmOKVSXcbHdfKvne2bkt2XwEmhMUUeMSA76QfbZA98e6kP1oqowqTxDAq0+kE2fCAwRSa+ZGscbMPbkv4d3wjAw2PqQVThcPv++EqO722h9Mk7ONo21URFDnWqsH03/VwwRsBoeb1EFU50D1pVORWtczg84CMZFEvAaG1N32s5AswbWcydXBdbPp3cK4Hj6UO7T3AfTE5bS2Mb2pb0//YjwHwdPzI/YZGg7Vvi/GTgePrQZqKxxeQUhUayNbah7Uj/bz8CIDxRha88xVvOA/uavD8ZaEpPtzgATb64q+6h4RO9dzf9ZiJHgPnB8f33FyYmioFfbQ80pTedJErtvZIfdEHFllYzgzVtSX9HHgHm575Lkm8qHLlFzncCT+lNs/Gxvf+MTmk2xwxIwL5hawih0hqmwm6HIiUovekUvp1j9stPI74ZkIB8c9467cB89bMft74Nl82QpAylpzP4dp5/TIn2sU0fbG2mN/HPoIDCx3XsT53DCSa+Be5rSCmkp3uYInNQSh9q3U+232+YObjjgvjS4fjdrljlpRzS0yGiIj9xVVc1X7LjpaH1RoCodQ+P957wrLVanpJIz2BhqjDp7E5qvoSfTkPyR4Bxv/98f3PwJqsXKYv0DNCZR3RS4w8uSB9sk4Ut2+pBUnPNoQU6aFSSq/alupRGenOwHblzxzTi+4IOsQtBgICP68XHd3aMgx+7hNZ/IqWRnuHjYDtenIwxRTYHq9Yf1rbZAsaXcb7u9M6BMhV2O9opJaeP1Dk0thPPK1ULxCUtjfiRRim+64wr40uibAQJqQyZjeIz2RaAg+3cu3pqf1e24DTy+zOrjCM8PGPK+BKdLtUh8/Mvvkj1PjS3Hwq0cEo/bY5MJAMmCuUJE5deBM3DFPUfM1Zm7AolCwpa8PmP9E15Cm86njV//udq92HDzO+U/9a5bC/tqojr8uoH1erLpZvVig2b1doAsT4syCAuQtoFkhdIqL8d5azUr1sHcQIpjDstfdCQKmvmzA/VmBNPUNnZ0eM6Bq3hsdoDn8+HfFGkzyFDn8ntFOvd9nqfODjZ2RIeRMKg7Ng7J2mhs5M93hl9+w1ovOmmG9Spp5yc7LrT9aVHoFVG4P8Bmm+VHPjkMhEAAAAASUVORK5CYII=;" parent="1" vertex="1">
          <mxGeometry x="1030" y="1195.5" width="112.99" height="110" as="geometry" />
        </mxCell>
        <mxCell id="1-B4D0uf_ZDkLTiQzZ-2-2" value="" style="shape=image;verticalLabelPosition=bottom;labelBackgroundColor=default;verticalAlign=top;aspect=fixed;imageAspect=0;image=data:image/png,iVBORw0KGgoAAAANSUhEUgAAAL0AAAC4CAYAAAC2Gu2DAAABSWlDQ1BJQ0MgUHJvZmlsZQAAKJFjYGASSSwoyGFhYGDIzSspCnJ3UoiIjFJgf8bAxsDMwM+gzaCUmFxc4BgQ4ANUwgCjUcG3awyMIPqyLsgs3tM+L6bYSPybYTpBsFhcXRNTPQrgSkktTgbSf4A4I7mgqISBgTEFyFYuLykAsTuAbJEioKOA7DkgdjqEvQHEToKwj4DVhAQ5A9k3gGyB5IxEoBmML4BsnSQk8XQkNtReEOALcTEyMjZQCE4tykwtJuBgUkFJakUJiHbOL6gsykzPKFFwBIZSqoJnXrKejoKRgZERAwMozCGqPweBw5JRbB9CLH8JA4PFNwYG5okIsaQpDAzb2xgYJG4hxFTmMTDwtzAwbDtUkFiUCHcA4zeW4jRjIwibx56BgfXu//+fNRgY2CcyMPyd+P//78X///9dDDT/NgPDgUoANK1gO5uOnPoAAAA4ZVhJZk1NACoAAAAIAAGHaQAEAAAAAQAAABoAAAAAAAKgAgAEAAAAAQAAAL2gAwAEAAAAAQAAALgAAAAA0VvdnwAAOEdJREFUeAHtnQecVNXVwO8uu8v2BXbpRRBUIkEMNlCjYrDHxIqxixq7mGDX2DAaDQZFEzVGxehnjBp7NKBGFAuighGCYhSV3mF7oe13/ne56zD7Zua+N29m3+zO+f1mZ+eVW88999xTM/r2G9CoBAYM6K/OOON0NebEE1R2djaX0pAegTY5Aln0asCA/urSSy9RPz3qSH6mIYEjsHjVJrV8zWZVWbNFbdrSqLI7ZKiykizVr0e2KuvUIYE1p4s2I6CRHgqfRngzJP5/b9zUqN6eU6Pe+U+9+nblZrW+eotaW7lVbdmqVIdMpYrzM9QOXbNV/+4d1AE/ylejhuf734h0ic0jkHHOuec13j3prjRL0zwk/v7z+qxq9cBLlWrJui2qoq5RdRQyA3UH2Q2A/HWyMIDCjhlq517Z6pdHF6eR3wyQz99ZI0eOSCO8z4MKZX9/Xp268bH16us1W1RpXobKzc5QJfLtBCwAkN3A3EUb1ZF3rlEje3VQt59Tqobvkqty5P00+DMCGTM//LBx92HD/CmtnZcCvz5vYb2674VK9c6iTWpwSYftKLrb4amXxbOweqs6fFCOGndCJzV0x45pvt/tIDo8n1FRUdGYk5PjcCt9yXYEQPYP5tapp6dXq6lfb1QDCzM1Zbd9P9ZzGvlrGtWxu3ZUpx5SoIYOzFX9uqclbLHGLdL9NNJHGhmL6yD7qx9Uq3fnNqjpCxqa2RiLVz09AvKvk3PB4UNz1QG7dVRH71+UpvweRjKjsrKyMS2Xdzdy5VVb1YMvbFBvz6tXS+WAulkOoqE8ubvS3D9d3dCosuQc0Ke0gzpIFsC4MV1Ufm6a57cdyTSltx0pec4g+yNv1mhePU8Ol6FSGBdFxf0oEh/k/ACL7qIjitS5P++URn6LkU1T+hiDVFvfqJat2aSem16lJv+rWj/duzhE3hjj/WTcZgGslAMvcNkRher4UUVqB1F2pSU+zqOfpvTO46JA9gXfNajXP6pRUPZq4aeDhuxOTV8mSq8SEX+edXCBOmrfQrXLDjlp5A8bqDTShw2IkbHP+LRWvfJRnQKJeog0prXYmLDmWf00lH9Q1w7qqD3z1EGi4R3xwzyrd9vDQ2mkD5lltKcvvlur5i3eqFaWb9WH01RC9pCu6H9Bfg69PTplqqH9ctSJBxemtbwyMmmkl0GY93WD+t2TGxSaUCDcTEBfTOE/5tBLv37QJ1tde2pnNXRQxxTuUXxNb7dIjyTm06/q1a1PrFczF21WA4UaYirQ1kErumQXO3Bgtrr5zC5qt0G57U7i0+6Qfm35FjXnyzptBDZ1gWhP2wmyhy9mg/zHDhM5//ElalCfnHaj6Go3SG9MBWZ8Vq9emF2nJRzJVCiFI11QfsPzV8jn2D3y1AGyAEbvVdDmkb/NIz1szOOvVagPxUwAnj3Z2tOgIHesdhgt724i4vyxmDicPLpEdSoKlj4iVh9s77dZpEfO/vBL5eq1T2qbTQVaU4NqOyGt+RwHXuz6MXHoVpKpTjygQJ15RNvT8rY5pIdn/9u0SnXfq1Uaf2BhUlns2FqLwIg7qf/So4rUKYcVtxm2p00gPQqlles3a4vH8U9VqE4imksF7WlrIbTbelHQicBHTfpFsdby9uiSldJa3pRH+jkL6tV7n9Wpx9+q1trTNLK7RWn750F+tLwn7leg9h+Wp4YPzrV/OUBPpizSf/jfOvXK+zVqpiD9knWprz0NEE5EbYphe/qWZqoDf5irDtunIOVMHFIO6dGePvBiRUqbCoA4C4RqKmHLlCjEBovVZqqdOwzyY+IwfECOOvfokpTR8qYM0sPG3PV0ufp44UbHiAJRyVOAbiIa7NU5U11+YonauW9H9b8lDeoPz1ao5RuadqsANdWqKSA/dv0Nm5Xaf3BHNX6M+PIG3MQh0EiPjP2bZRvVrY+vV1PnNaiBwk+msqkAIUBAjCnXdW+BUKfcslLN+XZjUj2wWjQizgtayyvRH44Vy84rTuqkduydE0hZfyCR3kQVePWDOjXlo1q1Q35mSiMDuARFhIV5867ejoiAqHX/Xy1L+X7SV3azRbLAx+6VJ9KePLXPrvmBEnfqCGc0NAjAxL/yXpWaIY7WM//XoJs0pHPbCHUHIpx2YH5E467igkx1mJgBTBMziVQ3j6D9Q+Tzxtx69dZ/69XBP6xTew3OCYwjeyCQHu3pX/9VrqMKtFVTATyv+nWPLN/GtW+gRDarEMeVVEd6Q0BNcCuQf8bn9eqN2fXqkD1y1Uli4tCajuytjvQPSFSBv02vURu2+Xhi853bDkO6oGDLbqPhh0B+2DsIGp9HX69Wp4wqUBce29msj6R+J92iiMnlgDrln+Uq77jv1IRnKlWdbP0cUPmkmujOzWxVScAm+h8JVq/fogplDNoiMK9mjquF32femX/wAHyINi5+j0dSKf1XSzaK9rRW3ftSlZZTDxFpTHsBkHnJapHrRYDNW5RaJWLLtrzoTdfpI5rz3nLhoicq1J9eqVIXH10kWt78pERxSArSo1CaPrtWvfhhjfpi5RbtaD1ElBrtCYhWjO8tyJ3jwL5B6biPJWh7AvAA1ue6JyvUD/5drY4ZUaBG7ZGfUFl/QkWWxuIR897Plm5OuagCfiPffLHaWvFwX0eRJVt8zzMXq/a0+4WPL8hP/J5hfbLUkXvmJ8yyM2GUHln7NQ+ua9agpg3BZIprtwqld+bp15RHZn3CkaOt/jZsD6ESMQ3H8eeOC0p9D1abEB4D3v24G5s0jJzcU1mL6iuCyVh8vbQp4kJ4uUslJY9KGAkKry3Yv8EX8AaTk1NvW6UgoH6C70iPzP38Sau1Vq6tyJt9G/CMDLWu0pmif7d8o/YD8K2uNlAQiE/8ofPuWq0jzvnVJd+R/t5n1uvDahrhW04RZ3fEkk6A3UoaWo4AiP/O4s3a9bPlXW9XfEV62JrH3qpJey1FmYtIyN2WZfRRhsPqFhKeh6ZV+cbm+Ir0f3u9UjsVW/WknT60yZmlVxuduZ52Okotu00UC3yf/QDfkB6R23/k4JGGyCNQLpKbbl2cFXLdJYfsUtFMp8F5BIjQMPfbTb5obn1D+gWLGiRl5FYdB9K52e37KjLoPXtkqcNHFDoOBNEGjKLG8YF2fhGbrJUi1v3vwibr23iGwzek/27FJrW6QmY2DY4jgNJlwlldHBVTvEC28InnlzYnV3AspB1fRIZfWdsonmbxcxO+SYZBelzG2qOFZCguQtEJmMS3ZlcaG1WfXLEzEVuTsmJn1sa8z31yzuqQG8IKEcoEmx1MGNK6jibnlEjSLzOGNt++ID3mBotXb2kXxlJOg4pEhqx/5cKT95EEDnsNzFG7DchW/Xtmix9sjsrOEgWdOFX07upgdBNS4EAJovrCLT1UvZRTU79VfSGZUL5etlnNFtslxHZq2wJCHNweDNNChqb5X4z20AXFY4/vC9KvWLtZfSNas/ZkLBWK6CN3yFLnHdZkKAXiAllC1N3mfGIid5JFYoDsIRiiYaTGN+cmwp48N7NWLRKTBnaQ9rQAOMx+LRwFOcBCx8mMl+23LwZnZPC4+E/r2/QEwK6YbH6dhZr3Lc1SP9s3X/3sx0VxUR3biQp/Dp0Iyd9I67lWwongjtgeYnVCbO67pCyujCq+UPplYjeCOxzas7YIRDGAryaiL2wL2fvioTR+jBH1X3NGqbpGCoPovCFuhpgmL1y1pVXOABAFINFsF2zkqnXxKTXiRnrk85+L/JSMdokCw0pQB4PLAktG8jOoJ7Hbx+ydp0ZKNK99d8vz3eLPjzE7dJ9CxYfYQLO+qFOvf1ynPpQ5ScYYmbkxVrQcwjmMJ+rgzcH+S1nc8fD1cSN9Ze0WTWHgtxIBIB7Bke48t0T17NJ0EERsdeczFQkzamNhLajYog4flKPGnSDBi3bsGKgQFpHGmdiSfEbvWaA91O78R6VetAYhI73n9ToIju37pBNkbkqb5mbFuk3qjr+XJyx4FTsuStBaOejn50aXhkXqV9w8Pbzlbles0IqVSJV4vW746Pcm92kh30ZidNptK7Vzil+TSn3I09lRbj61k1YkpXJiAkxy73umXP3x3Ro1UM4hflLf+Ru2qLF756sJ55a2IAjs/vtftjRhCetYbDN+39Mzixk3fZ4tW2qiAGr7+FXdWiA89aHMef7WXpr1gOeOF9imgbMPKlAf3tdH/eKQYsd6460nme/3656tJl7aVX10uyCIaIPZNVnY8QDvM943/bRI3XNZ1xYIT9kQCg6bOl5nPJVFeBdzjm/FFNsrZDaK7DcemC3eLTsk6ACLSK4sSrAnRHw3jC1Vh+yWqyfUaz9Ahj6lHYSF6qxuO78s5ZE9fByILfnC7b3URUcU6YMm/fUKKN7G7JevLpDwHdFEsgN7R9dJeK2f98CLmRJEyivEzdNPl8pbUz4Pxf+1xE0sr1mvY6q42cKhWkzi0ZJk7FIJPAplbMsw7qTOanD/bPXY1GrtleRWxg+FP/JHuer8Y2Lno2rY6H1hxZoD2v1OHEgfF3sDXz1/+eaEialQ489bGHtFI77Dl5I8SbZUzGzzl/28SN3yy7KEIDznHcSJBLSaPqc21lzq+zxHLBi+/XaTowKkPIwV1Np2rHgPPprgs+ysNsThzU9qVKICXiAWJfcvEhwvEBeln/eNWLwliLWhM8Rt/82UcgkCWhSzb0zEY9d01765UKRYOgMm/KFflan9huZF3aZjVhzyAFrTt+fUqHf+U68+l0he7CI1Us/XEsn39lNLlBqeH/K0879oXQmERMaPAqFoXQo7aN3APqKdHWXxvnOp219lrG46u1Rhznz185UxhRAg/ChB+IkXlTny8NuXrhTEcNILVQl3JlogZhpesqHEhfRvftwUUTi80379ZkVzwDz410vV8xN6xeS1mcypd/ZSv/z9KvVfCTnihPhGrjzrnl5WFCtWX0D0OV/Wqz+/XCnhxCX4qsiRaXc4y5fX0W5T7SxIDhD1jUhgRAYgFB4eaUZn4EcCBPhx2J2BfbPUCfesU4NLOjju2CA8OWZvtzzrEOPojDtXawVZrLGL5z42TqRd8oL0djMRoXXT5tS1mNwIj3q+DI+OyfKo8cskkVqVDgEXrTB4/L9c1V0dI2GiQXCoPh8jdeDAOu+BPnEhPIgO6wIbMvz8JWrUjat0lGVEpyw0wyuD/HxYCG7APM+79J8PZVI+UY33vmqFJgR/f6MybhaIXfS1a7rpdjJe5sOYAdceU6zuuqRrTIIDdWc8jpuwSptruDlbuRkb8yzjQfAwL+CZ0iOLtWEjvDQq/B0GEKQ99771IqKsU8ccWBh1qwfxb7ugTO3xdpXW3lHem4Is/YVlmBxBzBZeZ6TfJlrblDertUwfrWesAE0oVIoK7BEfZI8ETDb1baiW+O8Pb1Aje1Wq039SqEPieTWNgG2aeL5SNz62XrNUBw3NVfmyM3Ho5QwQDeCrp8+pVk++UaOmiyQvGVpg2sMYkWsMAhRNiuTUds9I/+lX9Y7boVMlflyjk1C61z4l7HODhH+rVaccWhxRQcFAIGs3cJgkZiuVLdzmEGbeCf2GkuGjGRqtzVYpxqLF88cGWBw22m3GA08rkJ+QeKMkDDYGcHhmeVGogfiTJfkFZtC26XMwe3jqjSr1opg9sLBtx8NmHGyeYQzwpHLL4nhG+lmCRK0BsA9Q/f97p1YyCzaosw4t2g65I7UJM12vAFv18D+r1Fcrmwyd3EwubWVysrPljwU0hSpv6iPvxQKeoT2k7vli6SY1TRDw0uNKXCMC9dgiD9SdfALPzqhp9cyO2BrZttuMpcWwmke3//5SDoo2FGn7t/z5xUSD/KskENANT5Sry+5eHZPX91ozZf/qwQ0a4aHYXnjV4vwMlZdjR+lZHHnCwrgFc474WA6SJ92+WotJ3ZZh8zw73rl3rtLSGXYZ5sFmcdqU7eWZeQvdRz/zpJGl4ys2bLbesr10xuYdg/zPiFnt6CuWxX2oC62Tg+qPxy3V7BQT6wXZTXkleZmqQLSINlAiLAaiSq9AO2nv+L9XqrG3r9LiQ69lhb/HeabveUv0rtLayE7bkJCtkEzxnC/dgN1MhJWIfB75c1CA7R25+5HXroi7SRyMYGfOnrharRFxHZMbDxjHE9sy4KnDxZ2274Y+B7//nrB/iG/hveMFEGvv61dq0Sa7SlBgrRgIottwA56QnkpIl9Oa21p4J5kIHAzimWAQ/slpFeqmv5ZrhPdrcpHRl4gRlg3gSwu4XSxOZbNg0Vdc8ee1WjPs9Izttffn1ag+0rYgzTltR59BUAI3YDcTYSXikU7kg6ABJsFIE7yqp78UJdBFj5ZrUaxfCO92jDoK72+ryLIpG8QnEcbVIt6ELfUCmEP84+1arSvw8n6i3mEBssMnHOkZONLEIKIKGoCor8yu05IFL23bRdwBX/tNN83SoIn0CzoK74ncO9mA5IhEEDh6PHK5sxmwTZsQ1cIqBY3Km7avEK21G77e9UwQX32BZPG2lTubhiXjG23i8AE5nrPWIdtHXo0pw2ki84aKgDjxADEYi4Xa5lseZFkcnSSnLO/FA4wFLNJNRxWql8Ws2K1YL7Tuc3/WSQ3s3iHusQgt06//Of8sFh/tJS5i2LtGeuKrowkL4qqHpyc9e7yARhfnC7ynOhdmaHYn3jIJCWIDLI5sedarOJhFyi6FucWk87to53G3GsvwdjIe6EPwKgsioD/BTdEWXCE9B73Fq5oiH9hWkKznMInAgTseihbeVjS6d4mhFSa1xn4n/Bmb3zkikbFFPLM4vFB6qDuWnexS943rGtOEwKbt5hnGYoREgqCOIAHEF2JHRA5bcIX0lTUiHvousZEPbBse+hzUjQgJl5/ifzJeFhEmteOPLdLsgttJp205loop+sTiYJG4BRYlMnp2J/wDvNrhRKt3gpgjL5QzQtAAAQaR4Gz5eldIX9uwVSsm/JAj+zlwbLuXHVHo2a4mVlvY3s/5aSf18PiuGrFAMDeQ4/LQXygaXDcAOwPP/dRvumuTjHhC3kWrF5ucsbKLuO1/tDL9uAcriP8CkTlswJVGdq14wH8i/FOQ+HkoKZZ9BGBKJECBsd/55M99NbsDolF3LGCskN4kAqifdrDgp07snRDqHt7uC8VVMGhx9BGqEOenwlIz64rSE2+GSLpBAiQsY0cX6kzTNu3iXIL7nldZPnVMua67uvvszqpQpDKxJDxQIbfiShZJrIMs9XYXrevfruyqD6s2fXd6BpaA8bCFvuKoM/7ggkBRewgLXNf8b+00s9ZID7LggQ7/FBSA0qF82XtIrvVB8XmxsR8vqdknPrnOs7KG/nOwu18OiwdL5DMQMBJAhdzY0lNONO0tZwo+x4/MVw9d0S2qX0GkNpnrKJ2uE20tdjofWlrNYra879COgdPToC2e981Gq0wl1kjPQGHHHiR+HknFfiJZGbxDRzOPUb9RrL38Qa0aKBQS0+Rbp6yLy0gNHpdgR9eNKdaUz+mQCxX6QX+79pnGD+yVrfUg4ewTvDSLiFAl159p56Btygz/xqCO5NZvCSEjhMvjU+012UMH5qq9pO/RFnt4fYn+jWJypqWNkTXSrxRrtgWi+QoKPw9CwALsvlOOtdPEmx/X6IM4iMMg4XrHxMcTdYBD7lg55D5/Y3eR6WdqDahBVrShQ0XL69aW/6DhBWp3UbIRLImy+MwX5/Ifimb1GakHF794Dqsg/KX3rtG+t4wDhOyjrxrE59TO/Q5HnB9JDP4gAXhpGyHBGul1KI4EHci8Dh4KmP2HxY4wQPkgNg4WAAPEhwnH6Zrs5vEgPmVC9V+5rZe687hiLSvngIk2FP7fLXBo5j3ep53w7lMu7KKevNF7KDvTBsyDj75hpXY4N+bS1MEuQhQH27MOLCUxRs0CN+W36rdIyT76PHaolYz169c35uXF9irCmQLKCKIEAWAlDtg1V90vfK0NEH/mTPH6d/J6oizkz3Mn90qKBMSmvYl4hlg6R16/Sg2WHQNEDwWDvA9cVma9M51yy0rXAbZC6/T7fxYu8XyIUhcNRGQZ7fb394LGz9OyA4blft/AKP9BvYjfbqIMhD8KxRssuwYUkMXBob0tAf0ncsIpE9eoIf1aIjx9ZRGg7/hofr11/0fIeSpIgBHkDGl/LAhb786PcwCEvwynDs5PJ+cqps2j9yqwqmxtxWZtfRnNIYS+wdte9+gGhYSnrSA+CP/wS+Xqt0+Va31GtAFD30FYDTTvNjBqj/y4DeNs6rF9BuL1iSSliDV3Vkg/58s67UBgW3min2Mr7iF8LodIG/hgbp3O0RTrWRAfVofY9w8+Xx5z8GKV19r3mfzb/rpOp5jn8B6LaHF/pqjzsaS1Ac4xCBMMa2TzTqKfQXRJ8K1oYIX08USIjVa513uIKg+Qg5QtPD29Wu0gvqc2YA53971apW55dJ3NK4F95nxxeXzm/VptOhEL4U0niAhMMjdbQHTJfAQF6CcsWjSwwgQyPwTlAEtnyKw3ei87qQ3PT/20wVX7GThYoUkSSo/DWqztkjqCBLA0OLXj+BGNpXNqs+73tGqnW47XDpNIcoQbDAqw80yXcH/RICbSI8qrqLPj8aJV5Os94edJiWMDOlpwkTeJE87VH8uCh2J6dbWzaaOfzyCDP3XCCkkpH59TO+XYwB5ihUr+3KAAbBw7T7T5ion0RIYlPbnt9pjozsM/ErzTlp8nKBVbtleA8s38X4MaN3mNjl/ptZxkvIcpwVUPrI0YvNa2DZ2EL37vs9jybsrboYfE9HdpRWrbDi/PgadE6tARtSMUII9EX6ULl28KlOMALnBoJm1hlmzx8frzwtpB8UEoWwpo2z6/nmNHu/KhdeoLyRfglqUJbwPZAT9eYEfpUaTtKal9gnSYJVJHtLAgMUng0tXBinyAqHJXUe3bwhIxnTCHU9t3nJ4DkQincfJvVzndtr4Gv83WG/7hulegrPPuWavDsvhx9oJFwA/aFob2ywnUYRavMyJ2RIKoJBN+frkgTbyUMlLlXq7jITWod9RmNxdrTAugQn6wZyA+WfUISY29jVtglzhSAibRh1DALHagBG59e1Jva7Yt9P2HXy7flrw6Jg0LfS3i/4wVLC0L0cbGp1+3Dvow68eCi9golze+E3k9xMCJDY46SsvF73DRmk2BinwAgnTrYiefx+nF722X88GqKFQk0twwAbBHEBBMIUI/HJgBzg22Lm+h9RACI5K2OfQ52/8ZMz4LLeX1/XsGK1cXSkbCTi5e6ewsHhXpCaITuMgHYjdRWmxH6Vesb+q0H1TeIMxS4ReH72InOTLvQDHvfnqDZo8isVpcJ/Lw5GfWWxt9mfIP3SdP0S6/wIzX2srILEJoXV1kEUOMggTfiVWqmf/wdkVEemTT8EXhW3F4Aa3x29ZxuqpmezYinraiqcW89xd75ilMf22BcSSs9XMza2MeMKFQz4oy6eV33ZlBHLJXofZdpX1+2rjX1tshfXGB7Ly2Rly2AxfHcyxadAdE7nCCiD6y2F8guQmSp5TpQJEEQ7KBDdVb4ooJqRFdSBjIhBkz5r1ERkBiYQuECiTpGAgdC5gsDpE3P1mueM8WaA85oWgfwa44d/Ch/fFAtMNgaLm2RCj0nUT/D95+I4IHJ3YxIp+woWpLICMfuBmsTfZ4o4uFj0UkioQI5+cDxSLxNycXqX13y1M9umS5QnbTTgKywnoMybM7h4D4i8S4L5rLoCk79Bs3PlwYjzuoSN0v7BQBV4k/SfI3ADEkCwow7Iv+EeEP42C7aGyJUISqEnIZIjNv8Ua1pnyzOBltL+2LiPTrJEU9kQ+GRMnYnZDWJrFQkBztHaprvJ7K5DNIDmWHSNAoWBg3FD1SszsXdVB7il6BTIE2yAaiHT44x7UzuamfNvPBu8qkIkVpNW1WjcKchNDWtMX0O9IZw5SXqt+M9TuLNqkqB4vRiEj/hWhigxb5wO0EZG+/wPXrIBURsdj+ftArS/XrmqXwSR26U0dfc8qathKmb4SUTWBZG5Ge0UPYxr409UT7xl3RuCziOfXJgjr1uYTMWCZntv8JC4uXF+MBdbRZmOF11QfIDCG0beAvETzCo945Ij2HLzRyforBQhsT7/+2g2yoGIc7Djb0Zy/x7cT5gfyp/brlqIF9hKrmxua3vbaZMH27Sji8/xOHdBukh60aumPi2oQ5MB8AvcG3yyUgr0StW7Bkk5r5ZYP28cU8F9GqyWkbq++bNsd3dohVvtf7LGQshGH5QndtR6TfLIf2GZ9LuA/hA4MINfV28jHivOMGSFQuvKx27pujyoRd88qfexkLBrt/L4ctJ0JhIFyy5N6E/uNz0PBG7TiyYq3ItldvVG9LpkIyBtrCxoAiPTvX+2KGAj7nhKgSshodRE3LRCEFssTKj2o7KL4+l5EhE2QnSiO95BLxroJVSCQ1j9W/PsJCkfaeM1KkzNycL4g2ceDAbJ36M1aZft5nYaK55MMugAj06tO3qqxtB99YdRHJWsm8BA1g1ZC81QqRzM/9XpAgl1sCFnZY2gURUF7aRqhFosFEtibCM4ZQ03fv7aNeurxMRzYAwWG5Qr+JePDS1WVJC88XbW7NIrDNR4toc5tSOVqxrXNPFjShX0LBkb2ZMVecDwKI9CBJuYjSIikdQjsWxP/Jvs0HJ23CkWDisXvXHIUjBuLGVAXMMtDI9pCPl4NwIvtNICv4+tDxdUR6Lx43iWw4ZYPwxI68RliWw/ax14gmul1eymcCYL0wf91tkKSkT+BB2kv73L5z1L6F+pVXP6mzFs26rcPr8/D1/96mqzBltEB6DKOWCg9UYqlMMQUl6hsRI2I8zCFuPLLYc2qdRLXPa7mwDkaM6LWMoLzHOYB8XSVF5TouJqwOyjAjPWvNdrLzLKjYqjWzhl1rgfSzJEJUsuTzUG+UJHwDIDbsi8JkQv5XskpH7pClDpQgqVD34bvYO4PrAtN/kjYCnAOI4b//0Hz13rxa9a6wyDjeLBVzCOZRe1fJYdfw/oiPjQg30SwR+PzpV/XNwW5bSG8QVyWSnwfBUXEDaEGJ2dhL7FqKhDKgeu/XvUl+TkhoszKTNnMRKjKO4Yi+iKFDiEOM2YYM+F7mHeHVhF3GcnP6nGq1cMlmHRV5z8F5ijEzrBJImGygTqMHuPDY72vHrwEzbxRFdZLYg90b56TZoihbKhKrTawLQcxEIT8LbMantd8j/fdNa/oPewX4oEQACE/HjhmRr045tDhwIfRAJMRbZFxp2CiaWzHFgEJguMS4fIYBk0hdDNViN7pkVIG6/qzSpC5QkOgysb2fKgpEI2UrbyjXU4aYeW/RAA/um60VcD27ZMuiyFTkpy3Ob5JkJXtBEPCVT7hmlAbDTpOy8/G3qvViSARLxI6CCYaB7dgbBhOn2kSAQfgrTijZ7iSdiLpsymSwMaoDsZEzI3ZDCrFYKBCuciQchtVia4RSNDt/hBX+x+k1ag/R8IZKB8Ie8f3ni29Xq6lfb9xOj9J7Wy2MM+G3XxCzByQqAE4qO4upxQDxZe0jXk7spsity4o76N01mcq6phZ9/xeR8riTOusFesffKxJ2EMbmCPxm8W2H9GzbpB1PxDYDSzNarBVRCScbYE+IeoVTDObGGsElAfQKCT/OYBAug/MEyE3f2em0Z5NFQ4nMMEMC24arui1e9fQIfSGuy0Cp1wloP5SNT+hCIDozPLbxj6B/ZfLp2TlLlQlbWVqSqbqLR1pvUaTtPwyFXmJ2e6c2cw2FGKz1vz6tkznwt27GBLwmskdLpBfqAb+ViC0Gng0blGRvrQwobMtTb1Rp0RVOw1BD4/dLuzC3iMfkgryvyQTMK9yk3GTSQaRcUcWH9nOVLPbv1myfsgZ7/L13zU860oMX4Mebc6NHJ/M6zsw5NkaH7iPcqTFDgILga+lmMN00QFNQj6nijWnsTLGjgApfLakzkW9jLmGTOpIDMS51D4n3kt+m0oh3R4p0KVmLmXp+JrZEL0hWmCFxKhDNrmDmkSQSN0vZtgIE5qWX7Az/Fo3nH56v1MSS88RR++Zpyu1lTOAI/Kb09A8p4ZLViAVDwvQsEifaNWJiim15IgC1+2xB2l8cEr10Fh9eWwQRfU5iUP7xPQk6JNdgIwx1HjVBwnBUifREnDxIaQ9fGAt27ttRHT4oR5Fd2q+dDOpBzBecTJIJ1Ldn90pf+V92eJxmiFhmA3gkEWfnEzFR7iRzQ8RjAEPFKRirbVqnjhUjv1MPKVCk6ykr4RwRmW1h3v/z1feHTZs2uHkGvMaUGr6+mafnQLdSvEyMd42bAm2ehUJ/KCleUME78b8M4jdygHxP+FXCRRM9l8gDJlJAaB2aWm/Lk4xewThLhD4T/j87wqhheRIMqSr8luffxHO/dnSxttr0XIiHFzl4nrhfgfrdi5WOSSY8FKkVgAcNzbXO0ohnFjBEfBJCAYIypFMTcuPo/sI99Xp3PVocc9C1DBJT7nAiBfuJHzEWkX4RpNA28T94vV7Oc4hOm1uMBCOR4fvYSok89adXKvWBkogCOBRjMYkvLmLB6SJ1wKEBqmHDhrB7fDCvwXorPWLfAvXaJ7XbpZ4JHxw3vzkM4nziZRvHmWPFuk1qgJgd27Booe2iPuqlfj+AHatvqbCAe9t5i0GVP/miQXMGRsHk1A7uDenYQZ+hHnyzRr0iiTFIjIfTDmFcupdmqVXrRBwsWQGnzanTz4EniQIkkxUS/LcZ6amIzieyUlYxrmqPyABgp1Egg0JDkJ5Qr5Ga2HaaLQsFB07UxjEi2rsgF9Ts/97e3uou2juR7rHgDpPt+0c72bEDoeVcL2ksaTd9Zwxo0zVnlIY+EvN/6gWB/EiJBB89UpRbTnJ0p4bACiP3tmWFmVuzQGnvlk+bfDXypO8QQsxMOGAnEvfoBxKcTZu2quZoCJB/KgXxEwnUQQdpANIDvvkNVXDbaRYRCiPc32zhgmM7+8bCDe7vXmsMezfp39W67xAAxuCWf1Zpts+2DzzHYZP64wUz3+dLJnBbmC2pK8nQ7YUVYZ6NBIn+U4b5bVu/1+dYZNnZmUpQsAk4aCC3TSa4RXKntsEKPf1OjT6gON0PvwaykIeVEBleAUTBv9ZYF9qWg0KMNDjGkYT+8+E317nvBqi/v2hgDeK6edc8S1ql35zcScuvzbVo3xwESXKBQVm84Mf8u2kDjv8o5JqxvJ+EXEZRgWgnlYCBe2fxZkWKHVvApn3s3vmeU73DDuwuvrYoOtzAn55rSkcfPtnmt7lvWyb1jxQWh/Z4AbLxHS6eWm60ySgw0QZ7ofJe2ujXO4xRTxEA4BPdjPScqPt372DNp/nVGD/KGSw7FAdkpAC2cM3pnfXhDd7cLcCDHnegO83yHGEJ3pGDeiTpGNe5z3NuABsm2uMWEFHCVvz+wujpJ0PL5QD7h2crImqDQ58N4v/YIyE2bUZ6Gnn0foUpt4JpN5SSrHKIvWwBKnn5iSV6kbthD0AW4uPbHJxNW1iMr7xfrZaL6YOh6uae+eY693nOzeLlcE57aJcbYKFgB+VGckTWxZnL/Ql97qatfjzLzoT0Dmg+yPKD0zsaNba9VAPk+YTPc4MwyPcvPrpI50+17S8O8xf+3J1rHzYfL34YO+4N0iue43k3QHtoly0gFj5ndIErtoay9Xkkyec+2z5Few58HiVac7PAt6P0vGgycLulHNEqTdY9qOUVf1zjqroLRZpzgSCADZvDjjBQFhdnAltgET78T9GeWrBRtJ/neN7N4qU9tMtmx9JZtUVRNG5MF9su6OeuvG+NNlGJtFO5KiyJD4PHSIwmXtq1udYWSM+dp69rSj1vM4jNJQXgHzr3kWh9X/3Andb1WpGRI3OHAkYDJB2XH+eOys/6vE5NkUBPtmI5nuN53nMDtIv2RQMQfn85+N4wtjSqSUB4GaT2QXHI+KYSgPCclZ65sft2zXZEetgcxFiceFMN8ZsoZZW1CJPRQMM58ZKu6tg98qIiPgfmn1hmKTejfONj6zUVNr9tvqHatz6x3ubR5mdoF+2LBCxoorsRdTncDCDSO1xHjPr41CqrnSpaOcm+Z/D2t2M7NbM1pg3C05t/t//GPua0g5q2fVPA9k8E8xfUiNxQU/5Z4YpFAPEnnFuqThMrQyeKD5U8ZkSeNpyy7TmKKAI8uRXv8TwHRt63BfQstI92hgP9OVy0vndcUOoK4ZHW4NVEdsVUovLgK6L38w4r0iYq4eMRkTSABGgv2Q5t+NHwglvzNyzCU+/Kliw+pG4ACojrHzx+KOIziPCymBBHsxQMrQueHDEqiicvYMSwTvHVncqjXbQPS9RQIoW58Bjh4W85p4trvQKONw9Ns4ut79Sm1roGwh8sY3Huzzs52kVFRHoajPaSwcIYKdUOtlCmEyavd8XmmD7fdE6Zuv3UEr3YDdVgEIfvYm9CPPHJddquxOvBj/ewSyEdjy3QvgN2zW2OMAHVv+moQs26uVWksdjOumuN5om99sG23X4+B5726pypd+1IBCoq0tMYBusuyXJhPI78bGCiyyJj30+uXOGKzTFtInvgY1d0lYgNGTri8V4SM96WF8aCMpoiytQR69sorCjPBmgf7dQRmmW3u+eCztqQjV3bDcDWHHfjcv1KKiG82eH+PL5b1LnqcPnlV9yclxfdUrBnmdjlCAI9N6tOFafQCZ4ApCzWj+fXqwN3zxPWJOYa3w43+nTLVqN+lKcKMkRdLxHJSi1YFRDmL5LicuaX8avqcRVdVy1JI+Tgte/QPNVB+hMLCvMyVYa04eqThTUdlh/r8Rb3YctueGit+ujrTao4itNHixcDcGGF7E73SQqiET+M3u+MZcuWN3bpss0jI0bD73h8nZr8r+pmM9EYjwfmNmeSo0Uyc/XpXaJSgGgNBpltKCZmBOfdvUbz1X5QSXOeeOjXXa1Mf2knYNPW8P5qncJL5er+f1Wl1MGVfnAGu/aYYh1ZIbxf4b9dkT4OthyKQg954QUG8Tf8PV72pLV0o/QJ7YsNElH2c+9UawmKHwhP/ZQDb45ju03baadNW0P7xv8sFsw4UvHgCj4idePgagOukJ6D7SUndFLDyKFkoWG0aUCynkEM+Iykq7ztr+v0BCeiXswHsJW3VUTZtoHy8BV2a55gWz7PPSJZ0Cc80+Tc7deCdVO/12fBw1EiYbx0TCdryZorpKdh2C/cfGYX1VUUIebg4LXByX4P5Jn0Vo066aYVviM+lPKy+9fq4FB+jwvlkaEEtsmwL36O3S2PrFXjn6hIObaVcQEPrzjJ3h+AcctsVC2VGbEGlGi7Fx9dnHLUnn5hmIbXz1m3r3Itzow2LsS5PEoSK8P+4dgBsO3CmkCNEKXFWgzc5zme5z3DRlLeIbvlKpyrqccvQNuK6+Idr1ZvFy3Nr/ITXQ7jdM0vSqzOOqFtyVi6bFljaRd3xkemAA62uLrZOHGbd4LyzYDh/UQMHT9DZkOJ8SH935IGHUmNBBKrQqKpIXtfSCbzUFW4RPNFvGrSeuLs0F1kzYTfw4GahHCEwvbCq0cab5Ks3f10uXpDgiv5zY5FqtPP63i+3Xl8idXBNbzeuJCeg9XFk1brBL3G8Te8giD/BvHZHs8+VDypRC6fCGCMCApL3EyyIpKJzyQmq5MgsUCeBFcl63a2fEi2TO7ZRObJwoDs3n+USziUzSknpWG82AHZUbGX8kIIMubOnde4006DKMsTQDHOnrg6ZjgIT4Un4SVYCgzrdhNK+rebeiShxtatgt3ZRINwaxPUui1vqh22D6eZyZd1dW1WYdqfmRFnVjgOtpPFcg+xYCye1VQapG8kFUw+gYl6nrxImyUn4rDYmn2mPxCnH49bqvUsaHpTEeE57/SQM9mEs0s9IzzzkJnpQ4RYTJFxPUtlYNESWeGEe9apSU+tT4iUpDXGB4R/clqFOuCqFXo3hg1NJZGkGTMIKguVg6sbV03zfuh33JTeFIYp8tjRhVrqYK6l2jfIQAjsfAk064VXDGp/yZpCdhkWdqoCIRTPObzQKoRjrD5mZmS6FtU7lgmSoBHDFBm+K5UBiUlbAeaF/thGIwtiv83BlZxWfoAwN/6tfkw58cyBYsJ/pSIQJYDkDW0FYG/oj5cwIUEYAyRssGS3nFvm2+7rC08fOjiYt75yaw89yKl4sCVTBwnfosHrs6q1V5ONLUy0cvy4R4x4PpEASk9/TAaSSM8F8brBn+cn9LCOmW/Tj6x4pTdOlSDR+dPFXdT4P+MA4T5GpVOZybjGIGNXRFpIJ4BqEjuffi0UHrPToxu0Xy1JCIh/j3y9WJKaJeI8QN0sssraLWr5ms3qbZG1Py3eYQskkQax+2fe2zti3fRnmDibEzczVQ6xzAWi5AfGlcUlqXGax4yFCxc29urVy+leXNeYpAefb7LaSxXxGCwZfsFOEYRBuKffrFCPvl6tPZpMnzi/LJUtGNsYTAVMVr/S4ixtf+9F0WQWFwqtKllkpPFcJoj+uZhPEJUAbSSx+zmYGlYSbS5KtpNGlzgaXhn5vGl3XJObhJdhay77eZHOTes3EclY+M03jb169kxIN3A5u05sO8h2lyqSg0iZTQgrcvlDG/SBMBLiMFF4LQGIP7GZwaSgs7AX5MlFKlQk5gYAeaMMkFsVYNFtkmQcJINbL1pHMsMskfjtoYngDKKbd823OUMRnNYpSQV2Nodf3eQNZd4J6jfjSEgW+Hgse/2GLBHf+F1mc3k0mAgDH8lgs10FeWuFek75pbOTCQjz6gdNSQOiLV7umfv0l1Q/fEJdLU0KIQYJJRHANg6EPsdYIXHhGWxjYtnHsBBBltfFu20fSZQW7trIb3QpY/+yPtC2UixeTEMShfCMs8jp+UocMNgcRBbI5IMIQQQGmtxRkaL3LhYDMvIoxUK80L6BtCAiHxaCQVxzDWQ2RMBcC32O/7lungktO9L/vPOQhAVcsdY5oiv9o59mV4hUTmteX7hmi3ry+u4JofCmX4kj86YG+ca5/KXfdHUVMzLk9YT+y0JEnPfolU1R3cIrg7/GGwqe3U8wyGy+/Sqbdv7931URNcovTOgZSMka84A8/rVbuvt+cA0fW980suEFh/8m3iI+jGzBQQJipFw3pjhigjHs11+aVdvMtgSp7U5tgdrjIRZJnIp0if7S7yDtvLTnRmnXfuIAn2gQOX1SiL3uxxlHlmgH7aAgPpIXDkzHHlgcUcw49+t6LZ70myInamJpJ7ltP5Ksi06AJAQJD47yIFoQAHygPSdLu/yW1Dj1L2mUnso52OLLiPNGa/OVUDks9k4+pCgq/3jvcxVqh/zkEQanSXJ7jfY+NjVydDc058ePKtRBkVqb2oMHZCknUkUiJDVOYydBUvzlVZ0qCb0Gf3/DGV1aXS2OxGSExOKP5TVFZm5YhlQC2jtdcrJGA/q9x47eU/dEK9vNPc5Tt5ztLDVzU46bZ321vbGtGFNkom/Fk+zMtq5IzyEZOVISEEcD1PuyGaQs4CEVDeg/49Ba1J75f+hXZS2iCkdrsx/3ksrehDYYBcpNPy1qdn4OvZeM/0mvOLB39ERpz0kWPUxyUxFo94sidYoGfbpmiZLMnVg0Wnm291hknKfwcR013Nnkw7YsL88lXE4frVHjT+6ifR1byxS5YZuPqlMbSR05+5sGndDZ6X7Qr5HKB28wPKYiASYO5PFNNnBwPWYvyYZykl1kPb/b12qUno5wUr9cohGQLCDZEh0S9773WeTt/8W3q9XqitQx0ApHDKQ4RF54bnrkrCyzvmjSMoe/m8jfEDh8LhBotBa0KtLTaQ6242SbQ/WcbInOy2J56EQJsbN5/K3qZjOB1pqceOtF6/sPkdk7pSMiEvKzM2rircLV+8wvYd8vPa4k4QqoaA3LWL16dWNRkbucqNEK9HqPrBtkr+NglSxgEqgPNzTMb2tEvk2qmRdm12mDsVSRzccaL0NdT/5JgZgfd1DTZtWoZ2UxhJpCxCrDj/uMdySDOD/Kty0jY82aNY2FhfbZ8mwL9vLcvRJg9XcvViY1vByHKvwvy7cZfSHjTjURpc1Ywz4uEtaCIFOYJbuxI7IpP9YzmBigcSWbY2tDxtq1axsLCqKL7pLZyIvuWq0pbSoGj0rmOKVSXcbHdfKvne2bkt2XwEmhMUUeMSA76QfbZA98e6kP1oqowqTxDAq0+kE2fCAwRSa+ZGscbMPbkv4d3wjAw2PqQVThcPv++EqO722h9Mk7ONo21URFDnWqsH03/VwwRsBoeb1EFU50D1pVORWtczg84CMZFEvAaG1N32s5AswbWcydXBdbPp3cK4Hj6UO7T3AfTE5bS2Mb2pb0//YjwHwdPzI/YZGg7Vvi/GTgePrQZqKxxeQUhUayNbah7Uj/bz8CIDxRha88xVvOA/uavD8ZaEpPtzgATb64q+6h4RO9dzf9ZiJHgPnB8f33FyYmioFfbQ80pTedJErtvZIfdEHFllYzgzVtSX9HHgHm575Lkm8qHLlFzncCT+lNs/Gxvf+MTmk2xwxIwL5hawih0hqmwm6HIiUovekUvp1j9stPI74ZkIB8c9467cB89bMft74Nl82QpAylpzP4dp5/TIn2sU0fbG2mN/HPoIDCx3XsT53DCSa+Be5rSCmkp3uYInNQSh9q3U+232+YObjjgvjS4fjdrljlpRzS0yGiIj9xVVc1X7LjpaH1RoCodQ+P957wrLVanpJIz2BhqjDp7E5qvoSfTkPyR4Bxv/98f3PwJqsXKYv0DNCZR3RS4w8uSB9sk4Ut2+pBUnPNoQU6aFSSq/alupRGenOwHblzxzTi+4IOsQtBgICP68XHd3aMgx+7hNZ/IqWRnuHjYDtenIwxRTYHq9Yf1rbZAsaXcb7u9M6BMhV2O9opJaeP1Dk0thPPK1ULxCUtjfiRRim+64wr40uibAQJqQyZjeIz2RaAg+3cu3pqf1e24DTy+zOrjCM8PGPK+BKdLtUh8/Mvvkj1PjS3Hwq0cEo/bY5MJAMmCuUJE5deBM3DFPUfM1Zm7AolCwpa8PmP9E15Cm86njV//udq92HDzO+U/9a5bC/tqojr8uoH1erLpZvVig2b1doAsT4syCAuQtoFkhdIqL8d5azUr1sHcQIpjDstfdCQKmvmzA/VmBNPUNnZ0eM6Bq3hsdoDn8+HfFGkzyFDn8ntFOvd9nqfODjZ2RIeRMKg7Ng7J2mhs5M93hl9+w1ovOmmG9Spp5yc7LrT9aVHoFVG4P8Bmm+VHPjkMhEAAAAASUVORK5CYII=;" parent="1" vertex="1">
          <mxGeometry x="525.66" y="1060" width="41.09" height="40" as="geometry" />
        </mxCell>
        <mxCell id="1-B4D0uf_ZDkLTiQzZ-2-3" value="Kubernete &amp;nbsp;Cluster&amp;nbsp;" style="text;html=1;strokeColor=none;fillColor=none;align=center;verticalAlign=middle;whiteSpace=wrap;rounded=0;" parent="1" vertex="1">
          <mxGeometry x="516.75" y="1100" width="60" height="30" as="geometry" />
        </mxCell>
        <mxCell id="1-B4D0uf_ZDkLTiQzZ-2-5" value="" style="shape=image;verticalLabelPosition=bottom;labelBackgroundColor=default;verticalAlign=top;aspect=fixed;imageAspect=0;image=data:image/png,iVBORw0KGgoAAAANSUhEUgAAACoAAAAuCAYAAABeUotNAAABSWlDQ1BJQ0MgUHJvZmlsZQAAKJFjYGASSSwoyGFhYGDIzSspCnJ3UoiIjFJgf8bAxsDMwM+gzaCUmFxc4BgQ4ANUwgCjUcG3awyMIPqyLsgs3tM+L6bYSPybYTpBsFhcXRNTPQrgSkktTgbSf4A4I7mgqISBgTEFyFYuLykAsTuAbJEioKOA7DkgdjqEvQHEToKwj4DVhAQ5A9k3gGyB5IxEoBmML4BsnSQk8XQkNtReEOALcTEyMjZQCE4tykwtJuBgUkFJakUJiHbOL6gsykzPKFFwBIZSqoJnXrKejoKRgZERAwMozCGqPweBw5JRbB9CLH8JA4PFNwYG5okIsaQpDAzb2xgYJG4hxFTmMTDwtzAwbDtUkFiUCHcA4zeW4jRjIwibx56BgfXu//+fNRgY2CcyMPyd+P//78X///9dDDT/NgPDgUoANK1gO5uOnPoAAAA4ZVhJZk1NACoAAAAIAAGHaQAEAAAAAQAAABoAAAAAAAKgAgAEAAAAAQAAACqgAwAEAAAAAQAAAC4AAAAAAlIh8QAABX5JREFUWAntWHtMlWUY/x3u4BbIRTiwAOUm2GXRWpqWlYbo5gVlODcczgveIASsVnOtrYuJmqkII01BzKUQ5dYIE8ICsVQohbBxayu5R3G4x2X0PV+c47k83znnO+Afbrx/8H3f8z7P8/vxvO/zvM97FLODQsfxEAyrh4CjSHGa6FSv1HREpzqiNpNx6ObmiqDAQAQGBiBY/QwKFF3W1TegoaERdQ3/P+uFZ1fX3xbDKSwpTz4+3khK3I3otVGygPMLvsTR4yfQ3Nwiy46UZRF1cHDAzu3bsH3bFtjZ2ckGI4Ph4WFknfwUmVknMTQ0ZLYPs4kGzJmDjPSjwlIHmO3cmGK9sC12JSShsanJmJpmzqysnxcWivwL56eMJKHTP0w+ybc5wyRRz1mzcOqTTDg7P2KOP1k65JN8E4apYZSotbU1jn18WMdRXV09figrx8DgoCnfBvO0J69VXEd1TY1mjkgSBmEZG9Yz3TzekVKgpImJXqcz/cGBg/gw7RCyc3LR3tGJ2f5+cHFxQX9/P1pb24Q91yhmNSWNjQBub28vfh8/kYk9qa/hwsV8tAl6q1et1Pj18fYWE+tWZZVGpv8imUxKpReKiwrh6OigY7MqKho1v9ZqZDY2NvDy9MS95maNTPuF5lQ9KgwO3s9wb28lyq+WaKuJ80sjV4j/rM7ExIfk0ifs2mFAkmwUCl2T0dFRSZKk39berkOSZFZ6PkhGASFMqaGLOqE1U1jKtWtWszYhwUGsXI4waOL00rchTMLmBkt0eWSEuLf0Df7p7hYTSV8u95v2YktLq4EZ7WfC5gZL9PlFCzldpAsJ0dHZyc7JEfb29iLt8BHWRAqbJRrGFOGxsTEUfHWJdW6JsPCbIrFS6Nty2KTDElV6eenbo6W1FSpVj4HcUgElYWPT7wbmHDYpsUSp5OiPvr5+fdGkv/v6+gx8cNikxBIdHze8mFpbsaoGQHIEVoxPDluS6MDAgAGen58vWwkMFM0UKBQKBDNlik44brBh4hpbKh0RS5dwPiySLZj/LFxdXQ1sm1v4ppolWlN7/4jU9pSweyek9pC2nql3imZKUiKrpn08ayuwRMuvVWjraN6ph0xNTtJ8W/oSv3UzwsOfYs3LynlslmhxSalkG0cgO+K3Cme+ggUyJdywPgZ7U/awatQ6lnxXys6xbR61aEqlEk88/pho9NONm8g5+xn8/X3h4uyMhc8tENu/uSHBcHB0FG6XXULjwfendHa//NJibIrbiLf3vSn2EFy2E9DFvC9w+UoxS1SyzaObZsnlQvES19n5F15NTsXPv9xGQd7nCAudq+OM5DEbYkGnl/agqJ/LOQ1KHFODgrNk2QrJGyq79OSUMv/U6WzRv4eHO7Iy0uHu7iZeyNo7OkS5+g9dgfVJ0hzVxIMSZ7raVv0kLK7aqOclI0oKdD0u+voSfH0fFfXz8gvwxlv7xKtJ5LJXQFG/faca314pwcjIiNqnzpOWuf5utdE9TU13xPKVRq/PRokS4tPh4Tifewa2trag83nTlnhUXP9Rh4ypj7raO5Jljf7B2LjNuHmr0qgbk0TJ+sXFLyD92BE4CYlDjqnWVVZV4Y8/78HD3R3H0jPYpVcjU0S5yxtleWJSCkqvfq9WlXyaRZSsqYZ+dCiNvYeHzHtScunJliNae/c3JO99HfXCb1TmDMlk0jemXzaiotfj3ff3G7R7UuVG7UO75vb09OK9/QewZl2M2STJj9kRVYPSk344iNsYK9ZG+n5m/iKjS3+jokwsczm553Am+yy6VSoykzUsIqpGcHJywowZTqA6a2xQWRsa+hdc/2nMTntuUkS1HT3od7P36IMmYsr/NFFTEZI7Px1RuREzpT8dUVMRkjv/H9RZ4twm6HJNAAAAAElFTkSuQmCC;" parent="1" vertex="1">
          <mxGeometry x="80" y="870" width="42" height="46" as="geometry" />
        </mxCell>
        <mxCell id="1-B4D0uf_ZDkLTiQzZ-2-8" style="edgeStyle=orthogonalEdgeStyle;rounded=0;orthogonalLoop=1;jettySize=auto;html=1;entryX=0;entryY=0.75;entryDx=0;entryDy=0;" parent="1" target="ika4lujq_CqSN-vQrN8l-117" edge="1">
          <mxGeometry relative="1" as="geometry">
            <mxPoint x="110" y="1013" as="targetPoint" />
            <mxPoint x="79" y="1010" as="sourcePoint" />
            <Array as="points">
              <mxPoint x="70" y="1010" />
              <mxPoint x="70" y="1060" />
              <mxPoint x="181" y="1060" />
            </Array>
          </mxGeometry>
        </mxCell>
        <mxCell id="1-B4D0uf_ZDkLTiQzZ-2-7" value="" style="shape=partialRectangle;whiteSpace=wrap;html=1;bottom=1;right=1;left=1;top=0;fillColor=none;routingCenterX=-0.5;direction=south;" parent="1" vertex="1">
          <mxGeometry x="69.75" y="892.5" width="9" height="120" as="geometry" />
        </mxCell>
        <mxCell id="1-B4D0uf_ZDkLTiQzZ-2-9" value="" style="shape=image;verticalLabelPosition=bottom;labelBackgroundColor=default;verticalAlign=top;aspect=fixed;imageAspect=0;image=data:image/png,iVBORw0KGgoAAAANSUhEUgAAAD8AAABbCAYAAADEOl2TAAABSWlDQ1BJQ0MgUHJvZmlsZQAAKJFjYGASSSwoyGFhYGDIzSspCnJ3UoiIjFJgf8bAxsDMwM+gzaCUmFxc4BgQ4ANUwgCjUcG3awyMIPqyLsgs3tM+L6bYSPybYTpBsFhcXRNTPQrgSkktTgbSf4A4I7mgqISBgTEFyFYuLykAsTuAbJEioKOA7DkgdjqEvQHEToKwj4DVhAQ5A9k3gGyB5IxEoBmML4BsnSQk8XQkNtReEOALcTEyMjZQCE4tykwtJuBgUkFJakUJiHbOL6gsykzPKFFwBIZSqoJnXrKejoKRgZERAwMozCGqPweBw5JRbB9CLH8JA4PFNwYG5okIsaQpDAzb2xgYJG4hxFTmMTDwtzAwbDtUkFiUCHcA4zeW4jRjIwibx56BgfXu//+fNRgY2CcyMPyd+P//78X///9dDDT/NgPDgUoANK1gO5uOnPoAAAA4ZVhJZk1NACoAAAAIAAGHaQAEAAAAAQAAABoAAAAAAAKgAgAEAAAAAQAAAD+gAwAEAAAAAQAAAFsAAAAA0J87vwAAJd9JREFUeAHFfHuQXUeZ33de9zFzZ6QZaTQzeo00ki1ky5ItW1i2YXkkDuBaoEyS9UIISWV3KchuAO8SdkPtH6lNVbbIQipFUVthIRUCBdkYSIDCGD+QjDHYxpZly5JsS7Y8M5KlGY0e87gz93Fe+f2+7r5zNdbIwojlm7n3nNOnT3d/76+/7nO9HCBtkLWd66m967tyz52447w7Mce8wx4vLBYfLWdtXeWBqeDa82zPGA6H5AWmx0xaPS9q0F029cQXN/KCuZHb51z7rnrbMWw7v6KneSrisf/2zv22iwSESDlgfFjRxzURRh3+/UOAlyzBeUu31jBalHUUdYR2o/QTc+bVbYnlQGaPXmzvTwJd8DNba69tdYsv5ZAf3w3A3haUtUPqzdjL7vZinBtJ8OzRFyuJ2aIGSedFT16xyzwDdRQTHByhPGLo4y/UMi23SLEqHyG8BnFTfMW/vdRy3hHWjdMXw0FPDEc5ZIXccjK1GmNVN7M6m9p6bC/OYzlXfUkmJyflzNSIzEzPSHW+LvV6QxrlMfFAjEi6pVAoSCXsl67uivQv3yTLli2Xod6rtbvAtteSPDseySpmPFZistdoisFkgbv2bAFBuSTyFE9PYnQfSJ6mEgQR2FiQPIkx8DLOwS0Pyk0ITe/Tc7GcOnVKDr94QGZnZmQuPqFISmFeMug4WwyCQBqlMX3MSzv1GCRGfIPYHAtpl/T398uW4atk3fr10lksaj0BQRWyLmNPLoI8JcingQVcEvk8o8ABXCMtTiewRwlskOU0kE6aiYSh4XgSzOljmYAIgJGz++TQwcMyOrtHGuBsYcVJaTab0vQbQNaHTSuqFU9hM3zIdeZ009oC3w4jSE1/fr1HikR4djWIlsv6FW+RHdfvkHU912l/BaPaIlFimBEZNNJGhwTtZtxKplhJzsS2D7J4SyGfJPNSCAsSg+M+dTUpShChJdtpWpxXsX51fEoOHzosIxP7dVB5zxFJweFm4YhepxEkB8jmEHBqGJGnuOcWaW8J5AtJn9RrIGJjg3R2liWvDqHdVDb03yTXXHuNbOgeEB+CSOTVWATW4CYwcJaROoBLIp+DrATzjeOCoNAgqbvCbeoUpF0CKwhTMiJPPfOUHDr+bYnjRLxlo4pc029a5Cp6zDyoCZGWhukmMOJYbFor7HTYeovcqpFPl0ciZSFwwzOwMbz2LOdu6bxLbty1U7r8zRJnTSl6K7V9iJQBh4a1Ra7YoUlb0i4g9qmFQxKDX0VDxhSEDUFpxilHjozKngN/r5wQqGwUhYpCEAaQlkiSJEU9000GCurgwQEOHl9KjIVeLn7GNgyykBq0Re8BKYUKhWozRseOy7FjI/L2W/+ZDA8NS0rGOGzaOX/x5rXUy5fivCXRXFqXYqEIaZ+AcGTy+Av3yeHDL0ij/xHodhOIlXQwmRXrDOLHQWcwTIqs7dzzjWH0UE5iRDRYAGel80UcSiErNIykF+nogVM+bAeNZpIkUpjzpdxRknTyGtl18065ZcNH8EQCC2RY7ryV5NYr2HLXH2s54dCBXOyrVCihYzq8WPb+4mE58OxBMwCIOjnCAfJD4MBYRqCeK+cweoowgbd4v50oeuMiX0pAECmzITEJ1mw0FXH2VyoXlYg8Pv6LJ2Xvz/YqgehPEorBZUDL1bX8qI2EqCM0MGk0KfP5nDy0/8ty/PhJSTpeUcTqEG8aNvEaikzm07CRP56W+5khSABSExE/DVQVQi8CsXyphtN2eJb+LtbPDaFYqkSi2qCfwMu1X5BYCRIXAhAjBqc71QP5k4OyceOQvHvHJ6UcliVKF0V+1ta0bBq60Z6JpIOkYc4ZZYXQYYQk8shPH5XRUeOvyVECOcLB6QBxzSM5215+4X2G7gYxJZq2cumvlhTRVWr70H32ZY1hCO9DKYjjWAlw/PirsnfvXmnkxrjCU5NWBjDenMwCQIgUvGY+R88rQVwypGBsjsYaRWqPL9868m/lxNhJyYpVFbkiRIqDSmDkCJyPEKDlevShee2QWXdhq0HHTb2AM592SHv0Ko/OmNKcfgzgJMJc4dsQMAZjEqhed1jT8UTpSkkThFDZMhnauE7+8dVfgF8oSBe6yxCf+IxP0GVaNC4xgK0nDU2zbnS8ioxP3n9gvxw7OqriRYTJdXIttIibB387306qOC5KLlWDaldDbPDKy6Oy/+mnzcDgyf2CdQNGaKk4ei8M8zIohvPIFFAkfPiM5ye/Lz9/4REp9NVU5JpwPQQvhAsK0UqLcZZ4NlBYmH+b9tppqg0YTUNtOxJTiE7tbHBJjruKpkUftoB2wBNIbJYKJFgicDfqhCGEcX5m5CvSPXRIbuz5A4wfzSPSNKxGoMKxwyRdOAJyF4hPnT8vTz7xlOoTKUxLS66riwIVaWh+20Buk+scH3XfjJPXCyN7et+zEiMiVZPWsjfA29hiCD4YBHsC3UIwgfOaPyaPvrhXxvMnpHtlpzTjKYmAsJ8WBQZWEhAC3WI+bluwOuy6JC8MWLraiM35V8S15nZmIzz3vMsDZHYCYyUJSmzbszLUigDJcPA47lLvIYUphM4wat6sEqXQOy/n4BofPfj/5NabdiMKWaHtcP4FgVHTwaC7BbRNY2dGZWx0TOPp+bma6hEtagqxN9zP1Qu0HvotnVC/A6gfCcBokFJAYCDEcTabsRSKBTn43EGZOH+6NUpKhrP2iBWh8Gggs7O3J8a+KbOVCWnAv6eYFpaCssRwfwX4ybQJYhQqVtxs7s5OTHInb5Zz0EjToeO0s9qOs4HLxFjOBra9xER+CxrpJMmO37bnweuEYEriITECvMk4EiDxwXmwNiqU4aSbUl7xjDzxyris6fkiZBIEgw74Vu5hvp3ci5x8dQqJhzPamDYIhJIYBg5UZsOFQqQh7Zatw7JmXb8mJTgk3ue001lglkXQQ4ahfI4xP4FtklssYwxBG0Iwz+mp3mN7lwPUe9cn23TAMgZSDL/pmU6dOi2jx0f1tkOcF+C80c2mNy4HT/xU5qMRCTsQOKhmY5D5Mvhy1MnOq7yUowEZ7NsiZ/NuGQ8hNV5NRU8QWOQp40QkPjCOFHP5EIh6oH8a10FtExDlMRDGoJN6BN0DUTTTCSLrPNyHqBZ1KssJjIKbZbqkiSosusVsj5BbL8G5hSkwBG3GiFPCIiT4uDSg+0fHH5fBdfAG3lpDYIzTYA4OzGVVeeXYK6YBfFNvSEGCHoBQE8ECoeJ3SrFU0Pu0BZxtubq8z/rUQ3KcnOY9Sga5w3Y7K8bYaTiM6whxhSMO77u5Att6o+D6onSxf9qx6dipmmk1TKEztMQvTX1bqqXHJIRl14GDU4QUN+n+vKAIaoOqdSQWEFHnjYqk9Q7JEWFxsDn8fzt0IAFBsc9SZnJA5QRIIq5P41DmkeoqdmGSApUi41PIWZRhPo7mZ6aPCZ/NkDwhOJMBkprmXYG1IVlg4gMmSwiBfY6CkaL/OtgblgsyM/+kHJvOZXDlNm2KrYUUURBbXn5pRHW6iQJSrTWfBtV4HaASuQIrCOTBaeilXtvyjNwFcTiPJ0cN4ogGrb6T+ttv2CLXV25Tw5OJm9ggmibyskbOyFm59+ffUCSu5JeTgtGRE3KbzXmw/bDpNUH5RE5MHxa/7AvUE2JYxODn1b/nUU2Q2wfS1FmRYoKEBaOw8Cw+5/A5D70D4pjd0cCHmKcTeXLYg756XrcSyW9gljW3Wg6cj2Xfk/tRhsiMAyggSwCibb/mNukf2C3Nme9B79G+4zBmiwo2DsgCM2kJEjNPB1vMbWBBcOF6rt4A9hwS3IAEFMun5HT1tNTjmhSiAvTd6vzE5GnlNCnk9FeTjpbrrpwTh5SiD6B/1XI8w5kcz8ldfkgr+ltaWuo6I0I+R2/BBCg/vM+6nJzwQ9vB8JT9sq0rAYu9BsfBNLoDaOoJOXH+afEKnWAuIuWwCQJAJ6GfkEZpeNM60CDoViQDKJH+5X2I8ihDiB8x1pCI4w+4AhEaGeNmfEhEgLCqiEgtTeYkrU0hZkBqpIiEJwkGtSmBKH5hXBogaFA2U2ex/j7LjYTkLua3+QaX+REXKQbwRoDAxR35clhd/BdmJerARK1G25bJ5PkTsno1x91hrH2zgUUEfDB+BYqh4yqNFTnk5vyOK+SU47RykNadhk8lwHgLSpG5Ns+zHm2HAze/ZzTGDDE5T3B9uHoXO2qfMJgOXL+85j1zBP803c45v/FUMzOzeo9fcEQir46eAAFzqYFLKSKtqAR/OG9EL0xMXj5FDs40iiegyyGQyIFwFlaNNcfcmZOIBOabcwH2FVK0U1hu1OdiRJj1ou6UePFpma+4yYix0swTlPBpSK8ObuPKq/QYYsZGSIOaHjGD1+O52dOQM9gr2ARFHDYCjhXeA1xGjSA05UVKQANuOWAKLJXjs89KTTbAwG6BtUdVcoxxMBcb/MjM3sA77eRSX7T2ueUk26DEqAfAQzR6HBSzrloP57xfgPV3nLlU2+/a9k69jVywHlMx4W8sQAbwf568R49OSq1n1jJ+Mbqjyywj3TZXnZcypIHxRXweqXX8EYD88zIztx9GqAl9DzETWg5iIPdpIyff+lMEtrDeIBR0LsSnFsBHlGjlkQ9gmKm5OtA+AjfAQa7Q0N0JrEqAgChFbn0umAWvijIPyWIGiEPgchiBuT79WD/9zR88peWhXRPMrC4nulKB5/oRQ2ieCnZDa9JQotx6iQJ8ex2qnOE6LIK5qBQndZmt0sUi7AY+GFpqLTASgtC9EhYLKQG2RW12qS/W58SIUkMbQC6QQCoBCEPJ8WIpkhoWJwsgEIFcvyzO33G71o8SYwcyiC0hxiII4cGnj2g7TtJIAJU09M/2ec4Ik5McAnFi2TK75kfuh/917z5JKuvQ6lHNg1erU1gjox80YhbGxp/SX7LRGjI+82EG/jWkBIve33Wt3LBrO3KozKGBkCAx/2JIDN1bI3hZHnn4cbUnEX00Qq8mfK0XmXo54wMAc3/8ePb6wOMva3kBnoeQ2YXHJDDXDAe55MA/A2Z8OaZ3nLxQKqiKCbhNKGDxJcJq8MzktOx5+ify9XvHJbzzHR+Qex68R7q7OxF21qSjA6ErKMRQ8/WA4h7BTa3z18CALJO0wIcgjvjzPMTviD8g7DpRgTdX4tG/0987FJbqo3+wX28VHfI2qRFDPQmnxg2nVdpUml4rVbzXyvIgKcu1v75l3fK2nb8jG3fukHAAwxsExWfrp2EcPJlPsUiBxlwujnN6gtPRQKpAdFZK8L8Rdl1E05uQRdsqhWwYbgy6jD8oGubVJvLCUqN0zm+SZmVcorhD6klJMhx1gZGyirU9AvszfZr+Vg9u1PJCbuf5dodHasX/xemCrgIz+0TwPNNfDtvBopwWkJEnJIMxfgeGRXeawg3B5Mq1qANXR70sygz2yNDQUYpUJ500seWLQBOUpM+mXpHTvkWWiBOIV8JzNEnxY8fclBCWjavSOhgcgdEi1/tyYEIxph7fd+/9eq+QGxcnNsihayPM91eNbbK5e9MS+kWb6EqB7VK9OCXn/gK2XamY/QCsECISl1VBp5yFmDI/J8jfB/DTEWJ4Qmpj6Tgrqy5HPGLHVYDAKwHXYjRs1ryNf1Ws9UlSFnE1pKqZNqUGDgYwHynm5TFWZL2sE9aXg+MqbgbCoH9sUMhBqBhE+/g//4C2UsR0x4AxdDCrevnN517ADBBqhboagGHsJBpzdOp20S9tjrV3GGyg8UdXGZEporsAfFFTumJFr/hnYW5AqcsFdsj6pC5BmYyOM+6yAsQgPwXJzf5oRyhRCTlASwzCJEC+CNlLMWkicPD8pMil3/eY5byHyROhxXnT3zyIyag0pYHDM4FdS+DGDSWG4Z15lo/b/vv6VoL/pg24umtkZQ/c2/i3YCELEGNaR+PL+WTKbA0gQwcUJ3htdAgxzhoSIeqLYBN0gRqRmEfxpq6hbWZ6CcBf3V8JeYMwMWFuEQ1l2Nnhw01mnCJT4pDT88IKEEF8D7Zsv2mzPh/lxia4GB7zMy2fPLwfyDOK00szIVM1ImIYAwykB7Yzu0TfH+WI7aFBa/uuBgZQPdxXzq/s6xPEOgqcf5s4mMNeGqjrumPDVsmAPMVNiWoHRJzU4iONJBXDdVp7Amd7rE+Rp0SESJjEiBsYghJOT5jZV9hC3obZXKS4DOC8gn3FVh0oHbT+vT29II0ZQ9iF9fcuXA53dsqZyfMyV4bfRYRWQ1iokBtKR3ldKVjMZ2DppyWrw3AgBvA6jMiGCIth4yEhRnx17w1owRWVApUd2zqKSa+sWrVJgq0ViaPrTPJETGppqLJJxTjALisGT7mN1HI3b+eKCyBDzpDA/T6aMLFivzB9tZyHSNCY+1ApsAnRY4f09SyDtvfr84wqTPiEy+FN6+XsGST+aSEp368DGsWRshjo2NRx6W52mzk7mlTdJssBs8UxjQU4Xa1W56QXrmZw9QAWOudQA7uyQBx6i/pUXc6ePav6y+cHrJ+PEsMEl8RAGKXtHp2mgcSavTV4zAmQuyHUixLFzVTtwPFuunqDWnyGV4SwSa4A1vTskqeSSWRVTxlxtEFFYDnA3VKkSYJZUpz3SLPzmNRLczJS/aWc/OUz4s0ZsSwUMFcHQRDqqeHxl2OeXsZuDHiFgyfOyoGRY0qcYtNsLkgL51QCyueO6TgavefUKt9/33f1OsSKDCFHxoiQ2mXhZvciV2fVKcdWGho8CrZW1Qwx1KvpYxPTMI5IqBQgEVA3mCyKiSA+65I1awc1ztcIT0ut2wDXOEtzAqGZF3SgOo5C1udH9cpKjrtmklLjAdVvYwxcfXKYH9oYV0abw/PXA4o85xQEjeQwKWNGySRfjdQpEayur9+wFiJvo1fbeFhEPzSSmdws1w70y5GTr2hSodo1pjrFSI1qHzTNhKUES4zoVHb13SkbOieRGzfZ2Tg7p8Rwe2+ocQqwsgS3Ts+eCLoWoGeLv25eXHDRazKCOj02cVBeOHxUpueQgEXur9mJWQkyxtLB2WUqlSayzBD5HQN3SkU2QMlAGJoN5CsRh9hB4nrDwBB2Pa6UiYkzanSYm2famnthyCFOeNJqKk88tg/WeUSJE9nF/hTZWHI+dzskXcTXQh6jVTBc9a062cK2w8J42gpfc9pMMDlGZDpXO6lzEusBW1JDyWCukJmc1Wv74eLWmDbamle2MOzzkCSgAbpxxzXykwd+Bj/cJfF8gh2UdXAUSHmw0PBCWeGUTCALmkNhFObhuyFuAZAl8lzr121oNtZujbq14nKhIWJW6I0A9+ORIXkB0teNyRIWPtT6x9BpZmdrFZUEL/Zl59ZdoM0NummSjNcPDtozfTSBRFgfrpUNG82SDnWPiCtS0GXqpq6uAEl2zI+LCo3PNlEcc3Hu/m/qqAPGF/Vdt7naPQOMPwjMHJPrQ9D19Zh1EgJ4AoiGnvMLM/MmkOPuZ+PPi7Jb3rzxKhk9/UnE5NBzcFwNCeJxRm9N7KJiciIqwKLiuRRqQQLRZVE9Alh5new4V+M5Thtdv1D4W+P4lU88RIJKfEhYhpmcYK5AHvogBkPocjolHVDbt27+E5g55A7RA2dzPEk5icPYYfHRCAstMO5dUVopO3ZuVS7Pzs6p6+IcnFRmwqKzYtyamUEZCXB5fJaxzm8aiDjFnB8nXeyTDKFtKmN/3rbrrpbeUi8wMoR3TGcqnRB66gzhyhombOwoDmmA8OaufyO13kcRpfwABqWO/Dd0H54lRvwfI1oL4Dg4IeHMLNM8H+w7RC0oJZo89O2cgMpE8N2qqt2vn7WmW3obX2aA7qo1HVvCMGbYGcKsjYd9A/zjHl2qZ4hZYNxIZHjFe+W2FW9DVLkWkkhk4U7RJ2Yj2gUlAdWNjmjgpOYPkoGkBOG27btlZR9mfKCmoxrtADshtQntus5zXXx0lbXGG/tiP+yC/fC8vV+VQIg2YwKqIq8J1HHmBQawKPGPdr5NyxyXedEu4XqNPNiCBdAS2xCoChsnM/735Xt77pVJ/wntrNooqxX1wX0OCKTXaSsztrpBAfveNW8fm1jcBmRgpJ0r2IyM213NLhVsROkkhWWGwAZ5o1bklvEqgrU+pqXywhmpdGG1uI5sMtRtQ/F35B23vFVWy13aLJLMBuzOjxgSS+BoLulnGDGSWv/0ne+V7mUV7Yx7XdmJm32xIeo4pUHjAhypJlcCyFESmBLFaI5BDPshaKYZY6Etmp6aVaPct6pHbrllF2JVE7K/3hi8Fuf9qqlrZ1FU0biJzvF6COGc7JE9j/9Mxmv7NB1VrJAAWGDECg2tfQrd1CQC3AmTmin8qwGjHuCfXqKmHmlmFVq6f6HOO3Fv8cfqPiWc09Vi0dTnOgIJtKp8ndy++x3Yc/V76CGRTrvG1zIllvOpfe9PU3xmBBf/jjABIOBlEQhLh9yx+3ZZu34QGd4SfL4Re2MPYAdAACJNztDl/brg4nJtX2duBllGbZQCul9d/YXUbb5qSN63+w44axPrt+zY6wwCu64byhLESBdWtZYAMR5if+5eZ2YW0iAPyLNjB+UXLz5ojBEyP9THODcLgDnSUpSELLHt2fDW5ePdTsvc5gmWsvKYdFmdN8bVtys1ukyO/jqxBkhC7976Ptm+dht2Wb1FIsYcSH5oyG77lVacYa25xYuCZ0suxJtXFC9aW6djRJy052TihvXbpWe9yIEXD8vRY89rvVKXmaI2YIWvBFCKOHukSFMFaFeoZj48EfV8cHmf3LL9Jlkl2yDkCbbMYVaHjq3vuqwheKmz9nZtThCpEZyVdpRrYD5MNSDhYlj22eAQOkvlWPMJee6ZQ3Jyar8apqAEJeFEiOldguUAlMFc24yMy8mZQq24cKpnxsrz7S4i32yYiG7NutUyvHlIdgYf1lodQB4agNUjSh64xbU9cs0zEWtqOY8SBR+EMlBamvO2Ruvg9J8FEd+vA3AusLEwJBvfPCQjyAg89/wLMn56TGdTNGhqANVaG9HVTC+uqcfclECu8rMYHLcpdWZ+7qut2bJlE3bucHXIuk37IJoDWPTwzOXCwqtli59wpFpcbq9tXIGcHXZb4C+XYyoJJ+WXcmpiQg6OPKZegfl6WudYAyUgC07SdWVVbj+DEsFmqD+37+kFIIZa+mpZVmF6vXngLdhJMSgDcgtEGhlgeHAmYBBtLDEyU0wVuBSQREvq/KUe5D1OXaFmoDcyr/hD4grWIIAOrpTl/cvkTf0rsKg1K6fwd25qCq+TVmV6GiXYhkZulsolw3ksdhLZEtbSl/d0S19vt75WutnbhlbxLo1cpUOhreF7PlyAYkLySsAb5jzYCQowrocXoJWBpOhcHueUPPpaQkPGlUBZa+XFZGsTmQIKJNcyrScgGsG3OzMC5BeoVhHn7fhrGTLaU0rlr4j/Ykn4tTjPgWISgG0nDDowHoyOksCBUSXcAidFlQBh1qMZOcPLC/WWiF4MmIIiaAKaI3bNaOmv94W9BBexOBdrc9HYcvhTGi3HAl0Z4cBQj+N1WazWYBEJMlx1OT6+kKxA40fr3AZmREb3jYPFTUODhRMmJtrhwiba7yx5/isKz0I7aq2BTAb9JWgqkAPAp4W43sGXpa+PWRifM0RDVSC9GHE+Qlq4mZo2QV9GivLD2Rb8/ZWAy+B8i+QX9McXywlco6XI8o+6aSKBhapuj4xbP2/doa4QHMcgGebaiBjvunZpG5yEmUq8WopvS5W7JxeOl18TzzguLzxuzgzS4GgLE1PO92idz25/pqVoPAFXtV2yG5/2lRbXLt+QbC9nWxcbi8YV7R29zvklOc/JC4FJS4qhC3VVJC8zmDB85EqP2WhIajPzEnL1FAbTZW/ZFbpRYC6OOzlpQHl0XTWwdhBhz08d63Rd2F9DZBny8j17N76LEdu0+trvJTnPjCiR5sfNsNzjjgju+mJHqmc7cEXXiSo56n4Kxkk/hcBJBG0GEbeC0Wom4DwUUALiHB+DJSJOJl3OmFoN2ZNLcp4IcBpN6jI9ZFLXxsq6tD3XuRXc7MkdgaDhgovErHUGkmzXhKSYJ8B2OY6bdjAHgCrk2M3h6Q3HH/M85A/j4eujfPHRGEcmNkyCFVGbq24RvNThklUpblRFIo4JkB7ZmFm/v1SzvGe41GInSpSYdsCOy8SvYWbVC6ym+8ONDNzV511ltOEQ1x5sF0ScUaNTD6amLwcWIjzbkHuo3kZNvl5SxK5JBxxL6OR1sdV1/bI9ntt26a34iAZCKOY+X4Lm0vXI6siusi+8r7/YurtrK2e6esT1CbZLxhSQoeVsGppwSWjndvv5BQ+RmmyU1CwBcXZCIPcoDa8Ltr6rx2cc4uQ09Z5vWDiYnZ/VMv5sDMG98awX6JwGrT0eU8St+oRAnAwh4u25RX32El9t7LS1HKfYMGdiKD760qh89StfkT/4wz+UDcMbNGDlHp12oL834I4Ld2ndnbGr41WO8dPj8pd/80M1VAG8AJHqwqrpv/vEn+KnYTh/F/nhjx6WH9/3I/n0n/2pDA8PaNnp0/Py37/8Zbnrrg/Kpo0DulrMXvY9dUC+9rX/KZ/81KdkM+b6HPNS/OFYCBzPAvJadOEXB8GGmFEhUBxJcde4Q4riSqg362qJ9cJ+8R79vVsNZg6O8XoBbX36M5+S9WvBMfRz6JlJ+cLn/1r+w78nst3aJ73MQw89JH/0Rx+2tgdL0LADlA5H+1otlccff0zWrl0rzz//vPAHBDhGAqXU1TMlwAUxQ2jzEWHdkqhkxo/ZmIEQe3V4kXsl6UDlsfAqeTkclOE6fh+HVirgFjFfptNV8vX/9ffy8C9GNYnxgXfdKL/7u+9AlQTT2DPyl5/7hszOzspVg1fLDH406DMf+xB2ZfXiRYqinEPfNyYm9zd0fZ8M3/xeuf/+e+WjH/2gnOrBqupwXQ68dE4e2ZfIrbvwio43KdOFNXIS+/avxkoNV46OnEI7zQF563veLz/43nfktttnpYIVZrw+AOx1iGoLGH6TmRHSYBZljH4pINkA+pD1S3xYEVfrS5fTkPt/vAcUPyyf/29/IZ+4+9Py8MN75NChEUxoE/nOt78jW960Vf72S3+FDOsWcAE/F1GtqrhfEI2hfSa5rtt+g1Rnsd0EtrBWm5f+wdXye3f9C/wawoMy25zFxmi8uIAIiGaBiEdwd4cPv6htb98heEFpEH0f4rAV3ByDtkCHjFLOJZzt0PtWSvQBoqxoQzxJKgRiMg83wn2CSKOB4+iZbyrmq5CeWydPj2+Qa27/jzIEYbhtWKR7+z+R7zw1Jkew9rf/9Cq546btshwS9Kb375KJzlXY/9InzfIyGDQ0D+5kkCKm+HvRdFc2CS5iJzyMfQ8yRJ3JlLzp+kBqMXZK//BlaZzvwZC40wLIYwyz4N2hF/fL1ds265i337RJ9j0zohsvsH6E92xhsMEE86niyC0ZzAUaMV9a5y2pOGnjVm0XVJBq/JCLM9W6TJ6eUA6l+EEQ6tfadUNyfGwE++jMdrFymSlmxgbUP+7pN6llRo6UJNoNXTfHsCaQ/mIdJkU8iBylgzz40Ed+X777P74q27Zdp6oFpiscPYI3vtHXF/7Lf0bq3CQ4B3r40iJo3Gk4rHYJbbFd2h8Kr4OlAyKODKPGog0cErac4QUaRJJ42wrl+Hi47qmUZG1/BpswIVF5SEXr1MhTUikh/4afwChj/07KffcgdBcEphPvdfB3crjVpT5HpGGA7NoZltqQ+zslq1di8zr6qSMLm0cVfamke53I/X3Xydfvwe9u1ar4kTBIIzB44Of75Zqtu+VjH3u72ioi9rdf/J785CfPyu+/D/uqURDh/RoePfTJ+9iQp8xT9Hh9MUjspMYFDR3YpDiHFS33QlOErR+Evr5V8ugje/G+2jR+OekVGR0Zket2XC8rsINsVf+APPjgA8rhPQ8cxSbHCZzrELDG36VBTxNIEw49d1ae2b9P3vXu9+ggXT1qGgRH/tW/vhn79M6oLaBNOAc7+SKs+80338rHDWI4rls/BDtwSM5XzdY1zX+ZLrWek1xeIDyw+9ldjG4X+cIi3rPTGBq18N5LbaIqX/vC38n3G3ivHrF+GVvH7/7U3XLXe6+ScydG5eP/6esaiNzxtrfKO3cMQphFPv4vb5c//6tvyP1//CXZfest0tfVI3HBRHbnkND83F9/WSrZjD7Hnd6f+exnkalVJ4ORVWS+Zt6NZoAVY8Pn+z56p3zr776KNz9Fjr+Mt7rwhvfWzQVdacD2OyXyzh03yE8fekyOvXRert3Wh8UM6JBGaLBsMOJ8d9jSn7+HN6fa74KU2CJvf2HNLTXIhKVev+UU1Edh2loNF6thjAqsRo6ZdKXI088m8n/v+d/y2T+7UwZ6K3hr1oDbfe+aNXs+sPfW3t9gj6/aI+yqgqsHDVAgsQlUMQJfKCJ05CZG0X2xuE5pgABUOQ8vBGh1Z/G5vYXg3rGxe5PxsogR864WOUwj7nVgvGmvz5nVb9gG+K7Pfe5v5Pkx/LQcjQVWUD5x991y47BWa0VXdmhSQExPyCABBN8N2q72ZliHNwCPAaBrJGBya05sTtDFLdhAZ+/b5XL7i0mxfes6grz8xpB3usoQhkbTWVZuJmUIUTK0g8Ez8FtBHuvrF4i9HYuJYXnRWu20d5x8uYpWUsSt77t1cVhrxClStvsEcrwewskM26Os5fb37/i7FoQO+05sbNsLPGOLfPu7eU3s6SW4VDgciQHPKYh52dC89YFb9r6/6D5CJH2Okm7pb9q5kt/01WXogJv50r8zxic4g3Ml+3sjbSGTQztJWEwHe+0orPYb1RjvAhhBESKs3BMQuuiRS1cE7o4ikjV8eIe/XULAe5sa8HTizUsC3tLTY2JfE8Xr9Aqx9T74FUlzjf38BGeI+aQBU+443cos2Z2djFAJVqCwK8xcc1D/H8VnRdhxmpiBAAAAAElFTkSuQmCC;" parent="1" vertex="1">
          <mxGeometry x="543.17" y="927.5" width="33.58" height="48.5" as="geometry" />
        </mxCell>
        <mxCell id="br-WhEXCo3o6V-tSTmiC-1" value="" style="rounded=1;whiteSpace=wrap;html=1;strokeColor=#FF6666;" vertex="1" parent="1">
          <mxGeometry x="-80" y="910" width="100" height="40" as="geometry" />
        </mxCell>
        <mxCell id="br-WhEXCo3o6V-tSTmiC-2" value="Based UI" style="text;html=1;strokeColor=none;fillColor=none;align=center;verticalAlign=middle;whiteSpace=wrap;rounded=0;" vertex="1" parent="1">
          <mxGeometry x="-60" y="916" width="60" height="30" as="geometry" />
        </mxCell>
        <mxCell id="br-WhEXCo3o6V-tSTmiC-3" value="" style="rounded=1;whiteSpace=wrap;html=1;" vertex="1" parent="1">
          <mxGeometry x="-80" y="970" width="100" height="40" as="geometry" />
        </mxCell>
        <mxCell id="br-WhEXCo3o6V-tSTmiC-4" value="Go-Long based API" style="text;html=1;strokeColor=#FF3333;fillColor=none;align=center;verticalAlign=middle;whiteSpace=wrap;rounded=0;shadow=1;" vertex="1" parent="1">
          <mxGeometry x="-80" y="970" width="100" height="40" as="geometry" />
        </mxCell>
        <mxCell id="br-WhEXCo3o6V-tSTmiC-5" value="" style="rounded=1;whiteSpace=wrap;html=1;strokeColor=#FF3333;" vertex="1" parent="1">
          <mxGeometry x="-80" y="1030" width="100" height="40" as="geometry" />
        </mxCell>
        <mxCell id="br-WhEXCo3o6V-tSTmiC-6" value="Smart Contract layer" style="text;html=1;strokeColor=none;fillColor=none;align=center;verticalAlign=middle;whiteSpace=wrap;rounded=0;" vertex="1" parent="1">
          <mxGeometry x="-70" y="1035" width="90" height="30" as="geometry" />
        </mxCell>
      </root>
    </mxGraphModel>
  </diagram>
</mxfile>
